<?xml version="1.0" encoding="UTF-8" standalone="no"?>
<!-- Created with Inkscape (http://www.inkscape.org/) -->

<svg
   width="512"
   height="145"
   viewBox="0 0 512 145"
   version="1.1"
   id="SVGRoot"
   sodipodi:docname="comicss-logo.svg"
   xml:space="preserve"
   inkscape:version="1.2.2 (b0a8486541, 2022-12-01)"
   xmlns:inkscape="http://www.inkscape.org/namespaces/inkscape"
   xmlns:sodipodi="http://sodipodi.sourceforge.net/DTD/sodipodi-0.dtd"
   xmlns:xlink="http://www.w3.org/1999/xlink"
   xmlns="http://www.w3.org/2000/svg"
   xmlns:svg="http://www.w3.org/2000/svg"
   xmlns:rdf="http://www.w3.org/1999/02/22-rdf-syntax-ns#"
   xmlns:cc="http://creativecommons.org/ns#"
   xmlns:dc="http://purl.org/dc/elements/1.1/"><title
     id="title8649">ComiCSS Logo</title><sodipodi:namedview
     id="namedview1129"
     pagecolor="#505050"
     bordercolor="#eeeeee"
     borderopacity="1"
     inkscape:showpageshadow="0"
     inkscape:pageopacity="0"
     inkscape:pagecheckerboard="0"
     inkscape:deskcolor="#505050"
     inkscape:document-units="px"
     showgrid="true"
     inkscape:zoom="2.1367164"
     inkscape:cx="295.31294"
     inkscape:cy="124.02208"
     inkscape:window-width="2560"
     inkscape:window-height="1018"
     inkscape:window-x="0"
     inkscape:window-y="30"
     inkscape:window-maximized="1"
     inkscape:current-layer="layer1"><inkscape:grid
       type="xygrid"
       id="grid1615"
       originx="0"
       originy="0" /></sodipodi:namedview><defs
     id="defs1124"><linearGradient
       inkscape:collect="always"
       id="linearGradient9907"><stop
         style="stop-color:#000000;stop-opacity:1;"
         offset="0"
         id="stop9903" /><stop
         style="stop-color:#000000;stop-opacity:0;"
         offset="1"
         id="stop9905" /></linearGradient><linearGradient
       id="linearGradient6682"
       inkscape:swatch="solid"><stop
         style="stop-color:#333333;stop-opacity:1;"
         offset="0"
         id="stop6680" /></linearGradient><rect
       x="39.100079"
       y="343.20126"
       width="452.43839"
       height="120.50139"
       id="rect3687" /><rect
       x="39.100079"
       y="343.20126"
       width="452.43839"
       height="120.50139"
       id="rect6510" /><linearGradient
       inkscape:collect="always"
       xlink:href="#linearGradient6682"
       id="linearGradient6684"
       x1="39.022129"
       y1="402.40067"
       x2="228.20103"
       y2="402.40067"
       gradientUnits="userSpaceOnUse" /><rect
       x="39.100079"
       y="343.20126"
       width="452.43839"
       height="120.50139"
       id="rect6910" /><radialGradient
       inkscape:collect="always"
       xlink:href="#linearGradient9907"
       id="radialGradient9909"
       cx="260.85953"
       cy="402.40067"
       fx="260.85953"
       fy="402.40067"
       r="221.65442"
       gradientTransform="matrix(1,0,0,0.17038456,0,333.83782)"
       gradientUnits="userSpaceOnUse" /><filter
       inkscape:collect="always"
       style="color-interpolation-filters:sRGB"
       id="filter9911"
       x="-0.05663858"
       y="-0.35428236"
       width="1.1132772"
       height="1.7085647"><feGaussianBlur
         inkscape:collect="always"
         stdDeviation="9.1748357"
         id="feGaussianBlur9913" /></filter></defs><g
     inkscape:label="comicss-logo"
     inkscape:groupmode="layer"
     id="layer1"
     style="display:inline"
     transform="translate(5.1474577,-175.45403)"><text
       xml:space="preserve"
       id="text3685"
       style="font-style:normal;font-weight:normal;font-size:96px;line-height:1.25;font-family:sans-serif;white-space:pre;shape-inside:url(#rect3687);display:none;fill:#000000;fill-opacity:1;stroke:#ffffff;stroke-width:5.91496;stroke-linecap:square;stroke-linejoin:round;stroke-dasharray:none;stroke-opacity:1"
       transform="matrix(1.037347,0,0,1.037347,-19.75074,-169.95523)"
       inkscape:label="comicss" /><g
       aria-label="COMICSS"
       transform="matrix(1.037347,0,0,1.037347,-19.75074,-169.95523)"
       id="g9809"
       style="font-size:96px;line-height:1.25;white-space:pre;shape-inside:url(#rect6910);display:inline;mix-blend-mode:normal;fill:#000000;stroke:#000000;stroke-width:5.54898;stroke-linecap:square;stroke-linejoin:round;stroke-dasharray:none;stroke-opacity:1;filter:url(#filter9911)"
       inkscape:label="comicss-shadow"><title
         id="title9789">comicss</title><path
         d="m 91.035609,435.85668 q -3.84,0.864 -7.872,1.152 -3.936,0.384 -7.776,0.384 -3.744,0 -5.856,-0.192 -2.016,-0.192 -5.376,-0.96 -3.36,-0.768 -6.144,-2.112 -2.784,-1.344 -5.952,-3.936 -3.072,-2.592 -5.184,-6.144 -4.896,-8.256 -4.896,-21.312 0,-8.736 2.688,-15.456 2.784,-6.72 6.624,-10.368 3.936,-3.648 8.928,-5.856 8.064,-3.648 16.224,-3.648 11.712,0 16.8,1.92 2.304,0.864 4.128,2.688 1.824,1.824 1.824,5.28 0,3.456 -1.728,8.736 -1.632,5.28 -4.8,5.28 -0.96,0 -7.104,-1.536 -6.144,-1.536 -8.352,-1.536 -3.36,0 -5.76,3.744 -2.304,3.744 -2.304,10.656 0,6.912 2.016,10.752 2.112,3.84 5.472,3.84 2.4,0 8.64,-1.92 6.336,-2.016 7.392,-2.016 2.976,0 4.608,5.472 1.728,5.472 1.728,8.832 0,3.36 -2.112,5.376 -2.016,1.92 -5.856,2.88 z"
         style="font-size:96px;line-height:1.25;font-family:'Titan One';-inkscape-font-specification:'Titan One';white-space:pre;shape-inside:url(#rect6910);display:inline;fill:#000000;stroke:#000000;stroke-width:5.54898;stroke-linecap:square;stroke-linejoin:round;stroke-dasharray:none;stroke-opacity:1"
         id="path9791"
         inkscape:label="c" /><path
         d="m 138.36362,437.39268 q -7.968,0 -13.728,-1.44 -5.664,-1.536 -10.464,-5.376 -9.696,-7.584 -9.696,-29.088 0,-9.024 2.592,-15.744 2.688,-6.72 7.392,-10.656 9.216,-7.68 23.904,-7.68 7.584,0 13.152,1.344 5.664,1.344 10.656,4.896 10.08,7.296 10.08,27.84 0,18.432 -9.12,27.168 -9.12,8.736 -24.768,8.736 z m -3.168,-16.416 q 1.152,1.344 3.168,1.344 2.016,0 3.168,-1.344 1.152,-1.44 1.92,-5.952 0.768,-4.608 0.768,-12.768 0,-8.16 -0.768,-12.576 -0.768,-4.416 -1.92,-5.76 -1.152,-1.344 -3.168,-1.344 -2.016,0 -3.168,1.344 -1.152,1.344 -1.92,5.76 -0.768,4.416 -0.768,12.576 0,8.16 0.768,12.768 0.768,4.512 1.92,5.952 z"
         style="font-size:96px;line-height:1.25;font-family:'Titan One';-inkscape-font-specification:'Titan One';white-space:pre;shape-inside:url(#rect6910);display:inline;fill:#000000;stroke:#000000;stroke-width:5.54898;stroke-linecap:square;stroke-linejoin:round;stroke-dasharray:none;stroke-opacity:1"
         id="path9793"
         inkscape:label="o" /><path
         d="m 193.27567,436.52868 q -2.4,0 -7.008,0 -4.512,0 -6.144,-0.672 -1.632,-0.672 -1.632,-2.112 v -60.576 q 0,-2.208 5.856,-3.456 5.952,-1.344 12.672,-1.344 6.72,0 9.6,1.728 2.88,1.728 3.36,3.648 l 6.528,25.344 h 0.864 l 6.144,-24.192 q 0.672,-2.592 6.24,-4.512 5.664,-2.016 12.384,-2.016 6.72,0 9.888,1.056 3.264,1.056 3.264,2.688 v 61.632 q 0,1.248 -5.472,2.016 -5.472,0.768 -13.344,0.768 -7.872,0 -7.872,-2.784 0,-7.584 1.632,-26.976 h -0.864 l -4.992,25.056 q -0.288,1.44 -2.4,2.112 -2.016,0.672 -6.144,0.672 -4.128,0 -5.088,-0.576 -0.864,-0.576 -1.152,-2.208 l -5.184,-25.056 h -0.864 q 1.728,19.776 1.728,26.976 0,2.496 -12,2.784 z"
         style="font-size:96px;line-height:1.25;font-family:'Titan One';-inkscape-font-specification:'Titan One';white-space:pre;shape-inside:url(#rect6910);display:inline;fill:#000000;stroke:#000000;stroke-width:5.54898;stroke-linecap:square;stroke-linejoin:round;stroke-dasharray:none;stroke-opacity:1"
         id="path9795"
         inkscape:label="m" /><path
         d="m 289.75559,434.22468 q 0,1.056 -5.856,1.728 -5.856,0.576 -11.808,0.576 -5.856,0 -7.488,-0.48 -1.632,-0.576 -1.632,-1.824 v -59.712 q 0,-2.112 5.568,-4.128 5.568,-2.112 12.48,-2.112 6.144,0 8.064,2.592 0.672,0.96 0.672,1.92 z"
         style="font-size:96px;line-height:1.25;font-family:'Titan One';-inkscape-font-specification:'Titan One';white-space:pre;shape-inside:url(#rect6910);display:inline;fill:#000000;stroke:#000000;stroke-width:5.54898;stroke-linecap:square;stroke-linejoin:round;stroke-dasharray:none;stroke-opacity:1"
         id="path9797"
         inkscape:label="i" /><path
         d="m 345.53152,435.85668 q -3.84,0.864 -7.872,1.152 -3.936,0.384 -7.776,0.384 -3.744,0 -5.856,-0.192 -2.016,-0.192 -5.376,-0.96 -3.36,-0.768 -6.144,-2.112 -2.784,-1.344 -5.952,-3.936 -3.072,-2.592 -5.184,-6.144 -4.896,-8.256 -4.896,-21.312 0,-8.736 2.688,-15.456 2.784,-6.72 6.624,-10.368 3.936,-3.648 8.928,-5.856 8.064,-3.648 16.224,-3.648 11.712,0 16.8,1.92 2.304,0.864 4.128,2.688 1.824,1.824 1.824,5.28 0,3.456 -1.728,8.736 -1.632,5.28 -4.8,5.28 -0.96,0 -7.104,-1.536 -6.144,-1.536 -8.352,-1.536 -3.36,0 -5.76,3.744 -2.304,3.744 -2.304,10.656 0,6.912 2.016,10.752 2.112,3.84 5.472,3.84 2.4,0 8.64,-1.92 6.336,-2.016 7.392,-2.016 2.976,0 4.608,5.472 1.728,5.472 1.728,8.832 0,3.36 -2.112,5.376 -2.016,1.92 -5.856,2.88 z"
         style="font-size:96px;line-height:1.25;white-space:pre;shape-inside:url(#rect6910);display:inline;fill:#000000;fill-opacity:1;stroke:#000000;stroke-width:5.54898;stroke-linecap:square;stroke-linejoin:round;stroke-dasharray:none;stroke-opacity:1"
         id="path9801"
         inkscape:label="c" /><path
         d="m 409.27553,432.49668 q -2.88,2.112 -8.064,3.552 -5.088,1.344 -13.248,1.344 -8.064,0 -15.36,-1.344 -7.296,-1.344 -10.464,-2.976 -3.168,-1.632 -3.168,-3.168 0,-5.376 1.536,-11.136 1.536,-5.856 3.648,-5.856 0.384,0 7.968,2.592 7.584,2.592 11.424,2.592 3.84,0 4.992,-0.768 1.152,-0.864 1.152,-2.4 0,-1.536 -2.112,-2.688 -2.112,-1.248 -5.28,-2.112 -3.168,-0.96 -6.912,-2.688 -3.648,-1.728 -6.816,-3.84 -3.168,-2.112 -5.28,-5.952 -2.112,-3.936 -2.112,-8.928 0,-21.312 25.44,-21.312 9.504,0 16.416,1.248 6.912,1.152 9.696,2.688 2.88,1.44 2.88,2.88 0,4.992 -2.4,10.752 -2.304,5.76 -4.512,5.76 -0.384,0 -2.496,-0.864 -6.336,-2.784 -10.56,-2.784 -4.128,0 -5.664,0.768 -1.44,0.768 -1.44,2.4 0,1.536 2.112,2.592 2.112,0.96 5.184,1.824 3.168,0.768 6.816,2.496 3.744,1.632 6.912,3.936 3.168,2.208 5.28,6.336 2.112,4.128 2.112,9.6 0,5.76 -2.976,10.464 -1.824,2.88 -4.704,4.992 z"
         style="font-size:96px;line-height:1.25;white-space:pre;shape-inside:url(#rect6910);display:inline;fill:#000000;fill-opacity:1;stroke:#000000;stroke-width:5.54898;stroke-linecap:square;stroke-linejoin:round;stroke-dasharray:none;stroke-opacity:1"
         id="path9803"
         inkscape:label="s" /><path
         d="m 472.05947,432.49668 q -2.88,2.112 -8.064,3.552 -5.088,1.344 -13.248,1.344 -8.064,0 -15.36,-1.344 -7.296,-1.344 -10.464,-2.976 -3.168,-1.632 -3.168,-3.168 0,-5.376 1.536,-11.136 1.536,-5.856 3.648,-5.856 0.384,0 7.968,2.592 7.584,2.592 11.424,2.592 3.84,0 4.992,-0.768 1.152,-0.864 1.152,-2.4 0,-1.536 -2.112,-2.688 -2.112,-1.248 -5.28,-2.112 -3.168,-0.96 -6.912,-2.688 -3.648,-1.728 -6.816,-3.84 -3.168,-2.112 -5.28,-5.952 -2.112,-3.936 -2.112,-8.928 0,-21.312 25.44,-21.312 9.504,0 16.416,1.248 6.912,1.152 9.696,2.688 2.88,1.44 2.88,2.88 0,4.992 -2.4,10.752 -2.304,5.76 -4.512,5.76 -0.384,0 -2.496,-0.864 -6.336,-2.784 -10.56,-2.784 -4.128,0 -5.664,0.768 -1.44,0.768 -1.44,2.4 0,1.536 2.112,2.592 2.112,0.96 5.184,1.824 3.168,0.768 6.816,2.496 3.744,1.632 6.912,3.936 3.168,2.208 5.28,6.336 2.112,4.128 2.112,9.6 0,5.76 -2.976,10.464 -1.824,2.88 -4.704,4.992 z"
         style="font-size:96px;line-height:1.25;white-space:pre;shape-inside:url(#rect6910);display:inline;fill:#000000;fill-opacity:1;stroke:#000000;stroke-width:5.54898;stroke-linecap:square;stroke-linejoin:round;stroke-dasharray:none;stroke-opacity:1"
         id="path9805"
         inkscape:label="s" /></g><g
       aria-label="COMICSS"
       transform="matrix(1.037347,0,0,1.037347,-19.75074,-169.95523)"
       id="comicss"
       style="font-size:96px;line-height:1.25;white-space:pre;shape-inside:url(#rect6910);display:inline;stroke:#ffffff;stroke-width:5.54898;stroke-linecap:square;stroke-linejoin:round;stroke-dasharray:none"
       inkscape:label="comicss"><title
         id="title9787">comicss</title><g
         id="g6936"
         inkscape:label="comi"
         style="stroke-width:5.54898;stroke-dasharray:none"><path
           d="m 91.035609,435.85668 q -3.84,0.864 -7.872,1.152 -3.936,0.384 -7.776,0.384 -3.744,0 -5.856,-0.192 -2.016,-0.192 -5.376,-0.96 -3.36,-0.768 -6.144,-2.112 -2.784,-1.344 -5.952,-3.936 -3.072,-2.592 -5.184,-6.144 -4.896,-8.256 -4.896,-21.312 0,-8.736 2.688,-15.456 2.784,-6.72 6.624,-10.368 3.936,-3.648 8.928,-5.856 8.064,-3.648 16.224,-3.648 11.712,0 16.8,1.92 2.304,0.864 4.128,2.688 1.824,1.824 1.824,5.28 0,3.456 -1.728,8.736 -1.632,5.28 -4.8,5.28 -0.96,0 -7.104,-1.536 -6.144,-1.536 -8.352,-1.536 -3.36,0 -5.76,3.744 -2.304,3.744 -2.304,10.656 0,6.912 2.016,10.752 2.112,3.84 5.472,3.84 2.4,0 8.64,-1.92 6.336,-2.016 7.392,-2.016 2.976,0 4.608,5.472 1.728,5.472 1.728,8.832 0,3.36 -2.112,5.376 -2.016,1.92 -5.856,2.88 z"
           style="font-family:'Titan One';-inkscape-font-specification:'Titan One';display:inline;stroke-width:5.54898;stroke-dasharray:none"
           id="path6912"
           inkscape:label="c" /><path
           d="m 138.36362,437.39268 q -7.968,0 -13.728,-1.44 -5.664,-1.536 -10.464,-5.376 -9.696,-7.584 -9.696,-29.088 0,-9.024 2.592,-15.744 2.688,-6.72 7.392,-10.656 9.216,-7.68 23.904,-7.68 7.584,0 13.152,1.344 5.664,1.344 10.656,4.896 10.08,7.296 10.08,27.84 0,18.432 -9.12,27.168 -9.12,8.736 -24.768,8.736 z m -3.168,-16.416 q 1.152,1.344 3.168,1.344 2.016,0 3.168,-1.344 1.152,-1.44 1.92,-5.952 0.768,-4.608 0.768,-12.768 0,-8.16 -0.768,-12.576 -0.768,-4.416 -1.92,-5.76 -1.152,-1.344 -3.168,-1.344 -2.016,0 -3.168,1.344 -1.152,1.344 -1.92,5.76 -0.768,4.416 -0.768,12.576 0,8.16 0.768,12.768 0.768,4.512 1.92,5.952 z"
           style="font-family:'Titan One';-inkscape-font-specification:'Titan One';display:inline;stroke-width:5.54898;stroke-dasharray:none"
           id="path6914"
           inkscape:label="o" /><path
           d="m 193.27567,436.52868 q -2.4,0 -7.008,0 -4.512,0 -6.144,-0.672 -1.632,-0.672 -1.632,-2.112 v -60.576 q 0,-2.208 5.856,-3.456 5.952,-1.344 12.672,-1.344 6.72,0 9.6,1.728 2.88,1.728 3.36,3.648 l 6.528,25.344 h 0.864 l 6.144,-24.192 q 0.672,-2.592 6.24,-4.512 5.664,-2.016 12.384,-2.016 6.72,0 9.888,1.056 3.264,1.056 3.264,2.688 v 61.632 q 0,1.248 -5.472,2.016 -5.472,0.768 -13.344,0.768 -7.872,0 -7.872,-2.784 0,-7.584 1.632,-26.976 h -0.864 l -4.992,25.056 q -0.288,1.44 -2.4,2.112 -2.016,0.672 -6.144,0.672 -4.128,0 -5.088,-0.576 -0.864,-0.576 -1.152,-2.208 l -5.184,-25.056 h -0.864 q 1.728,19.776 1.728,26.976 0,2.496 -12,2.784 z"
           style="font-family:'Titan One';-inkscape-font-specification:'Titan One';display:inline;stroke-width:5.54898;stroke-dasharray:none"
           id="path6916"
           inkscape:label="m" /><path
           d="m 289.75559,434.22468 q 0,1.056 -5.856,1.728 -5.856,0.576 -11.808,0.576 -5.856,0 -7.488,-0.48 -1.632,-0.576 -1.632,-1.824 v -59.712 q 0,-2.112 5.568,-4.128 5.568,-2.112 12.48,-2.112 6.144,0 8.064,2.592 0.672,0.96 0.672,1.92 z"
           style="font-family:'Titan One';-inkscape-font-specification:'Titan One';display:inline;stroke-width:5.54898;stroke-dasharray:none"
           id="path6918"
           inkscape:label="i" /></g><g
         id="g6930"
         inkscape:label="css"
         style="display:inline;fill:#4d4d4d;fill-opacity:1;stroke-width:5.54898;stroke-dasharray:none"><path
           d="m 345.53152,435.85668 q -3.84,0.864 -7.872,1.152 -3.936,0.384 -7.776,0.384 -3.744,0 -5.856,-0.192 -2.016,-0.192 -5.376,-0.96 -3.36,-0.768 -6.144,-2.112 -2.784,-1.344 -5.952,-3.936 -3.072,-2.592 -5.184,-6.144 -4.896,-8.256 -4.896,-21.312 0,-8.736 2.688,-15.456 2.784,-6.72 6.624,-10.368 3.936,-3.648 8.928,-5.856 8.064,-3.648 16.224,-3.648 11.712,0 16.8,1.92 2.304,0.864 4.128,2.688 1.824,1.824 1.824,5.28 0,3.456 -1.728,8.736 -1.632,5.28 -4.8,5.28 -0.96,0 -7.104,-1.536 -6.144,-1.536 -8.352,-1.536 -3.36,0 -5.76,3.744 -2.304,3.744 -2.304,10.656 0,6.912 2.016,10.752 2.112,3.84 5.472,3.84 2.4,0 8.64,-1.92 6.336,-2.016 7.392,-2.016 2.976,0 4.608,5.472 1.728,5.472 1.728,8.832 0,3.36 -2.112,5.376 -2.016,1.92 -5.856,2.88 z"
           style="display:inline;fill:#4d4d4d;fill-opacity:1;stroke-width:5.54898;stroke-dasharray:none"
           id="path6920"
           inkscape:label="c" /><path
           d="m 409.27553,432.49668 q -2.88,2.112 -8.064,3.552 -5.088,1.344 -13.248,1.344 -8.064,0 -15.36,-1.344 -7.296,-1.344 -10.464,-2.976 -3.168,-1.632 -3.168,-3.168 0,-5.376 1.536,-11.136 1.536,-5.856 3.648,-5.856 0.384,0 7.968,2.592 7.584,2.592 11.424,2.592 3.84,0 4.992,-0.768 1.152,-0.864 1.152,-2.4 0,-1.536 -2.112,-2.688 -2.112,-1.248 -5.28,-2.112 -3.168,-0.96 -6.912,-2.688 -3.648,-1.728 -6.816,-3.84 -3.168,-2.112 -5.28,-5.952 -2.112,-3.936 -2.112,-8.928 0,-21.312 25.44,-21.312 9.504,0 16.416,1.248 6.912,1.152 9.696,2.688 2.88,1.44 2.88,2.88 0,4.992 -2.4,10.752 -2.304,5.76 -4.512,5.76 -0.384,0 -2.496,-0.864 -6.336,-2.784 -10.56,-2.784 -4.128,0 -5.664,0.768 -1.44,0.768 -1.44,2.4 0,1.536 2.112,2.592 2.112,0.96 5.184,1.824 3.168,0.768 6.816,2.496 3.744,1.632 6.912,3.936 3.168,2.208 5.28,6.336 2.112,4.128 2.112,9.6 0,5.76 -2.976,10.464 -1.824,2.88 -4.704,4.992 z"
           style="display:inline;fill:#4d4d4d;fill-opacity:1;stroke-width:5.54898;stroke-dasharray:none"
           id="path6922"
           inkscape:label="s" /><path
           d="m 472.05947,432.49668 q -2.88,2.112 -8.064,3.552 -5.088,1.344 -13.248,1.344 -8.064,0 -15.36,-1.344 -7.296,-1.344 -10.464,-2.976 -3.168,-1.632 -3.168,-3.168 0,-5.376 1.536,-11.136 1.536,-5.856 3.648,-5.856 0.384,0 7.968,2.592 7.584,2.592 11.424,2.592 3.84,0 4.992,-0.768 1.152,-0.864 1.152,-2.4 0,-1.536 -2.112,-2.688 -2.112,-1.248 -5.28,-2.112 -3.168,-0.96 -6.912,-2.688 -3.648,-1.728 -6.816,-3.84 -3.168,-2.112 -5.28,-5.952 -2.112,-3.936 -2.112,-8.928 0,-21.312 25.44,-21.312 9.504,0 16.416,1.248 6.912,1.152 9.696,2.688 2.88,1.44 2.88,2.88 0,4.992 -2.4,10.752 -2.304,5.76 -4.512,5.76 -0.384,0 -2.496,-0.864 -6.336,-2.784 -10.56,-2.784 -4.128,0 -5.664,0.768 -1.44,0.768 -1.44,2.4 0,1.536 2.112,2.592 2.112,0.96 5.184,1.824 3.168,0.768 6.816,2.496 3.744,1.632 6.912,3.936 3.168,2.208 5.28,6.336 2.112,4.128 2.112,9.6 0,5.76 -2.976,10.464 -1.824,2.88 -4.704,4.992 z"
           style="display:inline;fill:#4d4d4d;fill-opacity:1;stroke-width:5.54898;stroke-dasharray:none"
           id="path6924"
           inkscape:label="s" /></g></g></g><metadata
     id="metadata8647"><rdf:RDF><cc:Work
         rdf:about=""><dc:title>ComiCSS Logo</dc:title><dc:date>04-30-2023</dc:date><dc:creator><cc:Agent><dc:title>Phelipefox</dc:title></cc:Agent></dc:creator><dc:language>English</dc:language></cc:Work></rdf:RDF></metadata></svg>
