
<svg width="100%" height="100%" viewBox="0 0 100 100" xmlns="http://www.w3.org/2000/svg" overflow="hidden" >
  <g>
  <path d="M 50 50 L 250 50 L 240.2113032590307 111.80339887498948" fill="#000000" transform-origin="50 50" transform="rotate(0, 0, 0)" /><path d="M 50 50 L 250 50 L 240.2113032590307 111.80339887498948" fill="#f8e45c" transform-origin="50 50" transform="rotate(18, 0, 0)" /><path d="M 50 50 L 250 50 L 240.2113032590307 111.80339887498948" fill="#000000" transform-origin="50 50" transform="rotate(36, 0, 0)" /><path d="M 50 50 L 250 50 L 240.2113032590307 111.80339887498948" fill="#f8e45c" transform-origin="50 50" transform="rotate(54, 0, 0)" /><path d="M 50 50 L 250 50 L 240.2113032590307 111.80339887498948" fill="#000000" transform-origin="50 50" transform="rotate(72, 0, 0)" /><path d="M 50 50 L 250 50 L 240.2113032590307 111.80339887498948" fill="#f8e45c" transform-origin="50 50" transform="rotate(90, 0, 0)" /><path d="M 50 50 L 250 50 L 240.2113032590307 111.80339887498948" fill="#000000" transform-origin="50 50" transform="rotate(108, 0, 0)" /><path d="M 50 50 L 250 50 L 240.2113032590307 111.80339887498948" fill="#f8e45c" transform-origin="50 50" transform="rotate(126, 0, 0)" /><path d="M 50 50 L 250 50 L 240.2113032590307 111.80339887498948" fill="#000000" transform-origin="50 50" transform="rotate(144, 0, 0)" /><path d="M 50 50 L 250 50 L 240.2113032590307 111.80339887498948" fill="#f8e45c" transform-origin="50 50" transform="rotate(162, 0, 0)" /><path d="M 50 50 L 250 50 L 240.2113032590307 111.80339887498948" fill="#000000" transform-origin="50 50" transform="rotate(180, 0, 0)" /><path d="M 50 50 L 250 50 L 240.2113032590307 111.80339887498948" fill="#f8e45c" transform-origin="50 50" transform="rotate(198, 0, 0)" /><path d="M 50 50 L 250 50 L 240.2113032590307 111.80339887498948" fill="#000000" transform-origin="50 50" transform="rotate(216, 0, 0)" /><path d="M 50 50 L 250 50 L 240.2113032590307 111.80339887498948" fill="#f8e45c" transform-origin="50 50" transform="rotate(234, 0, 0)" /><path d="M 50 50 L 250 50 L 240.2113032590307 111.80339887498948" fill="#000000" transform-origin="50 50" transform="rotate(252, 0, 0)" /><path d="M 50 50 L 250 50 L 240.2113032590307 111.80339887498948" fill="#f8e45c" transform-origin="50 50" transform="rotate(270, 0, 0)" /><path d="M 50 50 L 250 50 L 240.2113032590307 111.80339887498948" fill="#000000" transform-origin="50 50" transform="rotate(288, 0, 0)" /><path d="M 50 50 L 250 50 L 240.2113032590307 111.80339887498948" fill="#f8e45c" transform-origin="50 50" transform="rotate(306, 0, 0)" /><path d="M 50 50 L 250 50 L 240.2113032590307 111.80339887498948" fill="#000000" transform-origin="50 50" transform="rotate(324, 0, 0)" /><path d="M 50 50 L 250 50 L 240.2113032590307 111.80339887498948" fill="#f8e45c" transform-origin="50 50" transform="rotate(342, 0, 0)" /><animateTransform
	attributeName="transform"
	attributeType="XML"
	type="rotate"
	from="0 50 50"
	to="360 50 50"
	dur="50s"
	repeatCount="indefinite" />    
  </g>
</svg>
