<?xml version="1.0" encoding="UTF-8" standalone="no"?>
<svg
   width="36.42815"
   height="17.861954"
   fill="none"
   viewBox="0 0 36.42815 17.861953"
   version="1.1"
   id="svg1"
   sodipodi:docname="end-pointer.svg"
   inkscape:version="1.4 (e7c3feb100, 2024-10-09)"
   xmlns:inkscape="http://www.inkscape.org/namespaces/inkscape"
   xmlns:sodipodi="http://sodipodi.sourceforge.net/DTD/sodipodi-0.dtd"
   xmlns="http://www.w3.org/2000/svg"
   xmlns:svg="http://www.w3.org/2000/svg">
  <defs
     id="defs1" />
  <sodipodi:namedview
     id="namedview1"
     pagecolor="#505050"
     bordercolor="#eeeeee"
     borderopacity="1"
     inkscape:showpageshadow="0"
     inkscape:pageopacity="0"
     inkscape:pagecheckerboard="0"
     inkscape:deskcolor="#505050"
     inkscape:zoom="14.460334"
     inkscape:cx="18.810077"
     inkscape:cy="10.684401"
     inkscape:window-width="1426"
     inkscape:window-height="942"
     inkscape:window-x="94"
     inkscape:window-y="76"
     inkscape:window-maximized="0"
     inkscape:current-layer="svg1" />
  <path
     d="m 6.9643871,1.3679613 q 0.4055245,0 0.9168381,0.035263 0.528945,0.035263 1.05789,0.1234205 0.528945,0.088158 1.022627,0.2292095 0.4936818,0.1234205 0.8639438,0.317367 0.264472,0.141052 0.423156,0.2997355 0.158683,0.1586835 0.229209,0.35263 0.08816,0.176315 0.105789,0.4055245 0.01763,0.2292095 0.01763,0.5113135 0,1.05789 -0.387893,1.6044665 -0.370262,0.5465765 -0.987364,0.7934176 -0.5994713,0.246841 -1.3928888,0.282104 -0.775786,0.017632 -1.6044666,0.017632 -0.176315,0 -0.423156,0.017632 -0.2292095,0 -0.4407875,0.070526 -0.211578,0.070526 -0.35263,0.211578 -0.141052,0.141052 -0.141052,0.387893 0,0.3349985 0.246841,0.4055245 0.2644725,0.070526 0.528945,0.070526 0.5113135,0 1.0226271,-0.070526 0.5113135,-0.070526 1.022627,-0.070526 0.7581545,0 1.163679,0.3702615 0.4055248,0.3702615 0.4055248,1.1460475 0,0.3702615 -0.08816,0.7228915 -0.08816,0.35263 -0.2997353,0.6347341 -0.1939465,0.264472 -0.493682,0.423156 -0.2997355,0.158683 -0.7228915,0.158683 -0.4055245,0 -0.811049,-0.07053 -0.4055246,-0.07053 -0.8110491,-0.07053 -0.088157,0 -0.246841,0.01763 -0.141052,0 -0.282104,0.03526 -0.141052,0.03526 -0.246841,0.105789 -0.088157,0.07053 -0.088157,0.211578 0,0.47605 0.282104,0.617102 0.2997355,0.141052 0.70526,0.141052 0.7757861,0 1.5163091,-0.141052 0.740523,-0.141052 1.5339408,-0.141052 0.528945,0 0.952101,0.317367 0.440788,0.317367 0.758155,0.793418 0.317367,0.458419 0.47605,1.004995 0.176315,0.546577 0.176315,1.004996 0,0.334998 -0.35263,0.599471 -0.334998,0.246841 -0.863943,0.423156 -0.528945,0.193946 -1.181311,0.317367 -0.6523658,0.141052 -1.2694683,0.211578 -0.6171025,0.08816 -1.128416,0.12342 -0.5113136,0.03526 -0.7581546,0.03526 -0.493682,0 -1.093153,-0.03526 -0.5994675,-0.03525 -1.21657,-0.14104 Q 4.1080841,16.072632 3.5438761,15.861054 2.9796681,15.667108 2.5388806,15.332109 2.1157246,14.997111 1.8512521,14.52106 1.5867796,14.027378 1.5867796,13.357381 q 0,-1.639729 -0.052895,-3.244196 -0.035263,-1.6044661 -0.035263,-3.2441956 0,-0.282104 -0.035263,-0.952101 -0.017632,-0.6699971 0.035263,-1.4105201 0.070526,-0.7581545 0.282104,-1.41052 0.211578,-0.6523655 0.669997,-0.881575 0.458419,-0.2292095 1.0402585,-0.387893 0.599471,-0.1586835 1.198942,-0.2644725 0.6171025,-0.105789 1.198942,-0.141052 0.599471,-0.052895 1.075522,-0.052895 z M 12.948358,12.105545 q 0,-1.110785 0.07053,-2.3097266 0.08816,-1.198942 0.246841,-2.3449895 0.176315,-1.163679 0.458419,-2.2039376 0.282104,-1.05789 0.70526,-1.868939 0.246841,-0.4760505 0.511314,-0.7581545 0.264472,-0.2997355 0.546576,-0.458419 0.282104,-0.176315 0.564208,-0.2292095 0.282104,-0.070526 0.564208,-0.070526 0.370262,0 0.811049,0.088158 0.458419,0.070526 0.740523,0.317367 0.246841,0.2292095 0.476051,0.7934175 0.229209,0.564208 0.440787,1.2870995 0.211578,0.7228915 0.405525,1.4986776 0.193946,0.7581545 0.370261,1.41052 0.176315,0.634734 0.334999,1.05789 0.176315,0.4055245 0.317367,0.4055245 0.141052,0 0.211578,-0.105789 0.07053,-0.105789 0.105789,-0.246841 0.03526,-0.1586835 0.03526,-0.2997355 0,-0.1586835 0,-0.246841 0,-1.05789 -0.176315,-2.0981486 -0.176315,-1.0402585 -0.176315,-2.0981485 0,-0.317367 0.05289,-0.7228915 0.05289,-0.4055245 0.299736,-0.634734 0.334998,-0.2997355 0.881575,-0.4055245 0.546576,-0.1234205 0.969732,-0.1234205 0.317367,0 0.669997,0.052895 0.35263,0.052895 0.669997,0.1939465 0.317367,0.1234205 0.546577,0.35263 0.246841,0.211578 0.35263,0.564208 0.299735,1.0755215 0.387893,2.2744635 0.08816,1.1813106 0.08816,2.2920951 0,0.70526 -0.07053,1.7455185 -0.05289,1.0226271 -0.193946,2.0981481 -0.141052,1.075522 -0.387893,2.062886 -0.22921,0.987364 -0.58184,1.604466 -0.458419,0.775786 -1.428151,0.775786 -0.863944,0 -1.551572,-0.370261 -0.669997,-0.35263 -1.198942,-0.881575 -0.511314,-0.546577 -0.899207,-1.181311 -0.370261,-0.634734 -0.652365,-1.163679 -0.264473,-0.546576 -0.458419,-0.899206 -0.193947,-0.370262 -0.35263,-0.370262 -0.246841,0 -0.317367,0.193947 -0.0529,0.193946 -0.0529,0.370261 0,0.35263 0.0529,0.70526 0.07053,0.35263 0.141052,0.70526 0.08816,0.35263 0.141052,0.70526 0.07053,0.35263 0.07053,0.70526 0,0.299736 -0.07053,0.564208 -0.05289,0.264473 -0.282104,0.458419 -0.211578,0.193947 -0.528945,0.334999 -0.299736,0.141052 -0.652366,0.229209 -0.334998,0.105789 -0.687628,0.141052 -0.334999,0.05289 -0.617103,0.05289 -0.246841,0 -0.528945,-0.03526 -0.282104,-0.03526 -0.528945,-0.141052 -0.229209,-0.105789 -0.405524,-0.282104 -0.176315,-0.176315 -0.22921,-0.476051 -0.141052,-0.740523 -0.176315,-1.498677 -0.03526,-0.775786 -0.03526,-1.516309 z M 38.0625,10.077922 q 0,1.163679 -0.405524,2.098149 -0.405525,0.934469 -1.110785,1.657361 -0.687628,0.70526 -1.622098,1.216573 -0.916838,0.511314 -1.957096,0.828681 -1.022627,0.334998 -2.098149,0.47605 -1.075522,0.158684 -2.080517,0.158684 -0.70526,0 -1.234205,-0.22921 -0.528945,-0.229209 -0.740523,-0.969732 -0.176315,-0.669997 -0.299736,-1.569204 -0.12342,-0.899206 -0.211578,-1.851307 -0.07053,-0.952101 -0.105789,-1.851308 -0.01763,-0.9168376 -0.01763,-1.6220976 0,-0.6171025 0.01763,-1.304731 0.03526,-0.70526 0.08816,-1.4105201 0.07053,-0.7228915 0.193946,-1.41052 0.123421,-0.6876285 0.334999,-1.269468 0.158683,-0.423156 0.440787,-0.6876285 0.282104,-0.2644725 0.652366,-0.4055245 0.370261,-0.1586835 0.775786,-0.1939465 0.423156,-0.052895 0.82868,-0.052895 0.952101,0 1.904203,0.176315 0.952101,0.1586835 1.88657,0.3702615 1.181311,0.282104 2.186306,1.1107845 1.004996,0.811049 1.516309,1.9218335 0.493682,1.1107846 0.775786,2.3626211 0.282104,1.234205 0.282104,2.4507786 z M 30.586744,8.7026654 q 0,0.176315 0,0.5818395 0.01763,0.387893 0.07053,0.7934171 0.07053,0.405525 0.211578,0.70526 0.158684,0.299736 0.423156,0.299736 0.22921,0 0.511314,-0.105789 0.282104,-0.123421 0.546576,-0.282104 0.282104,-0.176315 0.511314,-0.370262 0.229209,-0.193946 0.370261,-0.3702611 0.141052,-0.176315 0.193947,-0.387893 0.07053,-0.211578 0.07053,-0.458419 0,-0.387893 -0.193947,-0.811049 -0.176315,-0.4407875 -0.493682,-0.7934175 -0.299735,-0.3702615 -0.70526,-0.599471 -0.387893,-0.246841 -0.793417,-0.246841 -0.264473,0 -0.423156,0.246841 -0.141052,0.246841 -0.211578,0.599471 -0.07053,0.3349985 -0.08816,0.669997 0,0.3349985 0,0.528945 z"
     id="text2"
     style="font-size:17.6315px;font-family:'Super Bubble';-inkscape-font-specification:'Super Bubble';text-align:justify;letter-spacing:0.0774069px;display:inline;fill:#1e1e1e;stroke:#1f1f1f;stroke-width:0.821686;stroke-linecap:round;stroke-linejoin:round"
     transform="scale(0.94626752,1.0567836)"
     aria-label="END"
     inkscape:label="end-shadow" />
  <path
     d="m 9.9755488,10.039688 q 0.1739282,0.268799 0.2687992,0.758962 0.110682,0.474351 0.142305,1.011949 0.03162,0.537597 0,1.059383 -0.03162,0.521787 -0.158117,0.869644 -0.4427276,0.173929 -1.0277605,0.252987 -0.5692212,0.09487 -1.1858775,0.126494 -0.6166563,0.04744 -1.2175009,0.04744 -0.6008446,0.01581 -1.1226307,0.01581 -1.7550987,0 -2.7512358,-0.06325 -0.9803254,-0.06325 -1.4546763,-0.332046 -0.47435105,-0.252987 -0.58503294,-0.790585 -0.1106819,-0.537598 -0.1106819,-1.502111 0,-0.74315 -0.0158117,-1.5337353 0,-0.8063967 -0.0158117,-1.5337349 -0.0474351,-1.4546764 -0.0474351,-2.9093528 0,-0.063247 -0.0158117,-0.1423053 0,-0.079059 0,-0.1897404 -0.0158117,-0.1739287 -0.0158117,-0.3794808 0,-0.2213638 0,-0.4427276 0,-0.4269159 -0.0158117,-0.948702 0,-0.5375978 0.0474351,-1.0119488 Q 0.75732776,1.9124744 0.89963306,1.5329936 1.0577501,1.1535128 1.3581724,1.0270192 1.848335,0.82146713 2.4333679,0.72659693 3.0342125,0.63172673 3.6508688,0.60010333 4.2675251,0.56847993 4.852558,0.58429163 q 0.6008446,0 1.0910073,0 0.4111042,0 0.9012669,0.0316234 0.5059744,0.0316234 1.0277605,0.1106819 0.5217861,0.0632468 1.0119488,0.1739287 0.5059744,0.0948702 0.9012669,0.25298717 0.1423053,0.2529872 0.1897404,0.6799031 0.063247,0.4269159 0.047435,0.9012669 -0.01581,0.474351 -0.079059,0.948702 -0.047435,0.4585393 -0.1264936,0.8222084 -0.2055521,0.063247 -0.4585393,0.09487 -0.2371755,0.015812 -0.6008446,0.015812 -0.3478574,0 -0.8538318,0 -0.4901627,-0.015812 -1.2016892,-0.015812 h -0.790585 q -0.5059744,0 -0.8222084,0.015812 -0.3004223,0 -0.474351,0.063247 -0.1739287,0.063247 -0.2371755,0.1897404 -0.047435,0.1264936 -0.047435,0.3478574 0,0.158117 0.031623,0.316234 0.031623,0.1423053 0.1264936,0.2687989 0.1106819,0.1264936 0.3004223,0.2055521 0.1897404,0.079059 0.5059744,0.079059 0.2846106,0 0.7115265,-0.015812 Q 6.4337271,6.05514 6.702526,6.023517 6.9713249,5.991894 7.2243121,5.976082 7.493111,5.96027 7.7619099,5.96027 q 0.2529872,0 0.4585393,0.047435 0.09487,0.3004223 0.1423053,0.7273382 0.047435,0.4269159 0.047435,0.8538318 0,0.4269159 -0.031623,0.8063967 -0.031623,0.3636691 -0.079059,0.5375978 -0.1106819,0.031623 -0.2846106,0.079058 -0.1739287,0.047435 -0.2846106,0.047435 -0.2055521,0 -0.4111042,-0.015812 Q 7.1136311,9.0277394 6.8922673,8.996116 6.6709035,8.9644926 6.3072344,8.9486809 5.9435653,8.9328692 5.7063898,8.9328692 q -0.5692212,0 -0.8222084,0.2055521 -0.2371755,0.1897404 -0.2371755,0.4427276 0,0.4269161 0.2371755,0.5534091 0.2371755,0.126494 0.948702,0.126494 0.2055521,0 0.4585393,0 0.2529872,-0.01581 0.5059744,-0.03162 0.2687989,-0.03162 0.5217861,-0.04744 0.2529872,-0.03162 0.4427276,-0.04744 0.4111042,-0.04744 0.948702,-0.07906 0.5534095,-0.04744 0.9645137,-0.04744 0.079059,0 0.1423053,0.01581 0.079059,0 0.158117,0.01581 z m 13.1298822,3.193964 q -0.142305,0.158117 -0.521786,0.252987 -0.379481,0.09487 -0.853832,0.110682 -0.474351,0.03162 -0.980325,-0.01581 -0.505974,-0.03162 -0.901267,-0.158117 -0.758962,-0.537598 -1.328183,-1.280748 -0.553409,-0.74315 -0.996137,-1.407241 -0.426916,-0.679903 -0.758961,-1.1384424 -0.332046,-0.474351 -0.600845,-0.474351 -0.252987,0 -0.316234,0.09487 -0.04744,0.079059 -0.04744,0.3794808 0,0.3320457 0.04744,0.7273386 0.06325,0.395292 0.126494,0.806396 0.07906,0.395293 0.126493,0.790585 0.06325,0.395293 0.06325,0.727339 0,0.221363 -0.03162,0.426916 -0.03162,0.205552 -0.173929,0.37948 -0.363669,0.221364 -0.917079,0.316234 -0.537598,0.110682 -1.12263,0.126494 -0.585033,0.03162 -1.122631,-0.01581 -0.537598,-0.03162 -0.901267,-0.110682 -0.142305,-0.18974 -0.173929,-0.363669 -0.07906,-0.316234 -0.142305,-0.727338 -0.06325,-0.426916 -0.110682,-0.853832 -0.03162,-0.442727 -0.06325,-0.853832 -0.01581,-0.426915 -0.01581,-0.758961 0,-1.3756182 0.04744,-2.6879893 0.06325,-1.3281828 0.332045,-2.5931188 0.03162,-0.1264936 0.03162,-0.1739287 0.01581,-0.063247 0.01581,-0.1106819 0,-0.1897404 -0.09487,-0.2687989 -0.07906,-0.09487 -0.205552,-0.158117 -0.110682,-0.079059 -0.237175,-0.158117 -0.110682,-0.09487 -0.189741,-0.2846106 -0.03162,-0.079058 -0.06325,-0.2371755 -0.01581,-0.158117 -0.03162,-0.316234 -0.01581,-0.1739287 -0.03162,-0.316234 0,-0.158117 0,-0.2529872 0,-0.6640914 0.07906,-1.0277605 0.07906,-0.3636691 0.300422,-0.5375978 0.221364,-0.17392867 0.600845,-0.20555207 0.379481,-0.0316234 0.964514,-0.0316234 0.474351,0 0.948702,0.0316234 0.474351,0.0158117 0.948702,0.0158117 0.411104,0 0.853832,0.0474351 0.458539,0.0474351 0.806396,0.31623397 0.252987,0.1897404 0.490163,0.6640914 0.237175,0.474351 0.458539,1.0751956 0.237176,0.6008446 0.442728,1.264936 0.221364,0.6482797 0.442727,1.2016892 0.221364,0.5375978 0.426916,0.8854552 0.221364,0.3478574 0.442728,0.3478574 0.221364,0 0.252987,-0.2371755 0.04744,-0.2371755 0.04744,-0.4901627 0,-0.9803254 -0.07906,-1.8499689 -0.06325,-0.8696435 -0.06325,-1.8341572 0,-0.2846106 0.03162,-0.6482797 0.04744,-0.3636691 0.268799,-0.5692212 0.332046,-0.14230527 0.790585,-0.20555207 0.474351,-0.0632468 0.980326,-0.0632468 0.521786,0 1.011948,0.0790585 0.505975,0.0790585 0.885456,0.22136377 0.268798,0.2213638 0.37948,0.5375978 0.173929,0.4427276 0.268799,1.0119488 0.09487,0.5692212 0.142306,1.1700658 0.04744,0.5850329 0.06325,1.1700658 0.01581,0.5850329 0.01581,1.0593839 0,0.4269159 -0.01581,1.0277605 0,0.5850329 -0.03162,1.264936 -0.03162,0.6640914 -0.09487,1.3598062 -0.04744,0.6957147 -0.158117,1.3439947 -0.110682,0.632468 -0.284611,1.185877 -0.158117,0.537598 -0.395292,0.885456 -0.03162,0.03162 -0.04744,0.04744 0,0.03162 -0.03162,0.06325 z m 7.453487,-8.7596822 q -0.332045,0 -0.537597,0.158117 -0.189741,0.158117 -0.300423,0.5059744 -0.09487,0.3320457 -0.126493,0.8538318 -0.03162,0.5217861 -0.03162,1.2333126 0,1.4388647 0.189741,2.1820146 0.205552,0.7273378 0.853831,0.7273378 0.426916,0 0.838021,-0.2213634 0.426915,-0.2371755 0.758961,-0.6640914 0.332046,-0.4269159 0.521786,-1.0119488 0.205552,-0.5850329 0.205552,-1.2965594 0,-1.2175009 -0.648279,-1.8341572 -0.64828,-0.632468 -1.723476,-0.632468 z M 25.514986,4.1577358 Q 25.214564,4.1735475 25.040635,3.936372 24.866706,3.6991965 24.771836,3.3671508 24.692778,3.0351051 24.661154,2.6872477 q -0.01581,-0.3636691 -0.01581,-0.5850329 0,-0.3320457 0.04744,-0.5850329 0.04744,-0.2529872 0.205552,-0.4111042 0.158117,-0.17392867 0.426916,-0.25298717 0.28461,-0.0948702 0.727338,-0.0948702 0.632468,0 1.249124,0.0158117 0.632468,0.0158117 1.264936,0.0948702 0.996137,0.1106819 1.992274,0.18974037 0.996137,0.079058 1.976463,0.3004223 1.249124,0.2687989 2.118768,0.8538318 0.869643,0.5692212 1.407241,1.3598062 0.537598,0.790585 0.774773,1.739287 0.237176,0.948702 0.237176,1.9764625 0,1.2807477 -0.411105,2.2926965 -0.411104,0.9961371 -1.106819,1.7709101 -0.695714,0.758962 -1.612793,1.29656 -0.917079,0.537597 -1.929027,0.869643 -0.996137,0.332046 -2.03971,0.490163 -1.043572,0.158117 -1.976462,0.158117 -0.917079,0 -1.502112,-0.458539 -0.569221,-0.442728 -0.711526,-1.20169 -0.09487,-0.521786 -0.158117,-1.201689 -0.04744,-0.695715 -0.07906,-1.4388645 -0.03162,-0.7431499 -0.04744,-1.4704881 -0.01581,-0.7273382 -0.01581,-1.3123711 0,-0.4269159 0,-0.7747733 0.01581,-0.3636691 0.01581,-0.6957148 0,-0.3320457 0,-0.6799031 0.01581,-0.3478574 0.01581,-0.7747733 z"
     id="text1"
     style="font-size:15.8117px;font-family:'Super Comic';-inkscape-font-specification:'Super Comic';text-align:justify;letter-spacing:0.0694178px;display:inline;fill:#1e1e1e;stroke:#e7e7e7;stroke-width:1.2238;stroke-linecap:round;stroke-linejoin:round"
     transform="scale(0.94626752,1.0567836)"
     aria-label="end"
     inkscape:label="end-text" />
</svg>
