<?xml version="1.0" encoding="UTF-8" standalone="no"?>
<svg
   width="36.034801"
   height="18.114027"
   fill="none"
   viewBox="0 0 36.034801 18.114026"
   version="1.1"
   id="svg1"
   sodipodi:docname="fim-pointer.svg"
   inkscape:version="1.4 (e7c3feb100, 2024-10-09)"
   xmlns:inkscape="http://www.inkscape.org/namespaces/inkscape"
   xmlns:sodipodi="http://sodipodi.sourceforge.net/DTD/sodipodi-0.dtd"
   xmlns="http://www.w3.org/2000/svg"
   xmlns:svg="http://www.w3.org/2000/svg">
  <defs
     id="defs1" />
  <sodipodi:namedview
     id="namedview1"
     pagecolor="#505050"
     bordercolor="#eeeeee"
     borderopacity="1"
     inkscape:showpageshadow="0"
     inkscape:pageopacity="0"
     inkscape:pagecheckerboard="0"
     inkscape:deskcolor="#505050"
     inkscape:zoom="14.460334"
     inkscape:cx="19.086696"
     inkscape:cy="11.168483"
     inkscape:window-width="1426"
     inkscape:window-height="942"
     inkscape:window-x="94"
     inkscape:window-y="76"
     inkscape:window-maximized="0"
     inkscape:current-layer="svg1" />
  <path
     d="m 12.948954,3.0346414 q 0.03526,-0.282104 0.22921,-0.493682 0.211578,-0.211578 0.511314,-0.35263 0.299735,-0.141052 0.669997,-0.211578 0.370261,-0.070526 0.740523,-0.070526 0.652365,0 1.18131,0.211578 0.546577,0.211578 0.669997,0.6523655 0.22921,0.7934175 0.458419,1.8160445 0.246841,1.0049956 0.458419,2.1334116 0.22921,1.128416 0.423156,2.3097265 0.211578,1.1636795 0.370262,2.2744635 0.158683,1.093153 0.264472,2.062886 0.105789,0.969732 0.123421,1.674992 0.01763,0.405525 -0.264473,0.722892 -0.282104,0.317367 -0.740523,0.528945 -0.458419,0.229209 -1.040258,0.334998 -0.58184,0.123421 -1.163679,0.123421 -0.846312,0 -1.533941,-0.264473 -0.687628,-0.264472 -0.863944,-0.82868 -0.158683,-0.528945 -0.282104,-1.445783 -0.12342,-0.93447 -0.211578,-2.080517 -0.08816,-1.163679 -0.141052,-2.450779 -0.05289,-1.2870995 -0.05289,-2.5213045 0,-1.234205 0.03526,-2.3097265 0.05289,-1.0755216 0.158683,-1.8160446 z m -5.5362906,-1.05789 q 0.458419,0 0.987364,0.035263 0.5465765,0.035263 1.0755215,0.1234205 0.5465761,0.070526 1.0578901,0.211578 0.528945,0.141052 0.934469,0.3702615 0.405525,0.2292095 0.546577,0.6523655 0.158683,0.4055245 0.158683,0.8639435 0,0.4407875 -0.141052,0.9697326 -0.12342,0.528945 -0.387893,0.987364 -0.264472,0.4407875 -0.669997,0.740523 -0.387893,0.2997355 -0.916838,0.2997355 -0.4584186,0 -0.8992061,-0.1234205 Q 8.7173944,6.966466 8.2766069,6.8077825 7.8534509,6.649099 7.3950319,6.5256785 6.9542444,6.3846265 6.4958254,6.3846265 q -0.423156,0 -0.5818395,0.176315 -0.1586835,0.1586835 -0.1586835,0.6171025 0,0.423156 0.1586835,0.564208 0.176315,0.141052 0.5818395,0.141052 0.2997355,0 0.564208,-0.052894 0.282104,-0.070526 0.5818395,-0.1586835 L 8.1884494,7.495411 q 0.2997355,-0.088157 0.564208,-0.141052 0.282104,-0.070526 0.5818395,-0.070526 0.35263,0 0.5818396,0.141052 0.2468405,0.141052 0.3878925,0.387893 0.158684,0.2292095 0.22921,0.528945 0.07053,0.2997355 0.07053,0.599471 0,0.282104 -0.105789,0.7581545 -0.105789,0.4584195 -0.317367,0.8992065 -0.1939465,0.423156 -0.4936821,0.740523 -0.282104,0.317367 -0.6523655,0.317367 -0.2997355,0 -0.634734,-0.12342 -0.317367,-0.141052 -0.6523655,-0.299736 -0.317367,-0.176315 -0.634734,-0.299735 -0.317367,-0.141052 -0.5818395,-0.141052 -0.35263,0 -0.493682,0.299735 -0.141052,0.282104 -0.141052,0.58184 0,0.405524 0.176315,0.846312 0.176315,0.423156 0.387893,0.863943 0.211578,0.440788 0.387893,0.863944 0.176315,0.423156 0.176315,0.82868 0,0.423156 -0.282104,0.722892 -0.282104,0.299735 -0.6876285,0.47605 -0.4055245,0.193947 -0.8639435,0.282104 -0.4407875,0.08816 -0.775786,0.08816 -0.6171025,0 -1.269468,-0.193947 Q 2.5111063,16.258267 2.1055818,15.746953 1.9116353,15.500112 1.8058463,14.971167 1.7000573,14.424591 1.6471628,13.82512 q -0.035263,-0.617103 -0.052895,-1.181311 0,-0.564208 0,-0.881575 0,-1.392888 0.070526,-2.7681455 0.070526,-1.375257 0.070526,-2.7681455 0,-0.2997355 0.052895,-0.8639435 0.070526,-0.564208 0.1939465,-1.1460476 0.141052,-0.5818395 0.35263,-1.05789 0.2292095,-0.493682 0.5465766,-0.6171025 0.35263,-0.1586835 0.952101,-0.2644725 0.6171025,-0.105789 1.269468,-0.1586835 0.669997,-0.070526 1.2870995,-0.105789 0.634734,-0.035263 1.022627,-0.035263 z m 18.3328876,0.282104 q 0.881575,0 1.428152,0.2997355 0.564208,0.2997355 0.899206,0.7581545 0.35263,0.458419 0.511314,0.987364 0.176315,0.5113136 0.282104,0.9697326 0.105789,0.458419 0.193946,0.7581545 0.105789,0.2997355 0.317367,0.2997355 0.211578,0 0.35263,-0.2997355 0.141052,-0.2997355 0.299736,-0.740523 0.176315,-0.4407875 0.387893,-0.9697326 0.229209,-0.528945 0.581839,-0.9697325 0.35263,-0.4407875 0.863944,-0.740523 0.528945,-0.2997355 1.2871,-0.2997355 0.916838,0 1.604466,0.5818395 0.70526,0.564208 1.198942,1.481046 0.493682,0.8992066 0.811049,2.0452541 0.334999,1.1460475 0.528945,2.292095 0.193947,1.128416 0.264473,2.1510435 0.08816,1.022627 0.08816,1.692624 0,1.163679 -0.105789,1.851307 -0.08816,0.669997 -0.440787,1.022627 -0.334999,0.334999 -1.022627,0.423156 -0.687629,0.105789 -1.886571,0.105789 -0.687628,0 -1.075521,-0.47605 -0.387894,-0.493682 -0.58184,-1.198942 -0.176315,-0.722892 -0.22921,-1.569204 -0.05289,-0.846312 -0.08816,-1.551572 -0.03526,-0.722891 -0.123421,-1.198942 -0.07053,-0.493682 -0.299735,-0.493682 -0.22921,0 -0.423156,0.2997355 -0.176315,0.2997355 -0.35263,0.7405235 -0.158684,0.440787 -0.35263,0.969732 -0.176315,0.511314 -0.423156,0.952101 -0.246841,0.440788 -0.564208,0.740523 -0.317367,0.299736 -0.775786,0.299736 -0.58184,0 -0.969733,-0.317367 -0.370261,-0.334999 -0.634734,-0.828681 -0.246841,-0.493682 -0.405524,-1.05789 -0.141052,-0.564208 -0.264473,-1.05789 -0.12342,-0.493682 -0.246841,-0.811049 -0.12342,-0.3349985 -0.317367,-0.3349985 -0.193946,0 -0.317367,0.387893 -0.105789,0.387893 -0.193946,0.9873645 -0.07053,0.599471 -0.123421,1.339994 -0.05289,0.740523 -0.141052,1.445783 -0.07053,0.70526 -0.176315,1.287099 -0.105789,0.58184 -0.282104,0.881575 -0.158683,0.246841 -0.370261,0.405525 -0.211578,0.158683 -0.458419,0.246841 -0.246841,0.08816 -0.528945,0.12342 -0.282104,0.03526 -0.546577,0.03526 -0.387893,0 -0.916838,-0.08816 -0.511313,-0.08816 -0.987364,-0.299736 -0.47605,-0.193946 -0.811049,-0.528945 -0.334998,-0.334998 -0.334998,-0.82868 0,-0.458419 0.08816,-0.952101 0.08816,-0.511314 0.158684,-0.969733 0.12342,-0.793417 0.264472,-1.674992 0.141052,-0.899207 0.317367,-1.816045 0.193947,-0.9344695 0.458419,-1.833676 0.282104,-0.916838 0.652366,-1.727887 0.387893,-0.8286806 0.899206,-1.5163091 0.511314,-0.6876285 1.198942,-1.163679 0.405525,-0.2997355 0.863944,-0.423156 0.458419,-0.1234205 0.969732,-0.1234205 z"
     id="text2"
     style="font-size:17.6315px;font-family:'Super Bubble';-inkscape-font-specification:'Super Bubble';text-align:justify;letter-spacing:0.0774069px;fill:#1e1e1e;stroke:#1f1f1f;stroke-width:0.821686;stroke-linecap:round;stroke-linejoin:round"
     transform="scale(0.94626752,1.0567836)"
     aria-label="fim"
     inkscape:label="fim-shadow" />
  <path
     d="m 5.5830586,14.426908 q -0.4111042,0.18974 -0.948702,0.300422 -0.5217861,0.126494 -1.0910073,0.142306 -0.5534095,0.03162 -1.1226307,-0.03162 -0.5692212,-0.04744 -1.0593839,-0.18974 -0.09487,-0.09487 -0.1897404,-0.411104 -0.079058,-0.300423 -0.158117,-0.853832 -0.0790585,-0.55341 -0.1264936,-1.39143 -0.0474351,-0.853832 -0.0474351,-2.039709 0,-0.4427276 -0.0474351,-1.1858775 Q 0.7446784,8.0073579 0.6972433,7.1219027 0.6656199,6.2206358 0.6498082,5.2877455 0.6339965,4.3548552 0.6972433,3.5800819 0.7763018,2.7894969 0.9502305,2.2360874 1.1241592,1.6826779 1.4562049,1.5561843 1.6933804,1.4613141 2.0886729,1.3980674 2.4997771,1.3348206 3.0057515,1.2873855 3.5117259,1.2399504 4.0651354,1.2241387 4.6185449,1.208327 5.1245193,1.1925153 q 0.5217861,-0.015812 0.948702,-0.015812 0.4427276,0 0.7115265,0 0.679903,0 1.5653582,0.079059 0.9012669,0.063247 1.707664,0.2529871 0.18974,0.3794808 0.316234,0.9328903 0.126493,0.5534095 0.158117,1.1542541 0.04744,0.6008446 -0.01581,1.1700658 -0.04744,0.5534095 -0.205552,0.948702 -0.158117,0.1264936 -0.3478576,0.158117 -0.1897404,0.015812 -0.3952925,0.015812 -0.474351,0 -0.9645137,-0.1106819 Q 8.1287422,5.6514146 7.6543912,5.5091093 7.1800402,5.366804 6.6898776,5.2561221 6.2155266,5.1296285 5.7253639,5.1296285 q -0.5375978,0 -0.7431499,0.1264936 -0.1897404,0.1106819 -0.1897404,0.5850329 0,0.4585393 0.1739287,0.7589616 0.1739287,0.2846106 0.7589616,0.2846106 0.6166563,0 1.2965593,-0.1264936 Q 7.7018263,6.63174 8.3026709,6.6791751 8.5398464,6.8214804 8.6505283,7.2800197 8.7770219,7.738559 8.7928336,8.2919685 8.8086453,8.845378 8.6979634,9.3987875 8.6030932,9.952197 8.3975411,10.268431 8.1129305,10.300054 7.7808848,10.236808 7.4488391,10.173561 7.1009817,10.094502 6.7689361,10.015444 6.405267,9.9363853 6.0574096,9.8573268 5.7253639,9.8573268 q -0.3636691,0 -0.5059744,0.047435 -0.1423053,0.047435 -0.1423053,0.4111041 0,0.426916 0.09487,0.853832 0.1106819,0.426916 0.2055521,0.917078 0.1106819,0.490163 0.1739287,1.059384 0.079058,0.569222 0.031623,1.280748 z M 12.119464,4.8292062 q 0.221364,-0.09487 0.585033,-0.158117 0.363669,-0.063247 0.806396,-0.09487 0.442728,-0.031623 0.901267,-0.047435 0.474351,-0.015812 0.901267,0.015812 0.442728,0.015812 0.774773,0.079059 0.347858,0.047435 0.537598,0.1264936 0.06325,0.079058 0.07906,0.1739287 0.205552,0.8380201 0.347857,1.9132157 0.158117,1.0593839 0.252987,2.1978263 0.110682,1.1384426 0.173929,2.2768846 0.07906,1.122631 0.110682,2.087145 0,0.268798 -0.126494,0.458539 -0.395292,0.205552 -1.043572,0.332046 -0.632468,0.126493 -1.359806,0.158117 -0.711527,0.03162 -1.438865,-0.03162 -0.727338,-0.04744 -1.312371,-0.205552 -0.126493,-0.158117 -0.173928,-0.300422 -0.126494,-0.600845 -0.189741,-2.055521 -0.06325,-1.454677 -0.06325,-3.5892561 0,-1.0751956 0.03162,-1.8025338 0.04744,-0.7273382 0.158117,-1.3756179 0,-0.09487 0.04744,-0.158117 z M 12.08784,3.8330691 q -0.221363,-0.6008446 -0.300422,-1.4072413 -0.07906,-0.8063967 0.04744,-1.50211145 0.426916,-0.14230529 1.075196,-0.22136379 0.664091,-0.0948702 1.375618,-0.1106819 0.711526,-0.0316234 1.359806,0.0158117 0.664091,0.0474351 1.091007,0.2055521 0.04744,0.34785744 0.04744,0.75896154 0,0.4111042 -0.03162,0.8222084 -0.03162,0.4111042 -0.110682,0.8063967 -0.06325,0.3952925 -0.142305,0.7115265 -0.45854,0.09487 -1.043573,0.1423053 Q 14.8707,4.0860563 14.269855,4.0860563 13.66901,4.0702446 13.099789,4.0069978 12.530568,3.943751 12.08784,3.8330691 Z m 8.829086,-2.4982485 q 0.316234,0 0.695715,0 0.395293,-0.015812 0.774773,0 0.395293,0.015812 0.758962,0.079058 0.379481,0.047435 0.664091,0.1739286 0.347858,0.1423053 0.664092,0.5059744 0.316234,0.3478574 0.585033,0.790585 0.28461,0.4269159 0.521786,0.8696435 0.237175,0.4427276 0.395292,0.7747733 0.09487,0.1897404 0.205552,0.4585393 0.110682,0.2529872 0.237176,0.4111042 0.18974,0.2371755 0.474351,0.2371755 0.237175,0 0.379481,-0.1739287 0.173928,-0.2055521 0.300422,-0.4585393 0.142305,-0.2687989 0.268799,-0.4901627 0.221364,-0.3636691 0.505974,-0.8063967 0.284611,-0.4427276 0.616657,-0.8538318 0.332045,-0.4269159 0.711526,-0.7589616 0.395293,-0.3478574 0.790585,-0.4901627 0.221364,-0.079058 0.600845,-0.1106819 0.379481,-0.031623 0.616656,-0.031623 0.173929,0 0.411104,0.015812 0.252987,0.015812 0.505975,0.063247 0.268799,0.047435 0.490162,0.1106819 0.237176,0.063247 0.379481,0.158117 0.268799,0.1897404 0.442728,0.8222084 0.173928,0.632468 0.268799,1.5021115 0.110681,0.8696435 0.158117,1.8815923 0.06325,0.9961371 0.07906,1.9290274 0.03162,0.9328903 0.03162,1.6918519 0,0.758962 0,1.138442 0,0.268799 -0.01581,0.74315 0,0.474351 -0.03162,0.980326 -0.01581,0.505974 -0.06325,0.964513 -0.04744,0.45854 -0.126494,0.679903 -0.55341,0.173929 -1.170066,0.237176 -0.616656,0.07906 -1.185877,0.07906 -0.474351,0 -1.011949,-0.06325 -0.521786,-0.06325 -0.964514,-0.268799 -0.158117,-0.252987 -0.18974,-0.632468 -0.01581,-0.379481 -0.01581,-0.664092 v -1.517923 q 0,-0.711526 0.06325,-1.3914294 0.07906,-0.6799031 0.07906,-1.3756179 0,-0.047435 0,-0.1739287 0,-0.1264936 -0.01581,-0.2529872 0,-0.1264936 -0.04744,-0.2213638 -0.04744,-0.09487 -0.142306,-0.09487 -0.173928,0 -0.490162,0.4427276 -0.300423,0.4269159 -0.632468,0.9961371 -0.316234,0.5534095 -0.600845,1.0751955 -0.284611,0.521786 -0.426916,0.711527 -0.173929,0.09487 -0.363669,0.126493 -0.18974,0.03162 -0.379481,0.03162 -0.237175,0 -0.474351,-0.04744 -0.237175,-0.04744 -0.442727,-0.173928 -0.07906,-0.110682 -0.221364,-0.379481 Q 25.439073,10.315866 25.249332,9.9680087 25.075403,9.6201513 24.869851,9.2564822 24.680111,8.8770014 24.490371,8.5765791 24.30063,8.2603451 24.142513,8.0706047 24.000208,7.8650526 23.905338,7.8650526 q -0.110682,0 -0.158117,0.079058 -0.04744,0.079058 -0.06325,0.1897404 -0.01581,0.1106819 -0.01581,0.2213638 0,0.1106819 0,0.1897404 0,0.9961371 0.06325,1.9922743 0.06325,0.996137 0.06325,2.008086 0,0.332045 -0.01581,0.774773 -0.01581,0.442728 -0.110682,0.758962 -0.442727,0.126493 -0.901267,0.142305 -0.442727,0.03162 -0.901267,0.03162 -0.316234,0 -0.711526,-0.01581 -0.379481,-0.01581 -0.774773,-0.06325 -0.379481,-0.04744 -0.758962,-0.126494 -0.379481,-0.06325 -0.664091,-0.173928 -0.04744,-0.142306 -0.04744,-0.284611 0,-0.727338 0.06325,-1.470488 0.06325,-0.758962 0.158117,-1.4863 Q 19.319945,9.0983652 19.36738,7.5646303 19.430627,6.0150837 19.604555,4.4655371 19.46225,4.259985 19.288321,4.2441733 19.114393,4.2283616 18.956276,4.1651148 18.81397,4.101868 18.703288,3.8646925 18.608418,3.627517 18.608418,2.9634256 q 0,-0.6166563 0.158117,-0.948702 0.173929,-0.3320457 0.474351,-0.474351 0.300423,-0.1581169 0.727338,-0.1739286 0.426916,-0.031623 0.948702,-0.031623 z"
     id="text1"
     style="font-size:15.8117px;font-family:'Super Comic';-inkscape-font-specification:'Super Comic';text-align:justify;letter-spacing:0.0694178px;fill:#1e1e1e;stroke:#e7e7e7;stroke-width:1.2238;stroke-linecap:round;stroke-linejoin:round"
     transform="scale(0.94626752,1.0567836)"
     aria-label="FIM"
     inkscape:label="fim-text" />
</svg>
