<?xml version="1.0" encoding="UTF-8" standalone="no"?>
<svg
   width="31.146355"
   height="18.114027"
   fill="none"
   viewBox="0 0 31.146354 18.114026"
   version="1.1"
   id="svg1"
   sodipodi:docname="fin-pointer.svg"
   inkscape:version="1.4 (e7c3feb100, 2024-10-09)"
   xmlns:inkscape="http://www.inkscape.org/namespaces/inkscape"
   xmlns:sodipodi="http://sodipodi.sourceforge.net/DTD/sodipodi-0.dtd"
   xmlns="http://www.w3.org/2000/svg"
   xmlns:svg="http://www.w3.org/2000/svg">
  <defs
     id="defs1" />
  <sodipodi:namedview
     id="namedview1"
     pagecolor="#505050"
     bordercolor="#eeeeee"
     borderopacity="1"
     inkscape:showpageshadow="0"
     inkscape:pageopacity="0"
     inkscape:pagecheckerboard="0"
     inkscape:deskcolor="#505050"
     inkscape:zoom="14.460334"
     inkscape:cx="18.602613"
     inkscape:cy="10.338627"
     inkscape:window-width="1426"
     inkscape:window-height="942"
     inkscape:window-x="94"
     inkscape:window-y="76"
     inkscape:window-maximized="0"
     inkscape:current-layer="svg1" />
  <path
     d="m 12.948954,3.0346414 q 0.03526,-0.282104 0.22921,-0.493682 0.211578,-0.211578 0.511314,-0.35263 0.299735,-0.141052 0.669997,-0.211578 0.370261,-0.070526 0.740523,-0.070526 0.652365,0 1.18131,0.211578 0.546577,0.211578 0.669997,0.6523655 0.22921,0.7934175 0.458419,1.8160445 0.246841,1.0049956 0.458419,2.1334116 0.22921,1.128416 0.423156,2.3097265 0.211578,1.1636795 0.370262,2.2744635 0.158683,1.093153 0.264472,2.062886 0.105789,0.969732 0.123421,1.674992 0.01763,0.405525 -0.264473,0.722892 -0.282104,0.317367 -0.740523,0.528945 -0.458419,0.229209 -1.040258,0.334998 -0.58184,0.123421 -1.163679,0.123421 -0.846312,0 -1.533941,-0.264473 -0.687628,-0.264472 -0.863944,-0.82868 -0.158683,-0.528945 -0.282104,-1.445783 -0.12342,-0.93447 -0.211578,-2.080517 -0.08816,-1.163679 -0.141052,-2.450779 -0.05289,-1.2870995 -0.05289,-2.5213045 0,-1.234205 0.03526,-2.3097265 0.05289,-1.0755216 0.158683,-1.8160446 z m -5.5362906,-1.05789 q 0.458419,0 0.987364,0.035263 0.5465765,0.035263 1.0755215,0.1234205 0.5465761,0.070526 1.0578901,0.211578 0.528945,0.141052 0.934469,0.3702615 0.405525,0.2292095 0.546577,0.6523655 0.158683,0.4055245 0.158683,0.8639435 0,0.4407875 -0.141052,0.9697326 -0.12342,0.528945 -0.387893,0.987364 -0.264472,0.4407875 -0.669997,0.740523 -0.387893,0.2997355 -0.916838,0.2997355 -0.4584186,0 -0.8992061,-0.1234205 Q 8.7173944,6.966466 8.2766069,6.8077825 7.8534509,6.649099 7.3950319,6.5256785 6.9542444,6.3846265 6.4958254,6.3846265 q -0.423156,0 -0.5818395,0.176315 -0.1586835,0.1586835 -0.1586835,0.6171025 0,0.423156 0.1586835,0.564208 0.176315,0.141052 0.5818395,0.141052 0.2997355,0 0.564208,-0.052894 0.282104,-0.070526 0.5818395,-0.1586835 L 8.1884494,7.495411 q 0.2997355,-0.088157 0.564208,-0.141052 0.282104,-0.070526 0.5818395,-0.070526 0.35263,0 0.5818396,0.141052 0.2468405,0.141052 0.3878925,0.387893 0.158684,0.2292095 0.22921,0.528945 0.07053,0.2997355 0.07053,0.599471 0,0.282104 -0.105789,0.7581545 -0.105789,0.4584195 -0.317367,0.8992065 -0.1939465,0.423156 -0.4936821,0.740523 -0.282104,0.317367 -0.6523655,0.317367 -0.2997355,0 -0.634734,-0.12342 -0.317367,-0.141052 -0.6523655,-0.299736 -0.317367,-0.176315 -0.634734,-0.299735 -0.317367,-0.141052 -0.5818395,-0.141052 -0.35263,0 -0.493682,0.299735 -0.141052,0.282104 -0.141052,0.58184 0,0.405524 0.176315,0.846312 0.176315,0.423156 0.387893,0.863943 0.211578,0.440788 0.387893,0.863944 0.176315,0.423156 0.176315,0.82868 0,0.423156 -0.282104,0.722892 -0.282104,0.299735 -0.6876285,0.47605 -0.4055245,0.193947 -0.8639435,0.282104 -0.4407875,0.08816 -0.775786,0.08816 -0.6171025,0 -1.269468,-0.193947 Q 2.5111063,16.258267 2.1055818,15.746953 1.9116353,15.500112 1.8058463,14.971167 1.7000573,14.424591 1.6471628,13.82512 q -0.035263,-0.617103 -0.052895,-1.181311 0,-0.564208 0,-0.881575 0,-1.392888 0.070526,-2.7681455 0.070526,-1.375257 0.070526,-2.7681455 0,-0.2997355 0.052895,-0.8639435 0.070526,-0.564208 0.1939465,-1.1460476 0.141052,-0.5818395 0.35263,-1.05789 0.2292095,-0.493682 0.5465766,-0.6171025 0.35263,-0.1586835 0.952101,-0.2644725 0.6171025,-0.105789 1.269468,-0.1586835 0.669997,-0.070526 1.2870995,-0.105789 0.634734,-0.035263 1.022627,-0.035263 z M 19.997682,12.555652 q 0,-1.110785 0.07053,-2.309727 0.08816,-1.198942 0.246841,-2.3449895 0.176315,-1.163679 0.458419,-2.2039375 0.282104,-1.0578901 0.70526,-1.8689391 0.246841,-0.4760505 0.511314,-0.7581545 0.264472,-0.2997355 0.546576,-0.458419 0.282104,-0.176315 0.564208,-0.2292095 0.282104,-0.070526 0.564208,-0.070526 0.370262,0 0.811049,0.088157 0.458419,0.070526 0.740523,0.317367 0.246841,0.2292095 0.476051,0.7934175 0.229209,0.564208 0.440787,1.2870996 0.211578,0.7228915 0.405525,1.4986775 0.193946,0.7581545 0.370261,1.41052 0.176315,0.634734 0.334999,1.05789 0.176315,0.4055245 0.317367,0.4055245 0.141052,0 0.211578,-0.105789 0.07053,-0.105789 0.105789,-0.246841 0.03526,-0.1586835 0.03526,-0.2997355 0,-0.1586835 0,-0.246841 0,-1.05789 -0.176315,-2.0981485 -0.176315,-1.0402585 -0.176315,-2.0981486 0,-0.317367 0.05289,-0.7228915 0.05289,-0.4055245 0.299736,-0.634734 0.334998,-0.2997355 0.881575,-0.4055245 0.546576,-0.1234205 0.969732,-0.1234205 0.317367,0 0.669997,0.052894 0.35263,0.052894 0.669997,0.1939465 0.317367,0.1234205 0.546577,0.35263 0.246841,0.211578 0.35263,0.564208 0.299735,1.0755215 0.387893,2.2744636 0.08816,1.1813105 0.08816,2.292095 0,0.70526 -0.07053,1.7455185 -0.05289,1.0226275 -0.193946,2.0981485 -0.141052,1.075522 -0.387893,2.062886 -0.22921,0.987364 -0.58184,1.604466 -0.458419,0.775786 -1.428151,0.775786 -0.863944,0 -1.551572,-0.370261 -0.669997,-0.35263 -1.198942,-0.881575 -0.511314,-0.546577 -0.899207,-1.181311 -0.370261,-0.634734 -0.652365,-1.163679 -0.264473,-0.546576 -0.458419,-0.899206 -0.193947,-0.370262 -0.35263,-0.370262 -0.246841,0 -0.317367,0.193947 -0.05289,0.193946 -0.05289,0.370261 0,0.35263 0.05289,0.70526 0.07053,0.35263 0.141052,0.70526 0.08816,0.35263 0.141052,0.70526 0.07053,0.35263 0.07053,0.70526 0,0.299736 -0.07053,0.564208 -0.05289,0.264473 -0.282104,0.458419 -0.211578,0.193947 -0.528945,0.334999 -0.299736,0.141052 -0.652366,0.229209 -0.334998,0.105789 -0.687628,0.141052 -0.334999,0.05289 -0.617103,0.05289 -0.246841,0 -0.528945,-0.03526 -0.282104,-0.03526 -0.528945,-0.141052 -0.229209,-0.105789 -0.405524,-0.282104 -0.176315,-0.176315 -0.22921,-0.476051 -0.141052,-0.740523 -0.176315,-1.498677 -0.03526,-0.775786 -0.03526,-1.516309 z"
     id="text2"
     style="font-size:17.6315px;font-family:'Super Bubble';-inkscape-font-specification:'Super Bubble';text-align:justify;letter-spacing:0.0774069px;fill:#1e1e1e;stroke:#1f1f1f;stroke-width:0.821686;stroke-linecap:round;stroke-linejoin:round"
     transform="scale(0.94626752,1.0567836)"
     aria-label="fin"
     inkscape:label="fin-shadow" />
  <path
     d="m 5.5830586,14.426908 q -0.4111042,0.18974 -0.948702,0.300422 -0.5217861,0.126494 -1.0910073,0.142306 -0.5534095,0.03162 -1.1226307,-0.03162 -0.5692212,-0.04744 -1.0593839,-0.18974 -0.09487,-0.09487 -0.1897404,-0.411104 -0.079058,-0.300423 -0.158117,-0.853832 -0.0790585,-0.55341 -0.1264936,-1.39143 -0.0474351,-0.853832 -0.0474351,-2.039709 0,-0.4427276 -0.0474351,-1.1858775 Q 0.7446784,8.0073579 0.6972433,7.1219027 0.6656199,6.2206358 0.6498082,5.2877455 0.6339965,4.3548552 0.6972433,3.5800819 0.7763018,2.7894969 0.9502305,2.2360874 1.1241592,1.6826779 1.4562049,1.5561843 1.6933804,1.4613141 2.0886729,1.3980674 2.4997771,1.3348206 3.0057515,1.2873855 3.5117259,1.2399504 4.0651354,1.2241387 4.6185449,1.208327 5.1245193,1.1925153 q 0.5217861,-0.015812 0.948702,-0.015812 0.4427276,0 0.7115265,0 0.679903,0 1.5653582,0.079059 0.9012669,0.063247 1.707664,0.2529871 0.18974,0.3794808 0.316234,0.9328903 0.126493,0.5534095 0.158117,1.1542541 0.04744,0.6008446 -0.01581,1.1700658 -0.04744,0.5534095 -0.205552,0.948702 -0.158117,0.1264936 -0.3478576,0.158117 -0.1897404,0.015812 -0.3952925,0.015812 -0.474351,0 -0.9645137,-0.1106819 Q 8.1287422,5.6514146 7.6543912,5.5091093 7.1800402,5.366804 6.6898776,5.2561221 6.2155266,5.1296285 5.7253639,5.1296285 q -0.5375978,0 -0.7431499,0.1264936 -0.1897404,0.1106819 -0.1897404,0.5850329 0,0.4585393 0.1739287,0.7589616 0.1739287,0.2846106 0.7589616,0.2846106 0.6166563,0 1.2965593,-0.1264936 Q 7.7018263,6.63174 8.3026709,6.6791751 8.5398464,6.8214804 8.6505283,7.2800197 8.7770219,7.738559 8.7928336,8.2919685 8.8086453,8.845378 8.6979634,9.3987875 8.6030932,9.952197 8.3975411,10.268431 8.1129305,10.300054 7.7808848,10.236808 7.4488391,10.173561 7.1009817,10.094502 6.7689361,10.015444 6.405267,9.9363853 6.0574096,9.8573268 5.7253639,9.8573268 q -0.3636691,0 -0.5059744,0.047435 -0.1423053,0.047435 -0.1423053,0.4111041 0,0.426916 0.09487,0.853832 0.1106819,0.426916 0.2055521,0.917078 0.1106819,0.490163 0.1739287,1.059384 0.079058,0.569222 0.031623,1.280748 z M 12.119464,4.8292062 q 0.221364,-0.09487 0.585033,-0.158117 0.363669,-0.063247 0.806396,-0.09487 0.442728,-0.031623 0.901267,-0.047435 0.474351,-0.015812 0.901267,0.015812 0.442728,0.015812 0.774773,0.079059 0.347858,0.047435 0.537598,0.1264936 0.06325,0.079058 0.07906,0.1739287 0.205552,0.8380201 0.347857,1.9132157 0.158117,1.0593839 0.252987,2.1978263 0.110682,1.1384426 0.173929,2.2768846 0.07906,1.122631 0.110682,2.087145 0,0.268798 -0.126494,0.458539 -0.395292,0.205552 -1.043572,0.332046 -0.632468,0.126493 -1.359806,0.158117 -0.711527,0.03162 -1.438865,-0.03162 -0.727338,-0.04744 -1.312371,-0.205552 -0.126493,-0.158117 -0.173928,-0.300422 -0.126494,-0.600845 -0.189741,-2.055521 -0.06325,-1.454677 -0.06325,-3.5892561 0,-1.0751956 0.03162,-1.8025338 0.04744,-0.7273382 0.158117,-1.3756179 0,-0.09487 0.04744,-0.158117 z M 12.08784,3.8330691 q -0.221363,-0.6008446 -0.300422,-1.4072413 -0.07906,-0.8063967 0.04744,-1.50211145 0.426916,-0.14230529 1.075196,-0.22136379 0.664091,-0.0948702 1.375618,-0.1106819 0.711526,-0.0316234 1.359806,0.0158117 0.664091,0.0474351 1.091007,0.2055521 0.04744,0.34785744 0.04744,0.75896154 0,0.4111042 -0.03162,0.8222084 -0.03162,0.4111042 -0.110682,0.8063967 -0.06325,0.3952925 -0.142305,0.7115265 -0.45854,0.09487 -1.043573,0.1423053 Q 14.8707,4.0860563 14.269855,4.0860563 13.66901,4.0702446 13.099789,4.0069978 12.530568,3.943751 12.08784,3.8330691 Z m 18.300295,9.8506889 q -0.142306,0.158117 -0.521786,0.252987 -0.379481,0.09487 -0.853832,0.110682 -0.474351,0.03162 -0.980326,-0.01581 -0.505974,-0.03162 -0.901267,-0.158117 -0.758961,-0.537598 -1.328182,-1.280748 -0.55341,-0.74315 -0.996137,-1.407241 -0.426916,-0.679904 -0.758962,-1.138443 -0.332046,-0.4743508 -0.600845,-0.4743508 -0.252987,0 -0.316234,0.09487 -0.04744,0.079059 -0.04744,0.3794806 0,0.332046 0.04744,0.727338 0.06325,0.395293 0.126494,0.806397 0.07906,0.395293 0.126494,0.790585 0.06325,0.395293 0.06325,0.727338 0,0.221364 -0.03162,0.426916 -0.03162,0.205552 -0.173929,0.379481 -0.363669,0.221364 -0.917078,0.316234 -0.537598,0.110682 -1.122631,0.126494 -0.585033,0.03162 -1.122631,-0.01581 -0.537597,-0.03162 -0.901267,-0.110682 -0.142305,-0.18974 -0.173928,-0.363669 -0.07906,-0.316234 -0.142306,-0.727338 -0.06325,-0.426916 -0.110681,-0.853832 -0.03162,-0.442728 -0.06325,-0.853832 -0.01581,-0.426916 -0.01581,-0.758962 0,-1.3756174 0.04744,-2.6879885 0.06325,-1.3281828 0.332046,-2.5931188 0.03162,-0.1264936 0.03162,-0.1739287 0.01581,-0.063247 0.01581,-0.1106819 0,-0.1897404 -0.09487,-0.2687989 -0.07906,-0.09487 -0.205552,-0.158117 -0.110682,-0.079059 -0.237176,-0.158117 -0.110682,-0.09487 -0.18974,-0.2846106 -0.03162,-0.079059 -0.06325,-0.2371755 -0.01581,-0.158117 -0.03162,-0.316234 -0.01581,-0.1739287 -0.03162,-0.316234 0,-0.158117 0,-0.2529872 0,-0.6640914 0.07906,-1.0277605 0.07906,-0.3636691 0.300422,-0.5375978 0.221364,-0.1739286 0.600845,-0.205552 0.37948,-0.031623 0.964513,-0.031623 0.474351,0 0.948702,0.031623 0.474351,0.015812 0.948702,0.015812 0.411104,0 0.853832,0.047435 0.458539,0.047435 0.806397,0.3162339 0.252987,0.1897404 0.490162,0.6640914 0.237176,0.474351 0.45854,1.0751956 0.237175,0.6008446 0.442727,1.264936 0.221364,0.6482797 0.442728,1.2016892 0.221364,0.5375978 0.426916,0.8854552 0.221364,0.3478574 0.442727,0.3478574 0.221364,0 0.252988,-0.2371755 0.04744,-0.2371755 0.04744,-0.4901627 0,-0.9803254 -0.07906,-1.8499689 -0.06325,-0.8696435 -0.06325,-1.8341572 0,-0.2846106 0.03162,-0.6482797 0.04744,-0.3636691 0.268799,-0.5692212 0.332045,-0.1423052 0.790585,-0.205552 0.474351,-0.063247 0.980325,-0.063247 0.521786,0 1.011949,0.079058 0.505974,0.079058 0.885455,0.2213637 0.268799,0.2213638 0.379481,0.5375978 0.173929,0.4427276 0.268799,1.0119488 0.09487,0.5692212 0.142305,1.1700658 0.04744,0.5850329 0.06325,1.1700658 0.01581,0.5850329 0.01581,1.0593839 0,0.4269159 -0.01581,1.0277605 0,0.5850329 -0.03162,1.264936 -0.03162,0.6640914 -0.09487,1.3598061 -0.04744,0.695715 -0.158117,1.343995 -0.110682,0.632468 -0.28461,1.185877 -0.158117,0.537598 -0.395293,0.885455 -0.03162,0.03162 -0.04744,0.04744 0,0.03162 -0.03162,0.06325 z"
     id="text1"
     style="font-size:15.8117px;font-family:'Super Comic';-inkscape-font-specification:'Super Comic';text-align:justify;letter-spacing:0.0694178px;fill:#1e1e1e;stroke:#e7e7e7;stroke-width:1.2238;stroke-linecap:round;stroke-linejoin:round"
     transform="scale(0.94626752,1.0567836)"
     aria-label="FIn"
     inkscape:label="fin-text" />
</svg>
