<?xml version="1.0" encoding="UTF-8" standalone="no"?>
<svg
   width="27.625969"
   height="55.806896"
   fill="none"
   viewBox="0 0 27.625968 55.806894"
   version="1.1"
   id="svg1"
   sodipodi:docname="owari-pointer.svg"
   inkscape:version="1.4 (e7c3feb100, 2024-10-09)"
   xmlns:inkscape="http://www.inkscape.org/namespaces/inkscape"
   xmlns:sodipodi="http://sodipodi.sourceforge.net/DTD/sodipodi-0.dtd"
   xmlns="http://www.w3.org/2000/svg"
   xmlns:svg="http://www.w3.org/2000/svg">
  <defs
     id="defs1" />
  <sodipodi:namedview
     id="namedview1"
     pagecolor="#505050"
     bordercolor="#eeeeee"
     borderopacity="1"
     inkscape:showpageshadow="0"
     inkscape:pageopacity="0"
     inkscape:pagecheckerboard="0"
     inkscape:deskcolor="#505050"
     inkscape:zoom="7.230167"
     inkscape:cx="9.543348"
     inkscape:cy="28.007652"
     inkscape:window-width="1426"
     inkscape:window-height="942"
     inkscape:window-x="8"
     inkscape:window-y="82"
     inkscape:window-maximized="0"
     inkscape:current-layer="svg1" />
  <g
     id="text10"
     style="font-weight:900;font-size:21.8478px;line-height:0.9;font-family:'Noto Serif CJK JP';-inkscape-font-specification:'Noto Serif CJK JP Heavy';text-align:justify;letter-spacing:0.0959184px;display:inline;fill:#1e1e1e;stroke:#1f1f1f;stroke-width:3.34937;stroke-linecap:round;stroke-linejoin:round"
     transform="scale(1.1420032,0.87565428)"
     aria-label="終&#10;わ&#10;り"
     inkscape:label="owari-shadow">
    <path
       d="m 13.504583,14.190958 -0.131087,0.174783 c 1.201629,0.546195 2.665431,1.747824 3.320865,2.818366 2.752823,0.742825 3.189779,-4.478799 -3.189778,-2.993149 z m -1.682281,3.9763 -0.0437,0.240325 c 3.189779,1.09239 5.636733,2.949453 6.619884,4.107387 3.124235,1.048694 4.369559,-5.527494 -6.576188,-4.347712 z M 15.143167,5.8669466 H 17.50273 C 17.131317,6.915641 16.60697,7.9424876 15.951536,8.9256385 15.31795,8.3139002 14.771755,7.6147706 14.356647,6.8282498 14.61882,6.5223806 14.880994,6.1946636 15.143167,5.8669466 Z M 13.8323,1.9561906 c -0.742826,3.0586919 -2.250324,5.986297 -3.77967,7.7778165 l 0.218478,0.1966302 c 1.332716,-0.6772818 2.578041,-1.5511938 3.692278,-2.6872793 0.305869,1.0705422 0.677282,1.9881497 1.136086,2.818366 -1.463803,1.813367 -3.386409,3.386409 -5.6367324,4.522495 l 0.1529346,0.262173 C 12.23741,14.125415 14.42219,13.054873 16.21371,11.678461 c 1.114237,1.376412 2.534344,2.403258 4.238473,3.233475 0.371412,-1.310868 1.136085,-2.18478 2.250323,-2.446954 l 0.02185,-0.240326 c -1.747824,-0.415108 -3.4738,-1.026846 -4.959451,-1.922606 1.179782,-1.2016291 2.119237,-2.5343448 2.818366,-3.9762996 0.524348,-0.043696 0.742826,-0.109239 0.89576,-0.3495648 L 18.98838,3.7914057 17.459034,5.2552082 H 15.580123 C 15.90784,4.7745567 16.21371,4.2502095 16.497731,3.7040145 17.00023,3.7477101 17.3061,3.5729277 17.415339,3.3107541 Z M 1.6412275,5.714012 1.4664451,5.823251 c 0.655434,0.8957598 1.3982592,2.2721712 1.5730416,3.5174957 1.7915195,1.3108683 3.5174956,-1.0486943 1.5074981,-2.5780403 1.09239,-0.8520642 2.2503233,-1.9663019 3.2116265,-3.1023875 0.4806516,0 0.7865208,-0.1747824 0.873912,-0.4588038 L 4.8091584,1.912495 C 4.5469848,3.3981453 4.1755722,5.0804259 3.8478552,6.3257504 3.2798124,6.0635768 2.5588351,5.8450988 1.6412275,5.714012 Z m 1.0049988,8.957598 c -0.1310868,2.162932 -0.546195,4.478799 -1.1142378,6.095536 l 0.3058692,0.152934 c 1.3545635,-1.09239 2.4469535,-2.730975 3.2553221,-4.740972 v 6.488796 H 5.617527 c 1.4419547,0 2.3158667,-0.58989 2.3158667,-0.764673 v -7.100534 c 0.4806516,1.136085 0.873912,2.621735 0.8302164,3.976299 2.2066279,2.141084 5.0249939,-2.272171 -0.7209774,-4.325864 l -0.109239,0.04369 V 12.159113 L 8.6325233,11.896939 C 8.7199145,12.2902 8.7636101,12.68346 8.7636101,13.07672 10.970238,15.043022 13.723061,10.717158 7.9333937,9.5155291 l -0.1966302,0.109239 c 0.2840214,0.4588039 0.546195,1.0268469 0.7428252,1.6385849 L 5.4864402,11.416288 C 7.3653509,9.7121593 9.309805,7.7021618 10.467738,6.2820548 10.992086,6.3257504 11.254259,6.150968 11.34165,5.8887944 L 7.6275245,4.5997743 C 6.8846993,6.5442284 5.6612226,9.2752033 4.4814414,11.459983 l -2.9494529,0.109239 0.9176076,2.862062 c 0.2621736,-0.0437 0.5024994,-0.218478 0.6554339,-0.502499 l 1.9881498,-0.69913 v 2.009998 z"
       id="path7" />
    <path
       d="m 6.3821999,30.489416 c 0.218478,-0.174782 0.6772818,-0.458804 1.1579334,-0.742825 l -0.065543,0.830216 c -1.4856503,2.18478 -3.2990177,4.325864 -4.3695599,5.396407 -0.4806515,0.480651 -0.7209773,1.070542 -0.7209773,1.813367 0,0.961303 0.5898906,1.48565 1.1579333,1.463802 0.655434,-0.02185 1.0486944,-0.677281 1.5074982,-1.420107 l 0.3058692,-0.480651 c 0.2403258,0.39326 0.436956,0.786521 0.5898906,1.179781 0.2840213,0.720977 0.4151081,1.376411 0.5243471,2.009998 0.109239,0.677281 0.4151082,1.157933 1.3764114,1.157933 0.9394554,0 1.7478239,-1.223477 1.7478239,-2.796518 0,-0.677282 -0.109239,-1.114238 -0.218478,-2.162932 C 9.2442617,35.361475 9.0694793,33.242239 9.1568705,31.843979 l 0.021848,-0.19663 c 1.7259755,-1.551193 4.1073865,-2.556192 5.7241235,-2.556192 2.18478,0 3.539343,1.179781 3.539343,3.735973 0,2.031846 -0.764673,5.571189 -6.488796,7.952599 l 0.131087,0.327717 c 7.690425,-1.114237 9.656727,-4.500646 9.656727,-7.515643 0,-3.517495 -3.102388,-5.505645 -6.16108,-5.505645 -1.68228,0 -3.626734,0.524347 -5.8552096,1.725976 l 1.1797806,-1.201629 c 0.349565,-0.349565 0.524348,-0.611738 0.5025,-0.939455 0,-0.262174 -0.458804,-0.764673 -0.961303,-1.004999 l -0.284022,-0.109239 0.174783,-0.546195 c 0.240325,-0.633586 0.568042,-1.114238 0.568042,-1.529346 0,-0.917607 -1.6167365,-2.337714 -3.0805391,-2.337714 -0.6991296,0 -1.2671724,0.218478 -1.9444541,0.546195 v 0.327717 c 0.6554339,0.19663 1.1579333,0.415108 1.4638025,0.611738 0.3932604,0.240326 0.546195,0.415108 0.546195,0.873912 0,0.480651 -0.065543,1.594889 -0.1747824,2.862062 -1.3327158,0.568042 -2.9494529,1.157933 -3.5830391,1.157933 -0.546195,0 -0.8302164,-0.305869 -1.2453245,-0.764673 l -0.2403258,0.08739 c -0.043696,0.415108 -0.109239,0.873912 0,1.245325 0.3058692,1.004999 1.4856503,2.272171 2.6217359,2.272171 0.5243472,0 0.6772818,-0.546195 1.1142377,-0.873912 z m 0.873912,3.823365 -0.109239,2.752823 c -0.021848,0.458803 -0.2403258,0.546194 -0.5898906,0.262173 L 5.726766,36.737887 Z"
       id="path8" />
    <path
       d="m 5.9889396,41.872119 c 0.9176075,1.09239 1.3108679,2.18478 1.3108679,3.801517 0,1.573041 -0.9176076,4.937603 -0.9176076,6.925752 0,1.004999 0.109239,1.835215 0.4151082,2.556193 0.327717,0.742825 0.8083686,1.157933 1.6167372,1.157933 0.764673,0 1.3545635,-0.502499 1.3545635,-1.245324 0,-1.136086 -0.1747824,-1.944455 -0.1747824,-3.058692 0,-1.267173 0.2621736,-2.599888 0.9394556,-3.932604 0.742825,-1.507498 1.638585,-2.206628 2.359562,-2.206628 1.179781,0 1.900759,1.376411 1.900759,5.396407 0,3.451952 -0.764673,7.821512 -6.7509703,10.181074 L 8.1737195,61.81916 C 15.230559,60.901552 18.09262,56.968948 18.09262,51.769172 c 0,-5.156081 -1.900758,-7.187926 -4.325864,-7.187926 -1.48565,0 -2.752823,1.136086 -3.9544516,3.27717 -0.1747824,0.327717 -0.327717,0.305869 -0.327717,-0.06554 0,-0.240325 0.1529346,-0.873912 0.4151082,-1.573041 0.1966304,-0.502499 0.4151084,-0.983151 0.4151084,-1.638585 0,-0.873912 -1.1360857,-2.097389 -2.3814103,-2.57804 C 7.4090465,41.806575 6.5788301,41.675489 6.054483,41.719184 Z"
       id="path9" />
  </g>
  <g
     id="text1"
     style="font-weight:900;font-size:19.7075px;line-height:0.9;font-family:'Noto Serif CJK JP';-inkscape-font-specification:'Noto Serif CJK JP Heavy';text-align:justify;letter-spacing:0.0865216px;display:inline;fill:#1e1e1e;stroke:#e7e7e7;stroke-width:3.02125;stroke-linecap:round;stroke-linejoin:round"
     transform="scale(1.0854741,0.92125644)"
     aria-label="終&#10;わ&#10;り"
     inkscape:label="owari-white">
    <path
       d="m 12.873868,12.729387 -0.118245,0.15766 c 1.083913,0.492688 2.404315,1.5766 2.99554,2.542268 2.483145,0.670055 2.877295,-4.040038 -2.877295,-2.699928 z m -1.517477,3.586765 -0.03941,0.216783 c 2.877295,0.985375 5.084535,2.660513 5.971372,3.70501 2.818173,0.94596 3.9415,-4.985998 -5.931957,-3.921793 z m 2.99554,-11.0953223 h 2.12841 c -0.335028,0.94596 -0.808008,1.8722125 -1.399233,2.7590501 -0.571517,-0.5518101 -1.064205,-1.1824501 -1.438647,-1.8919201 0.23649,-0.275905 0.47298,-0.5715175 0.70947,-0.86713 z M 13.169481,1.6931871 C 12.499426,4.4522372 11.139608,7.0930422 9.760083,8.7090573 l 0.197075,0.1773675 c 1.202158,-0.6109325 2.325485,-1.3992326 3.330568,-2.4240226 0.275905,0.9656675 0.610932,1.7933826 1.02479,2.5422676 -1.320403,1.6357222 -3.054663,3.0546622 -5.0845355,4.0794522 l 0.1379525,0.23649 c 2.3649,-0.650347 4.33565,-1.616015 5.951665,-2.857587 1.005083,1.241572 2.28607,2.167825 3.823255,2.91671 0.335028,-1.18245 1.02479,-1.97075 2.029873,-2.20724 l 0.01971,-0.216783 c -1.5766,-0.374442 -3.133492,-0.926252 -4.473602,-1.7342597 1.064205,-1.0839125 1.911627,-2.2860701 2.542267,-3.5867651 0.47298,-0.039415 0.670055,-0.098537 0.808008,-0.31532 L 17.820451,3.3486171 16.440926,4.6690197 h -1.694845 c 0.295612,-0.433565 0.571517,-0.906545 0.827715,-1.3992326 0.453272,0.039415 0.729177,-0.118245 0.827715,-0.354735 z m -10.9967857,3.3896901 -0.15766,0.098537 c 0.591225,0.8080075 1.2612801,2.04958 1.4189401,3.1729076 1.616015,1.18245 3.1729075,-0.9459601 1.3598175,-2.3254851 0.985375,-0.7685925 2.0298725,-1.773675 2.8970026,-2.7984651 0.433565,0 0.70947,-0.15766 0.7883,-0.4138575 L 5.0302829,1.6537721 c -0.23649,1.34011 -0.5715175,2.8575876 -0.86713,3.9809151 -0.512395,-0.23649 -1.1627426,-0.433565 -1.9904576,-0.55181 z m 0.906545,8.0800748 c -0.118245,1.951043 -0.4926875,4.040038 -1.0050825,5.498393 l 0.275905,0.137953 C 3.5719279,17.813922 4.5573029,16.33586 5.2864804,14.52277 v 5.853128 h 0.47298 c 1.300695,0 2.0889951,-0.532103 2.0889951,-0.689763 v -6.404938 c 0.433565,1.02479 0.7883,2.3649 0.748885,3.586765 1.9904575,1.931336 4.5327255,-2.04958 -0.6503475,-3.902085 l -0.098537,0.03941 V 10.89659 l 0.63064,-0.23649 c 0.07883,0.354735 0.118245,0.70947 0.118245,1.064205 1.990457,1.773675 4.473602,-2.1284102 -0.7488855,-3.2123227 L 7.671088,8.6105198 C 7.9272855,9.0243773 8.1637755,9.5367723 8.341143,10.088582 L 5.6412154,10.226535 C 7.3360604,8.6893498 9.090028,6.8762597 10.134526,5.5952722 c 0.47298,0.039415 0.70947,-0.118245 0.7883,-0.354735 L 7.5725505,4.0777947 C 6.9024954,5.8317622 5.7988754,8.2951998 4.7346704,10.26595 l -2.6605126,0.09854 0.827715,2.581683 c 0.23649,-0.03941 0.4532726,-0.197075 0.5912251,-0.453273 l 1.7933825,-0.63064 v 1.81309 z"
       id="path4" />
    <path
       d="m 6.4492229,27.431182 c 0.197075,-0.15766 0.6109325,-0.413857 1.0444975,-0.670055 l -0.059122,0.748885 c -1.34011,1.97075 -2.9758325,3.902085 -3.9415,4.867753 -0.4335651,0.433565 -0.6503476,0.965667 -0.6503476,1.635722 0,0.86713 0.5321026,1.34011 1.0444976,1.320403 0.591225,-0.01971 0.94596,-0.610933 1.3598175,-1.280988 l 0.275905,-0.433565 c 0.2167825,0.354735 0.39415,0.70947 0.5321025,1.064205 0.2561975,0.650348 0.3744425,1.241573 0.47298,1.81309 0.098538,0.610933 0.3744425,1.044498 1.2415726,1.044498 0.8474225,0 1.5766,-1.10362 1.5766,-2.52256 0,-0.610933 -0.098537,-1.005083 -0.197075,-1.951043 -0.118245,-1.241572 -0.275905,-3.1532 -0.197075,-4.41448 L 8.971783,28.47568 c 1.556893,-1.399233 3.70501,-2.305778 5.163365,-2.305778 1.97075,0 3.192615,1.064205 3.192615,3.369983 0,1.832797 -0.689762,5.025412 -5.853127,7.17353 l 0.118245,0.295612 c 6.93704,-1.005082 8.710715,-4.059745 8.710715,-6.77938 0,-3.172907 -2.798465,-4.96629 -5.557515,-4.96629 -1.517478,0 -3.271445,0.47298 -5.2816105,1.556893 l 1.0642055,-1.083913 c 0.31532,-0.31532 0.47298,-0.55181 0.453272,-0.847422 0,-0.23649 -0.413857,-0.689763 -0.86713,-0.906545 L 9.8586205,23.88383 10.016281,23.391143 c 0.216782,-0.571518 0.512395,-1.005083 0.512395,-1.379525 0,-0.827715 -1.4583555,-2.108703 -2.778758,-2.108703 -0.6306401,0 -1.1430351,0.197075 -1.7539676,0.492688 v 0.295612 c 0.591225,0.177368 1.0444975,0.374443 1.3204025,0.55181 0.3547351,0.216783 0.4926876,0.374443 0.4926876,0.7883 0,0.433565 -0.059122,1.438648 -0.15766,2.581683 -1.2021576,0.512395 -2.6605126,1.044497 -3.2320301,1.044497 -0.4926875,0 -0.748885,-0.275905 -1.1233275,-0.689762 l -0.2167826,0.07883 c -0.039415,0.374442 -0.098537,0.7883 0,1.123327 0.2759051,0.906545 1.3401101,2.04958 2.3649001,2.04958 0.47298,0 0.6109325,-0.492687 1.0050825,-0.7883 z m 0.7883,3.448813 -0.098537,2.483145 c -0.019707,0.413857 -0.2167825,0.492687 -0.5321025,0.23649 l -0.748885,-0.532103 z"
       id="path5" />
    <path
       d="m 6.0944879,37.69879 c 0.827715,0.985375 1.18245,1.97075 1.18245,3.429105 0,1.41894 -0.827715,4.453895 -0.827715,6.247277 0,0.906545 0.098537,1.65543 0.3744425,2.305778 0.2956125,0.670055 0.7291775,1.044497 1.4583551,1.044497 0.6897625,0 1.221865,-0.453272 1.221865,-1.123327 0,-1.02479 -0.15766,-1.753968 -0.15766,-2.75905 0,-1.143035 0.23649,-2.345193 0.8474225,-3.54735 0.670055,-1.359818 1.478063,-1.990458 2.12841,-1.990458 1.064205,0 1.714553,1.241573 1.714553,4.867753 0,3.113785 -0.689763,7.055285 -6.089618,9.183695 l 0.118245,0.335027 c 6.365523,-0.827715 8.947205,-4.375065 8.947205,-9.06545 0,-4.65097 -1.714552,-6.483767 -3.902085,-6.483767 -1.34011,0 -2.483145,1.02479 -3.5670575,2.956125 -0.15766,0.295612 -0.2956125,0.275905 -0.2956125,-0.05912 0,-0.216782 0.1379525,-0.7883 0.3744425,-1.41894 0.1773675,-0.453275 0.3744425,-0.88684 0.3744425,-1.478065 0,-0.7883 -1.02479,-1.89192 -2.1481175,-2.325485 C 7.3754754,37.639667 6.6265904,37.521422 6.1536104,37.560837 Z"
       id="path6" />
  </g>
  <g
     id="text7"
     style="font-weight:900;font-size:19.7075px;line-height:0.9;font-family:'Noto Serif CJK JP';-inkscape-font-specification:'Noto Serif CJK JP Heavy';text-align:justify;letter-spacing:0.0865216px;display:inline;fill:#1e1e1e;stroke:#e7e7e7;stroke-width:0;stroke-linecap:round;stroke-linejoin:round"
     transform="scale(1.0854741,0.92125644)"
     aria-label="終&#10;わ&#10;り"
     inkscape:label="owari-black">
    <path
       d="m 12.873868,12.729387 -0.118245,0.15766 c 1.083913,0.492688 2.404315,1.5766 2.99554,2.542268 2.483145,0.670055 2.877295,-4.040038 -2.877295,-2.699928 z m -1.517477,3.586765 -0.03941,0.216783 c 2.877295,0.985375 5.084535,2.660513 5.971372,3.70501 2.818173,0.94596 3.9415,-4.985998 -5.931957,-3.921793 z m 2.99554,-11.0953223 h 2.12841 c -0.335028,0.94596 -0.808008,1.8722125 -1.399233,2.7590501 -0.571517,-0.5518101 -1.064205,-1.1824501 -1.438647,-1.8919201 0.23649,-0.275905 0.47298,-0.5715175 0.70947,-0.86713 z M 13.169481,1.6931871 C 12.499426,4.4522372 11.139608,7.0930422 9.760083,8.7090573 l 0.197075,0.1773675 c 1.202158,-0.6109325 2.325485,-1.3992326 3.330568,-2.4240226 0.275905,0.9656675 0.610932,1.7933826 1.02479,2.5422676 -1.320403,1.6357222 -3.054663,3.0546622 -5.0845355,4.0794522 l 0.1379525,0.23649 c 2.3649,-0.650347 4.33565,-1.616015 5.951665,-2.857587 1.005083,1.241572 2.28607,2.167825 3.823255,2.91671 0.335028,-1.18245 1.02479,-1.97075 2.029873,-2.20724 l 0.01971,-0.216783 c -1.5766,-0.374442 -3.133492,-0.926252 -4.473602,-1.7342597 1.064205,-1.0839125 1.911627,-2.2860701 2.542267,-3.5867651 0.47298,-0.039415 0.670055,-0.098537 0.808008,-0.31532 L 17.820451,3.3486171 16.440926,4.6690197 h -1.694845 c 0.295612,-0.433565 0.571517,-0.906545 0.827715,-1.3992326 0.453272,0.039415 0.729177,-0.118245 0.827715,-0.354735 z m -10.9967857,3.3896901 -0.15766,0.098537 c 0.591225,0.8080075 1.2612801,2.04958 1.4189401,3.1729076 1.616015,1.18245 3.1729075,-0.9459601 1.3598175,-2.3254851 0.985375,-0.7685925 2.0298725,-1.773675 2.8970026,-2.7984651 0.433565,0 0.70947,-0.15766 0.7883,-0.4138575 L 5.0302829,1.6537721 c -0.23649,1.34011 -0.5715175,2.8575876 -0.86713,3.9809151 -0.512395,-0.23649 -1.1627426,-0.433565 -1.9904576,-0.55181 z m 0.906545,8.0800748 c -0.118245,1.951043 -0.4926875,4.040038 -1.0050825,5.498393 l 0.275905,0.137953 C 3.5719279,17.813922 4.5573029,16.33586 5.2864804,14.52277 v 5.853128 h 0.47298 c 1.300695,0 2.0889951,-0.532103 2.0889951,-0.689763 v -6.404938 c 0.433565,1.02479 0.7883,2.3649 0.748885,3.586765 1.9904575,1.931336 4.5327255,-2.04958 -0.6503475,-3.902085 l -0.098537,0.03941 V 10.89659 l 0.63064,-0.23649 c 0.07883,0.354735 0.118245,0.70947 0.118245,1.064205 1.990457,1.773675 4.473602,-2.1284102 -0.7488855,-3.2123227 L 7.671088,8.6105198 C 7.9272855,9.0243773 8.1637755,9.5367723 8.341143,10.088582 L 5.6412154,10.226535 C 7.3360604,8.6893498 9.090028,6.8762597 10.134526,5.5952722 c 0.47298,0.039415 0.70947,-0.118245 0.7883,-0.354735 L 7.5725505,4.0777947 C 6.9024954,5.8317622 5.7988754,8.2951998 4.7346704,10.26595 l -2.6605126,0.09854 0.827715,2.581683 c 0.23649,-0.03941 0.4532726,-0.197075 0.5912251,-0.453273 l 1.7933825,-0.63064 v 1.81309 z"
       id="path1" />
    <path
       d="m 6.4492229,27.431182 c 0.197075,-0.15766 0.6109325,-0.413857 1.0444975,-0.670055 l -0.059122,0.748885 c -1.34011,1.97075 -2.9758325,3.902085 -3.9415,4.867753 -0.4335651,0.433565 -0.6503476,0.965667 -0.6503476,1.635722 0,0.86713 0.5321026,1.34011 1.0444976,1.320403 0.591225,-0.01971 0.94596,-0.610933 1.3598175,-1.280988 l 0.275905,-0.433565 c 0.2167825,0.354735 0.39415,0.70947 0.5321025,1.064205 0.2561975,0.650348 0.3744425,1.241573 0.47298,1.81309 0.098538,0.610933 0.3744425,1.044498 1.2415726,1.044498 0.8474225,0 1.5766,-1.10362 1.5766,-2.52256 0,-0.610933 -0.098537,-1.005083 -0.197075,-1.951043 -0.118245,-1.241572 -0.275905,-3.1532 -0.197075,-4.41448 L 8.971783,28.47568 c 1.556893,-1.399233 3.70501,-2.305778 5.163365,-2.305778 1.97075,0 3.192615,1.064205 3.192615,3.369983 0,1.832797 -0.689762,5.025412 -5.853127,7.17353 l 0.118245,0.295612 c 6.93704,-1.005082 8.710715,-4.059745 8.710715,-6.77938 0,-3.172907 -2.798465,-4.96629 -5.557515,-4.96629 -1.517478,0 -3.271445,0.47298 -5.2816105,1.556893 l 1.0642055,-1.083913 c 0.31532,-0.31532 0.47298,-0.55181 0.453272,-0.847422 0,-0.23649 -0.413857,-0.689763 -0.86713,-0.906545 L 9.8586205,23.88383 10.016281,23.391143 c 0.216782,-0.571518 0.512395,-1.005083 0.512395,-1.379525 0,-0.827715 -1.4583555,-2.108703 -2.778758,-2.108703 -0.6306401,0 -1.1430351,0.197075 -1.7539676,0.492688 v 0.295612 c 0.591225,0.177368 1.0444975,0.374443 1.3204025,0.55181 0.3547351,0.216783 0.4926876,0.374443 0.4926876,0.7883 0,0.433565 -0.059122,1.438648 -0.15766,2.581683 -1.2021576,0.512395 -2.6605126,1.044497 -3.2320301,1.044497 -0.4926875,0 -0.748885,-0.275905 -1.1233275,-0.689762 l -0.2167826,0.07883 c -0.039415,0.374442 -0.098537,0.7883 0,1.123327 0.2759051,0.906545 1.3401101,2.04958 2.3649001,2.04958 0.47298,0 0.6109325,-0.492687 1.0050825,-0.7883 z m 0.7883,3.448813 -0.098537,2.483145 c -0.019707,0.413857 -0.2167825,0.492687 -0.5321025,0.23649 l -0.748885,-0.532103 z"
       id="path2" />
    <path
       d="m 6.0944879,37.69879 c 0.827715,0.985375 1.18245,1.97075 1.18245,3.429105 0,1.41894 -0.827715,4.453895 -0.827715,6.247277 0,0.906545 0.098537,1.65543 0.3744425,2.305778 0.2956125,0.670055 0.7291775,1.044497 1.4583551,1.044497 0.6897625,0 1.221865,-0.453272 1.221865,-1.123327 0,-1.02479 -0.15766,-1.753968 -0.15766,-2.75905 0,-1.143035 0.23649,-2.345193 0.8474225,-3.54735 0.670055,-1.359818 1.478063,-1.990458 2.12841,-1.990458 1.064205,0 1.714553,1.241573 1.714553,4.867753 0,3.113785 -0.689763,7.055285 -6.089618,9.183695 l 0.118245,0.335027 c 6.365523,-0.827715 8.947205,-4.375065 8.947205,-9.06545 0,-4.65097 -1.714552,-6.483767 -3.902085,-6.483767 -1.34011,0 -2.483145,1.02479 -3.5670575,2.956125 -0.15766,0.295612 -0.2956125,0.275905 -0.2956125,-0.05912 0,-0.216782 0.1379525,-0.7883 0.3744425,-1.41894 0.1773675,-0.453275 0.3744425,-0.88684 0.3744425,-1.478065 0,-0.7883 -1.02479,-1.89192 -2.1481175,-2.325485 C 7.3754754,37.639667 6.6265904,37.521422 6.1536104,37.560837 Z"
       id="path3"
       style="display:inline" />
  </g>
</svg>
