<?xml version="1.0" encoding="UTF-8" standalone="no"?>
<!-- Created with Inkscape (http://www.inkscape.org/) -->

<svg
   width="256"
   height="256"
   viewBox="0 0 256 256"
   version="1.1"
   id="svg1"
   xml:space="preserve"
   inkscape:version="1.4 (e7c3feb100, 2024-10-09)"
   sodipodi:docname="pointer.svg"
   xmlns:inkscape="http://www.inkscape.org/namespaces/inkscape"
   xmlns:sodipodi="http://sodipodi.sourceforge.net/DTD/sodipodi-0.dtd"
   xmlns:xlink="http://www.w3.org/1999/xlink"
   xmlns="http://www.w3.org/2000/svg"
   xmlns:svg="http://www.w3.org/2000/svg"><sodipodi:namedview
     id="namedview1"
     pagecolor="#505050"
     bordercolor="#eeeeee"
     borderopacity="1"
     inkscape:showpageshadow="0"
     inkscape:pageopacity="0"
     inkscape:pagecheckerboard="0"
     inkscape:deskcolor="#505050"
     inkscape:document-units="px"
     inkscape:zoom="2.2594271"
     inkscape:cx="127.46594"
     inkscape:cy="144.28436"
     inkscape:window-width="1348"
     inkscape:window-height="1017"
     inkscape:window-x="0"
     inkscape:window-y="31"
     inkscape:window-maximized="0"
     inkscape:current-layer="svg1" /><defs
     id="defs1"><linearGradient
       id="linearGradient1"
       inkscape:collect="always"><stop
         style="stop-color:#1e1e1e;stop-opacity:1;"
         offset="0"
         id="stop1" /><stop
         style="stop-color:#ffffff;stop-opacity:0;"
         offset="1"
         id="stop2" /></linearGradient><linearGradient
       inkscape:collect="always"
       xlink:href="#linearGradient1"
       id="linearGradient2"
       x1="272.11737"
       y1="295.6723"
       x2="272.11737"
       y2="-46.211227"
       gradientUnits="userSpaceOnUse"
       gradientTransform="matrix(0.56440633,0,0,0.56440633,-11.943242,1.6544658)" /><filter
       inkscape:collect="always"
       style="color-interpolation-filters:sRGB"
       id="filter4"
       x="-0.18428957"
       y="-0.15914318"
       width="1.3685258"
       height="1.3180665"><feGaussianBlur
         inkscape:collect="always"
         stdDeviation="18.21283"
         id="feGaussianBlur4" /></filter></defs><path
     style="mix-blend-mode:normal;fill:#1e1e1e;fill-opacity:1;stroke:#1e1e1e;stroke-width:21.862;stroke-linecap:round;stroke-linejoin:round;stroke-dasharray:none;stroke-opacity:1;filter:url(#filter4)"
     d="M 175.17687,285.77968 V 98.80022 c 0,0 -0.54911,-16.607944 8.12769,-23.296516 8.6768,-6.688572 30.55651,-8.942138 38.0108,4.597646 7.45429,13.53978 3.94269,111.35601 4.91508,128.85912 5.62582,3.38313 10.37398,5.53434 18.95888,0 0.19145,-15.2857 -2.64434,-31.52672 6.7579,-40.49681 8.89731,-8.48836 19.55577,-11.15811 35.11409,-2.40655 15.55832,8.75155 7.61231,45.13295 7.61231,45.13295 l 20.12538,-1.2572 c 0,0 -1.74574,-22.95286 6.12661,-28.83151 9.14762,-6.83095 26.11556,-5.42791 34.14437,2.68868 14.67719,14.83767 4.23605,62.46792 4.23605,62.46792 l 6.03549,-0.65943 c 0,0 3.21005,-24.85134 3.21005,-33.6029 0,-8.75155 30.27618,-5.95234 34.16576,4.74401 3.88958,10.69634 6.80678,79.7364 -3.88958,129.32855 -10.69634,49.59215 -39.86819,66.12286 -39.86819,66.12286 l -140.9973,0.9724 c 0,0 -13.61353,3.88958 -29.17185,-11.66874 -15.55833,-15.55832 -44.73018,-74.87443 -70.98485,-116.68741 -26.254667,-41.813 18.25089,-41.14582 31.2396,-33.24032 13.68441,8.32893 14.59975,27.03729 19.41286,33.22559 4.81311,6.18828 5.50069,7.3056 6.18828,5.24284 0.68759,-2.06276 0.53057,-4.25572 0.53057,-4.25572 z"
     id="path2"
     sodipodi:nodetypes="cczzccssccaaccsssccsssssc"
     inkscape:label="shadow"
     transform="matrix(0.56440636,0,0,0.56440636,-17.587295,-8.5048533)" /><path
     style="display:inline;fill:url(#linearGradient2);stroke:#ffffff;stroke-width:12.339;stroke-linecap:round;stroke-linejoin:round;stroke-dasharray:none;stroke-opacity:1"
     d="M 81.283629,152.79102 V 47.258624 c 0,0 -0.309922,-9.373632 4.587326,-13.148703 4.897242,-3.775071 17.246295,-5.046998 21.453535,2.594939 4.20725,7.641943 2.22527,62.850043 2.77411,72.7289 3.17524,1.90947 5.85513,3.12362 10.70051,0 0.10805,-8.62734 -1.49248,-17.793877 3.8142,-22.856655 5.02169,-4.790883 11.0374,-6.297702 19.81861,-1.358268 8.78122,4.939432 4.29644,25.473323 4.29644,25.473323 l 11.3589,-0.70957 c 0,0 -0.98531,-12.954737 3.45789,-16.272691 5.16297,-3.855428 14.73979,-3.063543 19.2713,1.517513 8.28389,8.374478 2.39085,35.257288 2.39085,35.257288 l 3.40647,-0.37218 c 0,0 1.81177,-14.02626 1.81177,-18.96569 0,-4.93943 17.08806,-3.35955 19.28337,2.67754 2.19532,6.03708 3.8418,45.00373 -2.19531,72.99386 -6.03707,27.99012 -22.50184,37.32015 -22.50184,37.32015 l -79.57978,0.54884 c 0,0 -7.683565,2.19531 -16.464783,-6.58592 -8.781217,-8.7812 -25.245989,-42.25959 -40.064295,-65.8591 -14.8183,-23.59953 10.300916,-23.22297 17.631827,-18.76105 7.723568,4.70089 8.240195,15.26001 10.95674,18.75273 2.716553,3.4927 3.104631,4.12332 3.492703,2.95909 0.388087,-1.16424 0.299457,-2.40195 0.299457,-2.40195 z"
     id="path1"
     sodipodi:nodetypes="cczzccssccaaccsssccsssssc" /></svg>
