<?xml version="1.0" encoding="UTF-8" standalone="no"?>
<!-- Created with Inkscape (http://www.inkscape.org/) -->

<svg
   width="180"
   height="180"
   viewBox="0 0 180 180"
   version="1.1"
   id="svg1"
   xml:space="preserve"
   xmlns:inkscape="http://www.inkscape.org/namespaces/inkscape"
   xmlns:sodipodi="http://sodipodi.sourceforge.net/DTD/sodipodi-0.dtd"
   xmlns="http://www.w3.org/2000/svg"
   xmlns:svg="http://www.w3.org/2000/svg"><sodipodi:namedview
     id="namedview1"
     pagecolor="#505050"
     bordercolor="#eeeeee"
     borderopacity="1"
     inkscape:showpageshadow="0"
     inkscape:pageopacity="0"
     inkscape:pagecheckerboard="0"
     inkscape:deskcolor="#505050"
     inkscape:document-units="px"
     inkscape:zoom="3.2369777"
     inkscape:cx="86.809371"
     inkscape:cy="91.906719"
     inkscape:window-width="1532"
     inkscape:window-height="992"
     inkscape:window-x="195"
     inkscape:window-y="31"
     inkscape:window-maximized="0"
     inkscape:current-layer="layer1" /><defs
     id="defs1" /><g
     inkscape:label="Camada 1"
     inkscape:groupmode="layer"
     id="layer1"><path
       style="fill:#ff5555;stroke-width:1.41622"
       d="M 103.42364,175.49234 C 88.219715,137.82053 64.879142,131.89532 37.24478,158.69223 l -4.305314,4.17485 -6.713843,-5.69422 -6.713844,-5.69421 3.314912,-3.37671 c 32.264994,-32.86661 67.020022,-31.30588 88.544789,3.97624 3.89411,6.38299 10.34974,20.42573 9.665,21.02397 -0.16325,0.14263 -3.60724,1.45043 -12.6806,4.81527 l -3.43881,1.27527 z m 41.8338,-20.37532 c -29.7798,-30.91844 -29.10651,-63.846836 1.72707,-84.464825 6.80166,-4.548183 24.29893,-13.09465 25.12256,-12.271014 0.55216,0.552152 6.00008,16.002031 5.72524,16.23628 -0.17872,0.152311 -1.54856,0.747109 -3.04409,1.321771 -37.78642,14.519542 -44.02997,38.760848 -17.16173,66.632368 l 3.84758,3.99126 -5.57908,6.56978 c -6.67226,7.85708 -5.23869,7.58966 -10.63755,1.98438 z M 7.3998488,122.53789 c -0.2135237,-0.57755 -1.561424,-4.17876 -2.9953327,-8.00266 -1.4339088,-3.82391 -2.4319966,-7.11014 -2.217973,-7.30274 0.2140223,-0.1926 2.8363633,-1.40124 5.8274233,-2.68587 C 44.241414,88.98728 48.703817,65.25419 20.609304,37.558859 l -2.388501,-2.354565 4.41359,-5.142263 c 2.427475,-2.828246 4.98865,-5.82899 5.691498,-6.668321 l 1.277907,-1.526055 4.079024,4.037784 c 36.426416,36.058138 28.919681,74.223441 -18.644397,94.790741 -7.1889754,3.1086 -7.1717414,3.10445 -7.6385762,1.84171 z M 102.00969,55.750632 C 86.489918,52.940539 73.853014,41.813369 64.249371,22.501547 61.175358,16.320065 57.385399,7.15899 57.750905,6.7934845 57.875731,6.6686587 61.585492,5.2707007 65.994813,3.6869174 L 74.011759,0.80731125 74.467085,2.0061358 C 89.955029,42.784119 112.63259,49.748914 141.4847,22.588764 c 3.62979,-3.416938 4.17524,-3.779639 4.87309,-3.240396 0.43218,0.333965 3.40326,2.93347 6.60239,5.776676 l 5.8166,5.169465 -2.87086,2.921889 c -16.41017,16.701865 -37.47231,25.508036 -53.89623,22.534234 z"
       id="path1" /></g></svg>
