<?xml version="1.0" encoding="UTF-8" standalone="no"?>
<!-- Created with Inkscape (http://www.inkscape.org/) -->

<svg
   width="1024"
   height="1024"
   viewBox="0 0 270.93334 270.93333"
   version="1.1"
   id="svg1"
   xml:space="preserve"
   inkscape:version="1.3.2 (091e20ef0f, 2023-11-25)"
   sodipodi:docname="speed-lines.svg"
   xmlns:inkscape="http://www.inkscape.org/namespaces/inkscape"
   xmlns:sodipodi="http://sodipodi.sourceforge.net/DTD/sodipodi-0.dtd"
   xmlns="http://www.w3.org/2000/svg"
   xmlns:svg="http://www.w3.org/2000/svg"><sodipodi:namedview
     id="namedview1"
     pagecolor="#505050"
     bordercolor="#eeeeee"
     borderopacity="1"
     inkscape:showpageshadow="0"
     inkscape:pageopacity="0"
     inkscape:pagecheckerboard="0"
     inkscape:deskcolor="#505050"
     inkscape:document-units="mm"
     inkscape:zoom="0.73406285"
     inkscape:cx="503.36289"
     inkscape:cy="495.18921"
     inkscape:window-width="1481"
     inkscape:window-height="994"
     inkscape:window-x="0"
     inkscape:window-y="33"
     inkscape:window-maximized="0"
     inkscape:current-layer="layer1" /><defs
     id="defs1" /><g
     inkscape:label="lines"
     inkscape:groupmode="layer"
     id="layer1"><path
       style="fill:#000000"
       d="m -1.1060986,271.55192 c 0,-0.37081 1.0888719,-1.52175 3.9950904,-4.22282 15.2386362,-14.16293 55.1932742,-51.76833 60.2131002,-56.6727 1.312338,-1.28216 2.477214,-2.33119 2.588613,-2.33119 0.111398,0 -2.839065,3.06576 -6.556585,6.81282 -13.383283,13.48959 -45.276178,46.12672 -53.9199656,55.17821 l -1.666815,1.74543 h -2.326719 c -2.2668171,0 -2.326719,-0.0131 -2.326719,-0.50975 z m 5.1987636,0.45203 c 0.051612,-0.0317 2.369338,-2.28673 5.1505015,-5.01108 2.7811635,-2.72435 4.9094665,-4.75067 4.7295615,-4.50293 -0.179905,0.24774 -2.301818,2.50272 -4.7153618,5.01108 -2.7354463,2.84291 -4.5521547,4.56065 -4.8234016,4.56065 -0.2393271,0 -0.3929119,-0.026 -0.3412996,-0.0577 z m 6.625745,-5.08218 c 2.848664,-2.82695 19.004098,-18.9159 35.900963,-35.75323 L 77.340946,200.55521 65.64472,213.27998 C 47.90175,232.58324 32.731525,249.15282 21.776331,261.19494 L 11.89044,272.06167 H 8.7147296 5.5390195 Z m 2.647135,4.48838 c 0.512198,-0.60871 17.518315,-18.46436 20.184864,-21.19319 1.891805,-1.93599 0.396065,-0.22258 -7.96827,9.12784 -4.087692,4.5696 -8.293623,9.29245 -9.346514,10.49524 -1.683589,1.92327 -2.004989,2.18897 -2.666322,2.20426 l -0.751976,0.0174 z m 3.001931,-0.75609 c 3.365112,-3.48924 32.169134,-34.37327 38.596509,-41.38366 1.646735,-1.7961 3.206607,-3.46834 3.466381,-3.71608 l 0.472317,-0.45043 -0.46937,0.56304 c -0.258153,0.30967 -3.198283,3.70482 -6.533621,7.54477 -9.497335,10.93422 -29.020198,33.52189 -31.38494,36.31191 l -2.139563,2.52435 -1.682623,0.007 -1.682623,0.007 z m 3.397741,0.90087 c 7.121761,-7.93039 11.491335,-12.76166 11.865209,-13.1189 l 0.471411,-0.45043 -0.46884,0.56304 c -0.257862,0.30967 -2.282206,2.69331 -4.498543,5.29698 -2.216338,2.60367 -4.676761,5.51741 -5.467608,6.47499 -0.93513,1.13229 -1.598536,1.74106 -1.8973,1.74106 h -0.459397 z m 2.139593,-0.35546 c 2.684759,-3.08844 9.041805,-10.17344 9.128156,-10.17344 0.05739,0 -0.233434,0.39955 -0.646283,0.88789 -0.412849,0.48835 -2.473546,2.96518 -4.579327,5.50408 -2.345292,2.82768 -3.988195,4.62151 -4.240372,4.62993 -0.336151,0.0112 -0.274172,-0.14444 0.337826,-0.84846 z m 9.1099,-3.87463 c 2.189253,-2.60525 4.072814,-4.7939 4.185691,-4.86366 0.112877,-0.0698 -1.535929,2.06181 -3.664013,4.73683 -2.128085,2.67501 -4.011645,4.86366 -4.185691,4.86366 -0.174046,0 1.47476,-2.13157 3.664013,-4.73683 z m -1.49127,4.61239 c 0,-0.0684 3.07132,-3.84364 6.825156,-8.38934 14.359808,-17.38897 40.009848,-48.6812 50.250121,-61.30355 1.959612,-2.41545 3.91556,-4.79712 4.346549,-5.2926 0.708954,-0.81504 0.731052,-0.82577 0.231924,-0.11261 -0.303432,0.43354 -2.931423,3.98071 -5.83998,7.8826 -11.905748,15.9718 -35.320997,47.61995 -44.865003,60.63973 l -4.911516,6.70021 h -3.018625 c -1.660245,0 -3.018626,-0.056 -3.018626,-0.12444 z m 7.432167,0.003 c 0,-0.0666 1.835929,-2.52424 4.079841,-5.46152 3.992332,-5.22596 5.643917,-7.25157 3.892542,-4.77408 -6.160494,8.71463 -7.972383,11.04088 -7.972383,10.2356 z m 1.953858,-0.14136 c 0.131487,-0.16537 3.662553,-4.86132 7.846812,-10.43545 6.638464,-8.84353 9.546414,-12.61153 7.745033,-10.03568 -11.926355,17.05384 -14.543904,20.62317 -15.177538,20.69635 -0.519524,0.06 -0.604399,0.0139 -0.414307,-0.22522 z m 2.482183,-0.0131 c 0.29979,-0.38816 12.875483,-17.56396 20.905296,-28.55232 7.363862,-10.07704 35.712605,-49.08718 37.356711,-51.40582 0.592875,-0.83612 1.113855,-1.52022 1.157735,-1.52022 0.0439,0 -1.551834,2.50836 -3.546024,5.57413 -17.732292,27.26075 -32.961283,50.77191 -44.384273,68.52233 l -4.855318,7.54477 -3.428111,0.0624 c -2.753749,0.0501 -3.384422,0.006 -3.206016,-0.22522 z m 12.004814,-0.17495 c 0.132586,-0.24774 0.29174,-0.45044 0.353674,-0.45044 0.06194,0 0.0041,0.2027 -0.128456,0.45044 -0.132586,0.24773 -0.291739,0.45043 -0.353674,0.45043 -0.06193,0 -0.0041,-0.2027 0.128456,-0.45043 z m 1.490275,0.17965 c 0.09836,-0.16074 4.44594,-7.08256 9.661291,-15.38182 5.215352,-8.29925 12.456345,-19.85289 16.091097,-25.67475 3.634752,-5.82187 6.711475,-10.68656 6.837162,-10.81043 0.125688,-0.12387 -0.0046,0.18017 -0.289454,0.67565 -9.630463,16.74936 -18.506039,32.22486 -23.31473,40.6517 l -6.104599,10.69782 -1.529801,0.0671 c -1.207694,0.0529 -1.492147,0.006 -1.350966,-0.22522 z m 4.365373,0.18197 c 0,-0.0631 3.306501,-5.66837 7.34778,-12.45619 4.041279,-6.78783 9.020136,-15.17924 11.064127,-18.64758 2.043992,-3.46835 3.821828,-6.40743 3.950747,-6.5313 0.12892,-0.12387 0.02587,0.14179 -0.228995,0.59035 -0.436527,0.76827 -12.049321,21.95441 -17.69992,32.29136 l -2.585371,4.72956 -0.924184,0.0693 c -0.508302,0.0381 -0.924184,0.0176 -0.924184,-0.0454 z m 3.379099,0.0291 c -0.0011,-0.22351 1.363218,-2.64289 1.490353,-2.64289 0.05329,0 -0.06666,0.31627 -0.266552,0.70283 -0.556506,1.07616 -1.22286,2.13252 -1.223801,1.94006 z m 4.595535,-0.3057 c 0.07712,-0.20098 2.401754,-4.58427 5.165847,-9.74064 2.764092,-5.15638 6.841755,-12.78625 9.061472,-16.95528 2.219717,-4.16903 4.060831,-7.55609 4.091364,-7.5268 0.03053,0.0293 -3.763232,7.82361 -8.430588,17.3207 l -8.486101,17.26744 h -0.771109 c -0.618779,0 -0.743408,-0.0722 -0.630885,-0.36542 z m 3.286225,0.23999 c 0,-0.0751 1.152498,-2.3833 2.561107,-5.12927 4.40797,-8.593 8.434432,-16.51653 14.668544,-28.8657 3.314186,-6.56509 7.063897,-13.96347 8.332691,-16.44086 1.268795,-2.47739 5.980499,-11.8315 10.470459,-20.78692 4.48996,-8.95542 8.19841,-16.24773 8.24101,-16.20514 0.0426,0.0426 -2.71388,6.60964 -6.12548,14.59345 -6.32849,14.80986 -19.858836,46.6776 -26.961035,63.50075 l -3.945802,9.34651 -3.620747,0.0619 c -1.991411,0.034 -3.620747,4.2e-4 -3.620747,-0.0747 z m 12.450227,-0.15609 c 0.06131,-0.15484 2.104758,-5.09554 4.540996,-10.97934 2.436237,-5.8838 6.877767,-16.64734 9.870067,-23.91897 2.992301,-7.27164 5.473651,-13.18805 5.514121,-13.14758 0.0405,0.0405 -0.19081,0.77058 -0.51396,1.62247 -1.02546,2.70331 -12.578576,34.17635 -14.890157,40.5638 l -2.219567,6.13319 -1.206486,0.004 c -0.87566,0.003 -1.17592,-0.0732 -1.095014,-0.27755 z m 9.167095,-13.62564 c 2.936184,-7.64894 7.297559,-19.04982 9.691949,-25.33528 2.39438,-6.28547 4.38081,-11.40073 4.41428,-11.36726 0.0335,0.0335 -2.35133,7.20308 -5.29958,15.93246 -2.948238,8.72938 -6.767548,20.10287 -8.487351,25.27442 l -3.126916,9.40282 h -1.265449 -1.26545 z m 1.354832,13.73701 c 0,-0.26472 10.322367,-31.04569 10.342307,-30.84044 0.01,0.1001 -1.44387,5.11681 -3.23022,11.14825 -1.786347,6.03145 -3.83022,12.96788 -4.54194,15.4143 -1.288605,4.42937 -1.296715,4.44804 -1.932092,4.44804 -0.35093,0 -0.638055,-0.0766 -0.638055,-0.17015 z m 3.908648,-0.1638 c 0.07048,-0.18367 0.503896,-1.60225 0.963145,-3.15239 0.459249,-1.55015 0.87736,-2.77609 0.929136,-2.72432 0.169917,0.16992 -1.587093,6.21066 -1.806432,6.21066 -0.117698,0 -0.15633,-0.15028 -0.08585,-0.33395 z m 2.005118,-0.0602 c 1.288341,-4.58888 12.415551,-43.12383 12.567601,-43.52322 0.19582,-0.51436 0.20262,-0.50463 0.0786,0.11261 -0.0747,0.3716 -2.29652,9.44223 -4.93744,20.15693 -2.64091,10.71471 -5.0212,20.41876 -5.28954,21.56455 l -0.48789,2.08326 h -1.02098 c -0.864375,0 -1.004011,-0.0605 -0.910331,-0.39413 z m 3.545361,0.32035 c 0,-0.0406 1.00585,-3.91713 2.23522,-8.61455 3.76327,-14.37945 11.42754,-43.93051 12.3077,-47.45473 0.45736,-1.8313 0.87484,-3.28636 0.92773,-3.23346 0.0529,0.0529 -0.36174,2.20999 -0.92142,4.79354 -2.92836,13.51773 -11.39619,53.83088 -11.39619,54.25429 0,0.2568 -0.34479,0.32869 -1.57652,0.32869 -0.86709,0 -1.57652,-0.0332 -1.57652,-0.0738 z m 5.04598,-0.32035 c 0.13877,-0.44993 10.75001,-48.24575 12.54887,-56.52337 0.65204,-3.00046 1.22438,-5.41653 1.27186,-5.36904 0.0475,0.0475 -0.0713,0.93151 -0.26387,1.9645 -0.38482,2.06389 -8.13263,47.0005 -9.51709,55.19835 l -0.8653,5.12369 h -1.64801 c -1.46571,0 -1.63457,-0.0436 -1.52646,-0.39413 z m 4.85959,0.22522 c -0.009,-0.39603 2.80121,-15.35153 2.87172,-15.28102 0.0427,0.0427 -0.4557,3.53646 -1.10764,7.76382 -0.8425,5.46303 -1.26846,7.68611 -1.47272,7.68611 -0.15806,0 -0.28917,-0.076 -0.29136,-0.16891 z m 3.13921,-0.67586 c 0.10762,-0.77726 0.12332,-0.79296 0.19758,-0.19758 0.0444,0.35574 -0.008,0.7357 -0.11691,0.84436 -0.11329,0.1133 -0.14771,-0.16262 -0.0807,-0.64678 z m 1.93194,0.33803 c 0.2388,-1.00034 10.20281,-69.33712 11.52705,-79.05666 0.19871,-1.45845 0.39514,-2.61788 0.43651,-2.57651 0.0414,0.0414 -0.77784,10.35595 -1.82047,22.92128 -1.04263,12.56533 -2.51355,30.7005 -3.26872,40.30039 -0.75516,9.59988 -1.42453,17.78371 -1.48749,18.18628 l -0.11447,0.73196 h -2.69669 c -2.68227,0 -2.69604,-0.003 -2.57572,-0.50674 z m 7.09456,0.34724 c 0,-0.2212 2.76512,-29.70685 3.71281,-39.59133 0.42755,-4.4593 0.73733,-7.09435 0.6884,-5.85565 -0.22252,5.63362 -2.18759,44.22194 -2.28519,44.87452 -0.10468,0.69988 -0.15345,0.73196 -1.11275,0.73196 -0.5518,0 -1.00327,-0.0718 -1.00327,-0.1595 z m 3.90087,-2.26159 c 0.0776,-1.33159 0.69912,-11.03564 1.38126,-21.56454 0.68214,-10.5289 1.64736,-25.78174 2.14494,-33.89519 0.49758,-8.11345 0.94644,-15.00509 0.99747,-15.31477 0.051,-0.30967 0.0517,2.88278 0.002,7.09434 -0.0502,4.21157 -0.14253,14.8024 -0.20519,23.5352 -0.0627,8.7328 -0.17737,21.88267 -0.25491,29.22193 l -0.14097,13.34412 h -2.03256 -2.03255 z m 7.83898,-6.30608 c 0.0333,-10.16044 0.29396,-9.49303 0.52786,1.35131 0.14355,6.65551 0.12414,7.37586 -0.19867,7.37586 -0.32119,0 -0.35483,-0.89183 -0.32919,-8.72717 z m 2.36032,8.37092 c -0.0752,-0.19593 -0.13795,-3.31237 -0.13947,-6.92542 -0.002,-3.61306 -0.14899,-15.99453 -0.32772,-27.51439 -0.17872,-11.51986 -0.38146,-24.69506 -0.45052,-29.27823 -0.0691,-4.58317 -0.18441,-9.90393 -0.25631,-11.8239 -0.0719,-1.91998 -0.0753,-3.43646 -0.008,-3.36997 0.0677,0.0665 0.63649,7.11016 1.26393,15.65259 1.23724,16.8445 3.28361,43.93747 4.17679,55.29876 0.30745,3.91081 0.559,7.38197 0.559,7.71369 v 0.60312 h -2.34068 c -1.92664,0 -2.36487,-0.063 -2.47739,-0.35625 z m 6.52334,0.0747 c -0.0453,-0.15484 -0.55657,-8.03463 -1.13618,-17.51064 -1.25313,-20.48737 -1.24477,-20.33983 -1.10403,-19.48129 0.1502,0.91625 3.68799,36.22788 3.68799,36.81079 0,0.36499 -0.14414,0.46266 -0.68272,0.46266 -0.3755,0 -0.71978,-0.12669 -0.76506,-0.28152 z m 6.53553,-0.19864 c -0.19716,-0.92097 -0.63468,-5.39929 -0.53704,-5.49693 0.0512,-0.0512 0.27358,1.22974 0.49415,2.84657 0.22057,1.61683 0.34614,2.99458 0.27904,3.06168 -0.0671,0.0671 -0.17336,-0.118 -0.23615,-0.41132 z m -0.34635,-17.93135 c -1.29412,-10.12632 -2.38101,-18.81689 -2.4153,-19.31237 -0.0343,-0.49548 1.34692,7.51099 3.06937,17.79216 1.72246,10.28116 3.18686,18.97173 3.25424,19.31237 0.11604,0.58673 0.0783,0.61935 -0.71644,0.61935 l -0.83893,0 z m 5.8438,18.27001 c 0,-0.0778 -0.51344,-3.43249 -1.14097,-7.45481 -1.15923,-7.43028 -1.39649,-9.82191 -0.45783,-4.6151 0.80206,4.44912 2.04247,11.14302 2.16894,11.70467 0.0795,0.35319 0.0104,0.50674 -0.22802,0.50674 -0.18816,0 -0.34212,-0.0637 -0.34212,-0.1415 z m 8.00407,-0.14002 c -0.25166,-0.79051 -3.29293,-15.31512 -3.22171,-15.38633 0.0458,-0.0458 0.31304,0.85105 0.5939,1.99296 3.06517,12.46195 3.33398,13.67489 3.03062,13.67489 -0.17226,0 -0.35352,-0.12669 -0.40281,-0.28152 z m 2.80636,0.16376 c 0,-0.0648 -1.42322,-6.15817 -3.1627,-13.5409 -1.73949,-7.38274 -3.12718,-13.45868 -3.08375,-13.50211 0.0583,-0.0583 6.40328,23.11838 7.29698,26.65403 0.10845,0.42903 0.0377,0.50674 -0.46122,0.50674 -0.32412,0 -0.58931,-0.053 -0.58931,-0.11776 z m 3.04149,-0.16376 c -0.10996,-0.3178 -0.57563,-2.11106 -3.4944,-13.45673 -3.97143,-15.43752 -8.40039,-32.48472 -12.98983,-49.99821 -2.54812,-9.72376 -4.67124,-17.88225 -4.71804,-18.12999 -0.1121,-0.59348 3.17584,9.36725 8.7352,26.46302 4.88683,15.02765 17.0095,52.01074 17.73618,54.10843 l 0.44861,1.295 h -2.81015 c -2.04603,0 -2.83664,-0.0765 -2.90757,-0.28152 z m 6.34676,-5.26386 c -0.968,-3.04491 -1.71911,-5.57709 -1.66913,-5.62707 0.05,-0.05 0.93269,2.3167 1.96159,5.25927 1.0289,2.94258 1.91754,5.47682 1.97475,5.63166 0.0572,0.15483 -0.0335,0.27945 -0.20159,0.27693 -0.20021,-0.003 -0.91264,-1.91401 -2.06562,-5.54079 z m 6.28591,2.44642 c -0.60749,-1.70198 -2.91274,-8.1032 -5.12277,-14.22492 -2.21003,-6.12173 -3.98693,-11.16172 -3.94867,-11.19998 0.0527,-0.0527 10.58003,26.1104 11.31868,28.12973 0.11606,0.31729 0.0187,0.3937 -0.49928,0.39191 -0.62257,-0.002 -0.67927,-0.1026 -1.74796,-3.09674 z m 2.59323,-4.05437 c -1.53473,-3.93138 -3.82919,-9.783 -5.09879,-13.00361 -7.07786,-17.95435 -13.48591,-34.17563 -15.96612,-40.41646 -1.54848,-3.89637 -2.7839,-7.11584 -2.74537,-7.15437 0.0385,-0.0385 0.50485,0.91976 1.03627,2.12954 1.67737,3.81859 14.16082,31.49564 21.98248,48.73739 4.13779,9.12115 7.52325,16.64622 7.52325,16.72237 0,0.0762 -0.8868,0.13726 -1.97065,0.13578 l -1.97065,-0.003 z m 8.52313,6.68361 c -0.13826,-0.25835 -0.20896,-0.51215 -0.15712,-0.564 0.0519,-0.0519 0.20991,0.15953 0.35125,0.46972 0.31036,0.68118 0.15925,0.75457 -0.19413,0.0943 z m 1.63561,-0.14963 c -0.12128,-0.34064 -3.33444,-7.51099 -7.14035,-15.93411 -3.80591,-8.42313 -7.06429,-15.66949 -7.24085,-16.10303 -0.29066,-0.71372 -0.28839,-0.74692 0.024,-0.35109 0.18974,0.24045 0.34499,0.51189 0.34499,0.6032 0,0.0913 3.49101,7.2212 7.75781,15.8442 4.2668,8.623 7.8208,15.87663 7.89778,16.11918 0.12061,0.38001 0.0319,0.441 -0.64144,0.441 -0.64884,0 -0.81881,-0.10507 -1.00192,-0.61935 z m 3.36359,-0.78826 c -0.35532,-0.77418 -3.56132,-7.48847 -7.12444,-14.92064 -3.56312,-7.43216 -7.00959,-14.62785 -7.65882,-15.99042 -2.8513,-5.98415 -12.70063,-26.42416 -17.90651,-37.16083 -5.77497,-11.91039 -6.90437,-14.29245 -6.66441,-14.05616 0.074,0.0729 6.55307,11.6772 14.39789,25.78737 14.47621,26.03778 19.14232,34.40015 27.48022,49.24859 2.55691,4.55343 4.64892,8.32864 4.64892,8.38934 0,0.0607 -1.46853,0.11036 -3.2634,0.11036 h -3.26341 z m 7.77031,-0.45043 c -0.55146,-1.02193 -1.96204,-3.63163 -3.13463,-5.79934 -2.47872,-4.58229 -3.00016,-5.60253 -2.70505,-5.29261 0.15376,0.16148 5.86797,9.99574 7.42647,12.78108 0.052,0.0929 -0.0582,0.16891 -0.24481,0.16891 -0.19385,0 -0.7692,-0.79661 -1.34198,-1.85804 z m 1.59995,-0.90257 c -0.83527,-1.51647 -1.93731,-3.51732 -2.44897,-4.44634 -1.62847,-2.95679 -0.56962,-1.38371 2.00862,2.98413 1.37095,2.32255 2.37258,4.22206 2.22584,4.22112 -0.14675,-9.3e-4 -0.95022,-1.24244 -1.78549,-2.75891 z m -1.08067,-5.2909 c -2.5178,-4.42834 -4.77884,-8.40624 -5.02451,-8.83978 -0.24568,-0.43354 -0.3446,-0.68691 -0.21982,-0.56304 0.12478,0.12387 2.44085,3.87373 5.14682,8.33303 2.70597,4.4593 5.06483,8.33585 5.24191,8.61456 0.29421,0.46306 0.28367,0.50674 -0.1223,0.50674 -0.34856,0 -1.43047,-1.73453 -5.0221,-8.05151 z m 4.74433,4.39173 c -1.17051,-2.01288 -3.91755,-6.70021 -6.10454,-10.41629 -4.92039,-8.36061 -5.06379,-8.61026 -4.78691,-8.33304 0.12372,0.12387 1.42697,2.15082 2.8961,4.50434 1.46914,2.35352 4.57732,7.29924 6.90707,10.99048 2.32974,3.69124 4.2359,6.75701 4.2359,6.81282 0,0.0558 -0.22937,0.10147 -0.50971,0.10147 -0.42126,0 -0.87907,-0.63516 -2.63791,-3.65978 z m 4.93541,2.47739 c -0.40052,-0.65032 -3.51796,-5.74304 -6.92763,-11.31716 -5.06395,-8.27856 -25.16006,-40.96226 -26.72633,-43.46692 -0.23239,-0.37161 -0.31482,-0.57431 -0.18319,-0.45044 0.13163,0.12387 3.48404,5.08991 7.4498,11.03565 7.90936,11.85825 16.39613,24.49542 24.72106,36.81074 2.96798,4.39061 5.47737,8.11514 5.57643,8.27673 0.14187,0.23142 -0.17675,0.29379 -1.5009,0.29379 h -1.681 z m 4.64689,-0.0768 c -1.58273,-2.38377 -2.39436,-3.69561 -2.28646,-3.69561 0.0595,0 0.86507,1.11483 1.79018,2.47739 0.92512,1.36256 1.60335,2.47739 1.50718,2.47739 -0.0962,0 -0.55108,-0.56663 -1.0109,-1.25917 z m -6.24357,-13.32364 c -10.41892,-15.63107 -19.76727,-29.57834 -23.54898,-35.13388 -2.54864,-3.74411 -2.96774,-4.61173 -0.70713,-1.46392 2.96692,4.13132 28.62939,39.4034 32.77865,45.05299 2.39192,3.25682 4.34895,5.96787 4.34895,6.02456 0,0.0567 -0.70904,0.10306 -1.57565,0.10306 h -1.57564 z m 7.05585,4.27912 c -3.96562,-5.66702 -7.63894,-10.91177 -8.16293,-11.65499 -2.47013,-3.50355 0.46825,0.30551 8.20905,10.64152 8.0193,10.70786 8.44031,11.31716 7.81986,11.31716 -0.60957,0 -1.16354,-0.72564 -7.86598,-10.30369 z m 4.99149,3.03131 c -10.13119,-14.09022 -32.8135,-45.2605 -51.16751,-70.31494 -5.26306,-7.18443 -9.81692,-13.41732 -10.11968,-13.85086 -0.49473,-0.70844 -0.47375,-0.69807 0.2072,0.1024 0.41672,0.48986 5.91972,7.12813 12.22889,14.75172 20.87399,25.22275 55.6934,66.98053 62.12194,74.5008 l 1.78083,2.08326 -4.91789,-0.009 -4.9179,-0.009 z m 13.29981,3.82419 c -1.49957,-1.88151 -6.43336,-8.03226 -10.96396,-13.66832 -19.63892,-24.43076 -19.44621,-24.17525 -9.50691,-12.60499 3.34447,3.89327 10.33747,11.99851 15.53998,18.01164 5.20252,6.01313 9.59822,11.10777 9.76823,11.32141 0.28502,0.3582 0.21487,0.38739 -0.90087,0.37482 l -1.20997,-0.0136 z m 0.5104,-3.47724 c -3.15053,-3.80898 -7.82968,-9.45912 -10.39812,-12.55586 -5.80789,-7.0025 -5.18763,-6.38489 3.73203,3.71609 3.88308,4.39736 8.61562,9.74345 10.51675,11.8802 l 3.45659,3.885 h -0.78951 c -0.76124,0 -0.9947,-0.24806 -6.51774,-6.92543 z m 6.60557,4.40146 c -1.17552,-1.38818 -3.94502,-4.65664 -6.15445,-7.26325 -2.20943,-2.60661 -3.47627,-4.18188 -2.81521,-3.50059 1.78536,1.83997 11.89975,13.03448 11.89975,13.17053 0,0.0645 -0.17838,0.11728 -0.3964,0.11728 -0.22766,0 -1.30618,-1.07438 -2.53369,-2.52397 z m 3.69695,2.01723 -0.42904,-0.50674 0.50674,0.42904 c 0.47621,0.40319 0.60927,0.58444 0.42904,0.58444 -0.0427,0 -0.27077,-0.22803 -0.50674,-0.50674 z m -6.13761,-8.27673 c -4.22388,-4.83091 -7.63958,-8.78347 -7.59044,-8.78347 0.0817,0 13.12451,13.95705 15.40314,16.48282 0.93666,1.03825 0.95454,1.08412 0.42256,1.08412 -0.44973,0 -2.0176,-1.67225 -8.23526,-8.78347 z m 9.63775,7.93891 -0.77614,-0.84457 0.84457,0.77614 c 0.7861,0.72241 0.94812,0.91299 0.77614,0.91299 -0.0376,0 -0.41769,-0.38005 -0.84457,-0.84456 z m 2.22076,0.42805 c -0.58212,-0.82388 -25.49363,-28.19115 -47.5832,-52.27391 -13.83123,-15.07926 -14.25508,-15.56396 -8.6747,-9.91996 2.51071,2.53933 17.5949,17.66547 33.52044,33.61367 l 28.95551,28.99671 h -2.96188 c -2.62524,0 -2.99532,-0.0473 -3.25617,-0.41651 z m -4.60941,-11.57519 c -13.55362,-14.19474 -25.10674,-26.21921 -37.86913,-39.41412 -5.12184,-5.29542 -9.24299,-9.62804 -9.15811,-9.62804 0.0849,0 3.25977,3.01823 7.05532,6.70717 14.83556,14.41889 41.80341,40.27806 56.10583,53.79924 l 0.55792,0.52745 h -2.62087 -2.62088 z m 0.71107,-4.48904 c -9.04215,-9.06441 -15.83004,-15.93072 -15.0842,-15.25847 0.74584,0.67226 5.51877,5.12417 10.60651,9.89314 5.08773,4.76898 12.1471,11.35658 15.68748,14.63912 5.34042,4.95149 6.43988,6.07377 6.45369,6.5876 0.0142,0.52968 -0.0731,0.61935 -0.60328,0.61935 -0.521,0 -3.24344,-2.62997 -17.0602,-16.48074 z M -1.0735116,270.23097 c 0.0742258,-0.34022 5.5420922,-5.56185 7.3771441,-7.04493 l 0.8106965,-0.6552 -0.7882602,0.78195 c -4.1913184,4.15776 -7.4651164,7.21857 -7.3995804,6.91818 z M 263.69142,261.9832 c -4.61955,-4.5522 -14.68016,-14.40473 -22.35692,-21.89451 -15.59719,-15.21729 -21.31318,-20.86945 -18.79992,-18.59001 0.92902,0.8426 7.11123,6.4649 13.73824,12.49401 14.18504,12.90522 22.59824,20.52117 30.36082,27.48377 l 5.64961,5.06739 0.0122,1.85804 c 0.007,1.02192 -0.0367,1.85804 -0.0963,1.85804 -0.0597,0 -3.88812,-3.72453 -8.50766,-8.27673 z m -147.4238,7.60108 c 0,-0.30967 0.0511,-0.43636 0.1136,-0.28152 0.0625,0.15484 0.0625,0.40821 0,0.56304 -0.0625,0.15484 -0.1136,0.0282 -0.1136,-0.28152 z M -1.1060986,265.92856 v -3.48937 l 7.5952355,-6.61853 c 7.4176601,-6.46379 24.5074891,-21.44127 31.7051651,-27.78631 3.787903,-3.33919 33.532446,-29.60312 36.823011,-32.5141 1.74496,-1.54366 1.79478,-1.57302 0.563043,-0.33172 -0.743217,0.74899 -4.239714,4.13431 -7.769993,7.52295 -9.878886,9.48251 -17.567327,16.88423 -21.283025,20.48932 -1.858042,1.80273 -6.570712,6.35925 -10.472599,10.1256 -3.901888,3.76634 -8.76658,8.47997 -10.810426,10.47472 -9.860611,9.62374 -21.5396978,20.99079 -23.8167182,23.1804 l -2.5336934,2.43642 z M 269.60497,263.44709 c -1.4245,-1.36596 -1.98191,-1.96539 -1.2387,-1.33207 2.46841,2.10341 4.05529,3.59567 3.94131,3.70632 -0.0619,0.0601 -1.27811,-1.00828 -2.70261,-2.37425 z m -118.20347,1.63285 c 0,-0.30968 0.0511,-0.43636 0.1136,-0.28152 0.0625,0.15483 0.0625,0.4082 0,0.56304 -0.0625,0.15483 -0.1136,0.0281 -0.1136,-0.28152 z m 116.17651,-4.52658 c -11.15414,-10.57277 -39.23809,-36.85411 -56.53242,-52.90381 -8.91648,-8.27478 -9.53036,-8.92558 -3.71317,-3.93648 2.84899,2.44344 12.93309,11.09912 22.40911,19.23484 9.47601,8.13572 22.44852,19.23469 28.8278,24.66439 6.37927,5.42969 12.08541,10.28896 12.6803,10.79838 l 1.08161,0.92622 -0.0681,2.79639 -0.0681,2.79638 z m -268.6810462,-1.69573 0.00306,-2.22334 14.9175769,-12.42038 c 8.204667,-6.83121 20.745072,-17.31219 27.867565,-23.29107 18.555329,-15.57601 18.694077,-15.69116 17.451244,-14.4833 -0.621047,0.60357 -6.294402,5.7594 -12.607457,11.4574 -14.08474,12.71251 -29.29322,26.53131 -39.266636,35.67864 -4.130167,3.78807 -7.70267475,7.02645 -7.93890609,7.1964 -0.41444841,0.29815 -0.42940411,0.23101 -0.42644911,-1.91435 z m 46.8421142,1.40771 c 0,-0.0468 0.177358,-0.22412 0.39413,-0.39413 0.357207,-0.28014 0.365173,-0.27217 0.08503,0.085 -0.294217,0.37515 -0.479162,0.49446 -0.479162,0.30909 z m 155.850302,-1.94192 c -0.13259,-0.24774 -0.19039,-0.45043 -0.12846,-0.45043 0.0619,0 0.22109,0.20269 0.35367,0.45043 0.13259,0.24774 0.1904,0.45044 0.12846,0.45044 -0.0619,0 -0.22109,-0.2027 -0.35367,-0.45044 z m 65.84865,-4.20878 c -2.5862,-2.31484 -11.54316,-10.28721 -19.90435,-17.71639 -8.36118,-7.42919 -15.86092,-14.10425 -16.66607,-14.83349 -0.80515,-0.72923 3.04606,2.40757 8.55826,6.97066 9.23345,7.64362 27.39349,22.64027 31.24888,25.80547 l 1.63283,1.34052 v 1.321 c 0,0.72656 -0.0377,1.32101 -0.0837,1.32101 -0.046,0 -2.19967,-1.89395 -4.78587,-4.20878 z m -29.04704,2.80117 -0.42904,-0.50674 0.50674,0.42904 c 0.47621,0.40319 0.60927,0.58444 0.42904,0.58444 -0.0427,0 -0.27077,-0.22803 -0.50674,-0.50674 z m -76.19684,-1.20115 c 0.0108,-0.26237 0.0642,-0.31574 0.13607,-0.13607 0.0651,0.16258 0.0571,0.35683 -0.0178,0.43166 -0.0748,0.0748 -0.12807,-0.0582 -0.11829,-0.29559 z M -0.65566421,255.28299 c 0.29092328,-0.30967 0.57962529,-0.56304 0.64156002,-0.56304 0.06193472,0 -0.12541955,0.25337 -0.41634283,0.56304 -0.29092328,0.30967 -0.57962528,0.56304 -0.64155998,0.56304 -0.061935,0 0.1254195,-0.25337 0.41634279,-0.56304 z M 263.63671,247.3733 c -4.70704,-4.07808 -11.82671,-10.22972 -15.8215,-13.67031 -7.03965,-6.06302 -9.44193,-8.27422 -5.18,-4.76798 2.84378,2.33955 29.22221,23.61194 29.48832,23.7803 0.1173,0.0742 0.18135,0.57093 0.14235,1.10381 l -0.0709,0.96887 z m -264.7428086,4.45552 v -1.99025 l 8.7271663,-6.84209 C 18.719273,234.2955 39.567231,217.87923 48.329076,210.94185 c 13.714802,-10.85899 14.047631,-11.17657 -7.657385,7.30665 -8.918601,7.59477 -21.915918,18.70509 -28.882927,24.68962 -6.9670096,5.98453 -12.71849373,10.88096 -12.78107623,10.88096 -0.0625825,0 -0.11378637,-0.89562 -0.11378637,-1.99026 z M 270.15032,249.36089 c -1.12456,-0.95441 -11.81675,-9.88146 -23.76042,-19.8379 -19.12831,-15.94568 -25.09083,-20.97819 -21.60315,-18.23358 2.35458,1.85292 29.89918,23.17726 38.34322,29.68437 l 9.17761,7.07239 v 1.53515 c 0,0.84433 -0.0253,1.53059 -0.0563,1.52501 -0.031,-0.006 -0.9764,-0.79103 -2.10095,-1.74544 z M -1.1060986,248.77927 c 0,-0.0468 0.17735854,-0.22413 0.39413009,-0.39413 0.357207,-0.28014 0.365173,-0.27218 0.0850319,0.085 -0.29421693,0.37515 -0.47916203,0.49446 -0.47916203,0.3091 z m 0.00506,-5.70227 0.00506,-4.6853 4.3303746,-3.02843 c 13.5369742,-9.46704 51.4609682,-36.24376 66.0398862,-46.62831 2.725128,-1.94111 8.704644,-6.19731 13.287814,-9.45822 4.58317,-3.26092 8.687753,-6.18559 9.121297,-6.49928 2.538808,-1.83695 -1.792424,1.69834 -15.877813,12.95997 -23.720274,18.96495 -54.711565,43.94704 -73.7023266,59.41147 l -3.209345,2.61341 z M 264.42497,240.72237 c -4.27349,-3.46858 -15.62444,-12.59677 -25.22432,-20.28486 -9.59988,-7.6881 -17.65703,-14.17928 -17.90477,-14.42484 -0.24774,-0.24556 2.3873,1.67609 5.85565,4.27034 8.6289,6.45424 33.27109,24.76727 39.80032,29.57792 l 5.3421,3.93598 0.007,1.63283 c 0.004,0.89805 -0.0185,1.62524 -0.0495,1.61598 -0.031,-0.009 -3.5528,-2.85477 -7.8263,-6.32335 z m -102.45604,3.50621 c 0.0108,-0.26237 0.0642,-0.31573 0.13607,-0.13607 0.0651,0.16258 0.0571,0.35683 -0.0178,0.43167 -0.0748,0.0748 -0.12807,-0.0582 -0.11829,-0.2956 z m 12.73481,-1.34124 c -0.21732,-0.56636 -0.15321,-0.71249 0.11228,-0.25593 0.13146,0.22607 0.19157,0.45847 0.13359,0.51646 -0.058,0.058 -0.16863,-0.0593 -0.24587,-0.26053 z m 94.00036,-2.85816 c -4.9849,-3.90754 -31.0976,-24.07716 -43.63583,-33.7046 -5.85283,-4.49409 -10.64151,-8.21287 -10.64151,-8.26396 0,-0.0511 1.29218,0.83722 2.87152,1.97403 7.48835,5.39014 37.7437,26.87701 50.2189,35.66468 l 4.78134,3.36802 0.005,1.85804 c 0.002,1.02193 -0.0208,1.85403 -0.0518,1.84911 -0.031,-0.005 -1.62719,-1.24031 -3.54717,-2.74532 z m -86.90135,-2.14422 c -0.24575,-0.57431 -0.24019,-0.58756 0.0765,-0.18217 0.18782,0.24045 0.34149,0.51915 0.34149,0.61935 0,0.34231 -0.15277,0.1825 -0.41795,-0.43718 z m 86.2257,-3.47077 c -2.16772,-1.61194 -7.46314,-5.51569 -11.7676,-8.675 -4.30446,-3.15932 -7.8263,-5.79207 -7.8263,-5.85056 0,-0.0585 1.19084,0.71652 2.64631,1.72224 1.45546,1.00572 6.82454,4.6861 11.93129,8.17862 8.41542,5.75534 9.28548,6.40804 9.29021,6.96939 0.003,0.34064 -0.0708,0.61186 -0.1637,0.60272 -0.0929,-0.009 -1.9425,-1.33548 -4.11021,-2.94741 z m -269.0918396,1.91027 c 0.0696479,-0.82556 0.11632733,-0.86024 12.9618446,-9.62804 7.090569,-4.83971 14.260922,-9.73955 15.934116,-10.88852 1.673195,-1.14897 3.042172,-2.04844 3.042172,-1.99881 0,0.0496 -1.444205,1.13818 -3.209345,2.41901 -1.76514,1.28082 -8.915845,6.5129 -15.890457,11.62684 -6.9746114,5.11394 -12.73221336,9.29807 -12.7946709,9.29807 -0.062458,0 -0.082105,-0.37285 -0.04366,-0.82855 z M 264.02099,228.62091 c -11.40274,-8.12791 -11.33046,-8.14731 0.58777,-0.15775 5.4411,3.64752 7.69882,5.28216 7.69882,5.57412 0,0.22722 -0.0253,0.41243 -0.0563,0.41159 -0.031,-8.5e-4 -3.73459,-2.62343 -8.23028,-5.82796 z m -265.1270886,4.69582 v -0.90845 l 2.9841278,-1.94986 C 3.5192995,229.386 11.601782,224.06078 19.8391,218.62459 c 8.237319,-5.43619 14.824922,-9.73804 14.639118,-9.55967 -0.185804,0.17836 -3.682301,2.68619 -7.769993,5.57294 -4.087692,2.88675 -11.957155,8.47484 -17.4876954,12.41798 -5.5305404,3.94314 -10.1165255,7.16934 -10.19107807,7.16934 -0.0745525,0 -0.13555013,-0.4088 -0.13555013,-0.90845 z M 149.15768,232.76127 c 0.005,-0.37161 0.0551,-0.49636 0.11216,-0.27723 0.0571,0.21912 0.0534,0.52317 -0.008,0.67565 -0.0617,0.15248 -0.10841,-0.0268 -0.10382,-0.39842 z M -1.1060986,229.72603 c 0,-1.15051 0.073632,-1.39285 0.50673869,-1.66778 0.27870627,-0.17692 6.68895071,-4.21621 14.24498791,-8.9762 11.265906,-7.09706 28.058006,-17.72572 33.613666,-21.27596 0.650315,-0.41557 1.18239,-0.70854 1.18239,-0.65104 0,0.0575 -2.052291,1.49748 -4.560648,3.19994 -6.037785,4.09796 -25.384005,17.3668 -36.1343303,24.78318 -4.7308405,3.26368 -8.65806534,5.93397 -8.72716626,5.93397 -0.0691009,0 -0.12563804,-0.60575 -0.12563804,-1.34611 z M 260.99661,222.21355 c -6.03523,-4.10831 -13.66165,-9.28002 -16.9476,-11.4927 -3.28595,-2.21267 -5.97445,-4.07393 -5.97445,-4.13612 0,-0.0622 0.22803,0.0359 0.50674,0.21804 1.1518,0.7526 16.441,10.3798 24.77389,15.59947 l 8.95239,5.6077 v 0.85545 c 0,0.4705 -0.076,0.84698 -0.16892,0.83663 -0.0929,-0.0104 -5.10683,-3.38016 -11.14205,-7.48847 z m -21.14904,4.63577 c -0.28014,-0.35721 -0.27217,-0.36517 0.085,-0.085 0.21678,0.17 0.39413,0.34736 0.39413,0.39413 0,0.18536 -0.18494,0.066 -0.47916,-0.3091 z M -0.67778362,226.59234 c 0.74206115,-0.57052 4.30124612,-2.74677 4.30124612,-2.62998 0,0.13351 -4.48551358,3.05694 -4.6810386,3.05086 -0.088622,-0.003 0.0822845,-0.19215 0.37979248,-0.42088 z M 267.05595,222.28044 c -2.82647,-1.82909 -5.20814,-3.40253 -5.29261,-3.49654 -0.20684,-0.23019 -0.37323,-0.32849 5.36424,3.16914 5.75087,3.50579 5.25128,3.1715 5.14715,3.44416 -0.0439,0.11487 -2.39232,-1.28767 -5.21878,-3.11676 z M -1.1060986,222.5645 v -2.92901 l 10.6415124,-6.02845 c 16.2385252,-9.19918 67.0528162,-38.2369 69.0853742,-39.4787 0.309674,-0.1892 0.461696,-0.23527 0.337826,-0.10238 -0.123869,0.13289 -4.988561,3.27551 -10.810425,6.9836 -17.263486,10.99554 -61.6391953,39.49436 -68.66205807,44.09591 l -0.59222953,0.38805 z M 268.13851,219.11321 c -2.22825,-1.37489 -7.59853,-4.68189 -11.93396,-7.34889 -4.33543,-2.66699 -7.98395,-4.95582 -8.10782,-5.08628 -0.12387,-0.13046 0.0281,-0.0829 0.33782,0.10567 0.30968,0.18858 5.22504,3.00746 10.92304,6.26416 13.74612,7.85664 12.94999,7.36369 12.94999,8.01841 0,0.30071 -0.0265,0.54674 -0.0589,0.54674 -0.0324,0 -1.88197,-1.12491 -4.11021,-2.49981 z m -6.75397,-6.88087 c -5.94573,-3.53864 -15.01635,-8.92046 -20.15694,-11.9596 -5.14058,-3.03914 -9.44786,-5.62727 -9.57173,-5.7514 -0.27836,-0.27893 -1.11182,-0.72361 7.31956,3.9052 3.90189,2.14212 12.91548,7.06861 20.0302,10.94776 7.11472,3.87914 13.02473,7.14185 13.13334,7.25047 0.10862,0.10862 0.16566,0.61238 0.12675,1.11948 l -0.0707,0.92198 z m -262.4906386,4.99844 c 0,-0.94538 0.055869,-1.03585 0.95717307,-1.54988 0.5264452,-0.30024 9.31836143,-5.08261 19.53759153,-10.62749 10.21923,-5.54488 19.137831,-10.38735 19.819113,-10.76105 2.649776,-1.45343 0.582291,-0.10005 -3.378258,2.21142 -5.494615,3.20679 -34.7838217,20.52302 -35.86136243,21.20179 -0.46204895,0.29106 -0.89277683,0.52919 -0.95717308,0.52919 -0.0643963,0 -0.11708409,-0.45179 -0.11708409,-1.00398 z M 269.71758,213.76299 c -5.8462,-3.38749 -51.75147,-29.41454 -57.83616,-32.79154 -0.84252,-0.4676 -1.48872,-0.89332 -1.43599,-0.94605 0.0527,-0.0527 0.43802,0.0983 0.85621,0.33559 0.69456,0.39412 12.03351,6.20667 26.5477,13.60881 3.15868,1.61091 6.85787,3.51 8.22043,4.22021 1.36257,0.71021 7.82348,4.00073 14.3576,7.31225 l 11.88021,6.02096 v 1.77925 c 0,0.97859 -0.076,1.77616 -0.16892,1.77238 -0.0929,-0.004 -1.18239,-0.59412 -2.42108,-1.31186 z m -270.7919815,0.78233 c 0.050371,-0.24605 1.39856041,-1.09515 3.571778,-2.24953 11.0689575,-5.87967 12.1392335,-6.30938 3.1530407,-1.26593 -3.1586711,1.77278 -5.98214409,3.37792 -6.27438435,3.56697 -0.48867215,0.31612 -0.52484775,0.31198 -0.45043435,-0.0515 z m 119.5764115,-2.5228 c 0.0108,-0.26236 0.0642,-0.31573 0.13607,-0.13607 0.0651,0.16258 0.0571,0.35683 -0.0178,0.43167 -0.0748,0.0748 -0.12807,-0.0582 -0.11829,-0.2956 z M -1.1060986,210.34813 c 0,-0.39513 1.43119882,-1.17501 8.9523835,-4.87827 4.9238111,-2.42437 9.0283941,-4.45193 9.1212961,-4.50568 0.0929,-0.0538 0.168913,-0.0425 0.168913,0.0249 0,0.0675 -0.633423,0.44202 -1.407607,0.83235 -0.774184,0.39032 -4.650735,2.4545 -8.614558,4.58707 -3.9638226,2.13256 -7.43498264,3.9972 -7.71368891,4.14365 -0.44873789,0.23579 -0.50673869,0.21243 -0.50673869,-0.20405 z M 223.1815,210.18325 c -0.28014,-0.35721 -0.27218,-0.36518 0.085,-0.085 0.21677,0.17 0.39413,0.34736 0.39413,0.39413 0,0.18536 -0.18494,0.0661 -0.47916,-0.3091 z m 36.73913,-6.6025 c -6.75089,-3.59447 -16.63229,-8.82839 -21.95868,-11.63093 -5.32638,-2.80254 -9.78568,-5.18529 -9.90955,-5.29499 -0.24459,-0.2166 3.84338,1.73262 13.1752,6.28218 3.28254,1.60035 11.61839,5.63615 18.52412,8.96844 l 12.55586,6.05873 v 1.08138 c 0,0.59476 -0.0253,1.07895 -0.0563,1.07598 -0.031,-0.003 -5.57975,-2.94633 -12.33064,-6.54079 z m -261.0267286,4.64231 c 0,-0.25257 1.09548431,-0.89505 3.4908665,-2.04731 1.9199766,-0.92358 5.0617565,-2.43489 6.981733,-3.35847 1.9199771,-0.92358 3.4908661,-1.64117 3.4908661,-1.59464 0,0.0465 -2.407008,1.32308 -5.3489079,2.83678 -2.9418996,1.51371 -6.0836795,3.15258 -6.98173304,3.64195 -1.2982429,0.70744 -1.63282466,0.81434 -1.63282466,0.52169 z m 0.00764,-2.99459 0.00764,-1.06978 13.1112605,-5.95562 c 7.211193,-3.2756 17.362482,-7.90919 22.558419,-10.29689 5.195937,-2.38769 9.469399,-4.31898 9.496583,-4.29176 0.06407,0.0642 -44.84494007,22.68383 -45.03640236,22.68383 -0.0798282,0 -0.14170374,-0.4814 -0.13750114,-1.06978 z m 61.4766535,0.0839 c 0,-0.0468 0.177358,-0.22413 0.39413,-0.39413 0.357207,-0.28014 0.365173,-0.27218 0.08503,0.085 -0.294217,0.37516 -0.479162,0.49446 -0.479162,0.3091 z m -61.4361459,-5.69976 0.0644599,-2.18133 6.30608141,-2.56129 C 16.547174,190.30692 50.292872,176.49501 61.26203,171.97021 c 5.874431,-2.42322 10.706252,-4.38038 10.73738,-4.34925 0.03113,0.0311 -3.204333,1.56755 -7.189916,3.41426 -9.239629,4.28117 -39.669146,18.51749 -54.366526,25.43515 -6.2207632,2.92795 -11.36783093,5.32354 -11.43792818,5.32354 -0.0700972,0 -0.0984426,-0.9816 -0.0629897,-2.18132 z M 260.8215,196.49266 c -6.13154,-2.89656 -15.42813,-7.26563 -20.65909,-9.70907 -5.23097,-2.44343 -9.48292,-4.47053 -9.44878,-4.50467 0.0341,-0.0341 6.18895,2.55166 13.67736,5.74621 7.48841,3.19455 16.83162,7.16866 20.76269,8.83135 l 7.1474,3.02308 0.003,0.95717 c 0.002,0.52645 -0.0728,0.94935 -0.16567,0.93978 -0.0929,-0.01 -5.18562,-2.3873 -11.31716,-5.28385 z m 6.41869,-0.48605 c -4.8303,-2.17969 -33.1691,-14.72601 -38.57274,-17.07715 -1.64363,-0.71515 -2.95699,-1.33171 -2.91858,-1.37012 0.0384,-0.0384 7.66677,2.95165 16.95189,6.64459 9.28512,3.69294 19.71978,7.83525 23.18813,9.20513 l 6.30608,2.49068 0.0681,1.14535 c 0.0374,0.62994 -0.0132,1.13418 -0.11261,1.12055 -0.0994,-0.0136 -2.30898,-0.9852 -4.91024,-2.15903 z m -268.2959926,-3.89466 0.0623126,-3.42867 15.31476901,-5.27301 c 21.676425,-7.46337 39.420366,-13.60885 57.750138,-20.00129 8.722857,-3.04207 15.895594,-5.49518 15.939416,-5.45136 0.04382,0.0438 -1.164219,0.59222 -2.684534,1.21865 -9.273101,3.82093 -57.380301,24.03719 -75.9597981,31.92086 -5.4502561,2.31266 -10.03894491,4.25853 -10.19708628,4.32417 -0.22741502,0.0944 -0.27450192,-0.59751 -0.22521722,-3.30935 z m 231.7975426,1.89954 c -0.41981,-0.33634 -0.41704,-0.3405 0.0696,-0.10469 0.2787,0.13507 0.50674,0.29268 0.50674,0.35026 0,0.17234 -0.1168,0.12257 -0.57631,-0.24557 z M 40.559082,193.58933 c 0,-0.0619 0.202696,-0.22109 0.450435,-0.35368 0.247739,-0.13258 0.450434,-0.19039 0.450434,-0.12845 0,0.0619 -0.202695,0.22109 -0.450434,0.35367 -0.247739,0.13259 -0.450435,0.19039 -0.450435,0.12846 z m 213.055468,-8.13526 c -10.21923,-4.13202 -29.90252,-12.04773 -43.74064,-17.59048 -13.83812,-5.54274 -25.12901,-10.10892 -25.09086,-10.14707 0.0381,-0.0381 4.67129,1.61302 10.29588,3.66925 22.29361,8.15004 48.31673,17.5364 67.68556,24.4137 4.97054,1.7649 9.1555,3.28192 9.29992,3.37118 0.17425,0.1077 0.24037,0.77345 0.19657,1.97923 l -0.066,1.81695 z m 12.83738,1.2173 c -11.85494,-4.62398 -28.85498,-11.22424 -32.71281,-12.70074 -2.19869,-0.8415 -3.96984,-1.55779 -3.93587,-1.59175 0.034,-0.034 4.77197,1.48577 10.52891,3.37717 5.75695,1.89141 15.28119,4.99648 21.16499,6.90016 5.8838,1.90368 10.7283,3.48019 10.76555,3.50336 0.0373,0.0232 0.0373,0.65182 0,1.39699 l -0.0677,1.35486 z M -1.0657263,185.55912 c 0.063304,-0.4151 1.33602403,-0.87595 10.292213,-3.72677 5.6209873,-1.7892 10.2510443,-3.22202 10.2890163,-3.18405 0.03797,0.038 -3.446193,1.30558 -7.742588,2.81691 -4.2963947,1.51133 -8.9589582,3.1573 -10.3612521,3.65772 -2.4228031,0.8646 -2.5460323,0.8863 -2.4773892,0.43619 z M 264.19976,181.92691 c -4.2735,-1.48361 -17.80342,-6.12161 -30.0665,-10.30667 -32.81705,-11.1996 -34.24881,-11.69163 -34.05969,-11.70473 0.0953,-0.007 6.17619,1.70366 13.51303,3.80058 19.82632,5.6665 58.26217,16.45697 58.62002,16.45697 0.0555,0 0.10096,1.01347 0.10096,2.25217 0,1.23869 -0.076,2.24024 -0.16892,2.22566 -0.0929,-0.0146 -3.66541,-1.24037 -7.9389,-2.72398 z m -265.3058586,0.0615 c 0,-0.35172 0.36190666,-0.54585 1.85804185,-0.99665 4.01584235,-1.21 21.47800775,-6.28588 21.90237175,-6.36654 0.247739,-0.0471 -4.870321,1.68616 -11.373468,3.85166 -6.5031464,2.16551 -11.95058729,3.93977 -12.10542411,3.94281 -0.15483682,0.003 -0.28152149,-0.19103 -0.28152149,-0.43128 z M 209.41567,179.5938 c -0.84196,-0.45677 -0.79071,-0.64701 0.0563,-0.209 0.37161,0.19216 0.67565,0.39746 0.67565,0.45621 0,0.14493 -0.0242,0.13676 -0.73196,-0.24721 z m 55.45974,-1.92962 c -12.97325,-4.09123 -52.52316,-16.22313 -63.45702,-19.46539 -4.32213,-1.28165 -1.62504,-0.69746 7.28526,1.578 5.06769,1.29415 21.45171,5.41192 36.40895,9.1506 l 27.19498,6.7976 v 2.11143 c 0,1.16128 -0.076,2.10098 -0.16892,2.08822 -0.0929,-0.0128 -3.36136,-1.02997 -7.26325,-2.26046 z M -1.1060986,177.18727 v -1.18405 l 12.3306416,-3.09007 c 6.781853,-1.69954 18.552477,-4.66582 26.156943,-6.59173 7.604466,-1.92591 13.856508,-3.47146 13.893427,-3.43454 0.03692,0.0369 -2.992464,0.96502 -6.731961,2.06245 -3.739496,1.09743 -15.448104,4.56633 -26.019128,7.70866 -10.5710233,3.14233 -19.31226563,5.71333 -19.42498262,5.71333 -0.11271698,0 -0.20493998,-0.53282 -0.20493998,-1.18405 z m 225.8928486,0.058 c -0.18581,-0.12007 -0.23648,-0.21832 -0.11261,-0.21832 0.12387,0 0.37724,0.0983 0.56304,0.21832 0.18581,0.12008 0.23648,0.21832 0.11261,0.21832 -0.12387,0 -0.37724,-0.0982 -0.56304,-0.21832 z m 43.12909,-4.40072 c -1.98191,-0.53916 -10.82082,-2.88124 -19.64202,-5.20462 -8.8212,-2.32338 -16.00478,-4.2581 -15.96351,-4.29937 0.0413,-0.0413 2.95134,0.58244 6.46682,1.38603 3.51548,0.80359 12.32062,2.78611 19.56698,4.4056 7.24636,1.61948 13.35256,2.99945 13.56934,3.06659 0.2751,0.0852 0.39413,0.35553 0.39413,0.89515 0,0.59416 -0.0912,0.7682 -0.39413,0.75199 -0.21678,-0.0116 -2.0157,-0.46222 -3.99761,-1.00137 z M -1.1060986,172.55526 c 0,-0.73685 0.087965,-0.91369 0.50673869,-1.01872 0.27870627,-0.0699 5.11806071,-1.13908 10.75412091,-2.37596 5.63606,-1.23688 14.643791,-3.2214 20.017178,-4.41005 9.535907,-2.10944 12.847125,-2.70004 7.07291,-1.26154 -2.789601,0.69496 -12.345661,3.16676 -29.3422598,7.58976 -4.5212352,1.17656 -8.39778616,2.19071 -8.61455771,2.25367 -0.32827019,0.0953 -0.39413009,-0.0345 -0.39413009,-0.77716 z m 0.11260859,-2.67765 c 0.24827216,-0.24122 5.25275841,-1.30555 5.40813771,-1.15017 0.082155,0.0822 -0.9362792,0.33217 -5.07031191,1.24471 -0.36684909,0.081 -0.48456539,0.048 -0.3378258,-0.0945 z M 267.12758,168.55501 c -2.78706,-0.65793 -6.32666,-1.47423 -7.86576,-1.81398 -1.53911,-0.33976 -2.70461,-0.64885 -2.59,-0.68687 0.25372,-0.0842 15.39167,2.98932 15.56193,3.15957 0.53718,0.53718 -0.73604,0.37293 -5.10617,-0.65872 z M 4.9325374,168.53313 c 0.1625787,-0.0651 0.3568285,-0.0571 0.4316663,0.0178 0.074838,0.0748 -0.058181,0.12807 -0.2955976,0.11829 -0.2623651,-0.0108 -0.3157318,-0.0642 -0.1360687,-0.13607 z m -6.038636,-0.94814 c 0,-0.38486 0.041495,-0.69975 0.092212,-0.69975 0.12062546,0 20.7053774,-3.80784 26.9012504,-4.97629 2.645263,-0.49886 4.843196,-0.87339 4.884294,-0.83229 0.0411,0.0411 -6.987899,1.63525 -15.619994,3.54257 -8.6320959,1.90732 -15.82140429,3.51232 -15.97624111,3.56668 -0.18601659,0.0653 -0.28152149,-0.13856 -0.28152149,-0.60092 z M 268.47888,166.09024 c -1.91997,-0.41616 -11.19329,-2.3845 -20.60737,-4.37409 -24.3015,-5.13593 -24.38467,-5.16377 -5.85565,-1.95988 6.81282,1.17801 16.41552,2.82741 21.33933,3.66532 l 8.95239,1.52347 v 0.97009 c 0,0.53355 -0.076,0.96146 -0.16892,0.95091 -0.0929,-0.0105 -1.7398,-0.35967 -3.65978,-0.77582 z m -12.65439,-0.25971 c 0.16258,-0.0651 0.35683,-0.0571 0.43167,0.0178 0.0748,0.0748 -0.0582,0.12806 -0.2956,0.11828 -0.26236,-0.0108 -0.31573,-0.0642 -0.13607,-0.13606 z m -24.32345,-2.70261 c 0.16257,-0.0651 0.35682,-0.0571 0.43166,0.0178 0.0748,0.0748 -0.0582,0.12807 -0.2956,0.11829 -0.26236,-0.0108 -0.31573,-0.0642 -0.13606,-0.13607 z M 40.516854,162.45227 c 0.162579,-0.0651 0.356829,-0.0571 0.431666,0.0178 0.07484,0.0748 -0.05818,0.12807 -0.295597,0.11829 -0.262365,-0.0108 -0.315732,-0.0642 -0.136069,-0.13607 z m 230.622406,-1.12609 c 0.16258,-0.0651 0.35683,-0.0571 0.43167,0.0178 0.0748,0.0748 -0.0582,0.12807 -0.2956,0.11829 -0.26237,-0.0108 -0.31573,-0.0642 -0.13607,-0.13607 z M -1.1060986,160.43132 c 0,-0.51006 0.10609901,-0.75303 0.32883413,-0.75303 0.18085878,0 7.50323277,-0.95972 16.27194247,-2.13271 23.064801,-3.08537 23.191157,-3.08197 4.231814,0.11416 -7.432168,1.2529 -15.1599325,2.55848 -17.1728112,2.9013 l -3.6597794,0.62331 z M 264.98802,158.77245 c -7.36791,-1.22116 -26.38273,-4.27476 -30.24087,-4.8564 -1.39653,-0.21053 -2.50023,-0.4217 -2.45267,-0.46926 0.0476,-0.0476 4.94005,0.52127 10.87219,1.26407 5.93214,0.74281 14.58624,1.80762 19.23135,2.36624 10.9328,1.3148 9.90956,1.10329 9.90956,2.04836 0,0.6001 -0.0901,0.7725 -0.39413,0.75377 -0.21678,-0.0134 -3.33322,-0.51141 -6.92543,-1.10678 z m -266.0941186,-1.8315 v -0.76154 L 15.503669,154.4045 c 9.135373,-0.9762 17.116507,-1.80842 17.735855,-1.84937 0.619347,-0.041 -6.373647,1.02652 -15.539987,2.37217 -9.1663397,1.34566 -17.14747401,2.52057 -17.73585393,2.61092 l -1.06978167,0.16426 z m 184.9033186,0.48517 c -0.18581,-0.12007 -0.23648,-0.21832 -0.11261,-0.21832 0.12387,0 0.37724,0.0983 0.56304,0.21832 0.18581,0.12008 0.23648,0.21832 0.11261,0.21832 -0.12387,0 -0.37724,-0.0982 -0.56304,-0.21832 z m 43.41061,-0.14916 c 0.15484,-0.0625 0.40821,-0.0625 0.56305,0 0.15483,0.0625 0.0281,0.1136 -0.28153,0.1136 -0.30967,0 -0.43635,-0.0511 -0.28152,-0.1136 z m 42.39714,-1.21701 c -0.68128,-0.10183 -7.26889,-0.99947 -14.63912,-1.99476 -15.06265,-2.03407 -20.06014,-2.74844 -18.24259,-2.6077 2.20973,0.17111 34.09766,3.27949 34.85236,3.39735 0.63485,0.0991 0.73196,0.20258 0.73196,0.77975 0,0.60625 -0.0651,0.663 -0.73196,0.63798 -0.40258,-0.0151 -1.28937,-0.11078 -1.97065,-0.21262 z M 34.196697,155.02479 c 0.154836,-0.0625 0.408206,-0.0625 0.563043,0 0.154836,0.0625 0.02815,0.1136 -0.281522,0.1136 -0.309673,0 -0.436358,-0.0511 -0.281521,-0.1136 z m -35.3027956,-0.91465 c 0,-0.40023 0.62361125,-0.48314 9.6917801,-1.28859 5.3304795,-0.47346 9.7559975,-0.79662 9.8344845,-0.71813 0.07849,0.0785 -0.134719,0.14271 -0.47379,0.14271 -0.585792,0 -16.4274857,1.87815 -18.20791012,2.15869 -0.72620186,0.11442 -0.84456448,0.0731 -0.84456448,-0.29468 z M 34.75974,152.31609 c 0.216771,-0.0566 0.571488,-0.0566 0.78826,0 0.216771,0.0566 0.03941,0.103 -0.39413,0.103 -0.433543,0 -0.610902,-0.0464 -0.39413,-0.103 z m -35.8202811,-1.70279 0.0670511,-1.40761 3.15304071,-0.16947 c 9.3695153,-0.50361 47.4174983,-2.69114 52.2102643,-3.00178 3.074667,-0.19928 5.633873,-0.31876 5.687123,-0.26551 0.05325,0.0532 -1.19554,0.2188 -2.77509,0.36789 -3.433231,0.32405 -47.275855,4.81187 -53.1685904,5.44245 -5.7843011,0.61897 -5.254013,0.71797 -5.1737987,-0.96597 z m 20.0550771,1.25236 c 0.216772,-0.0566 0.571489,-0.0566 0.78826,0 0.216772,0.0567 0.03941,0.103 -0.39413,0.103 -0.433543,0 -0.610902,-0.0463 -0.39413,-0.103 z m 238.899144,-1.33198 c -7.49411,-0.78567 -25.33131,-2.59908 -39.63823,-4.02981 -14.30692,-1.43072 -26.16461,-2.6443 -26.35041,-2.69684 -0.18581,-0.0525 0.5743,-0.0464 1.68913,0.0137 4.62426,0.24912 37.83665,1.70382 55.96647,2.45133 10.71471,0.44177 20.21606,0.86049 21.11411,0.93049 l 1.63283,0.12726 v 2.34556 c 0,2.09492 -0.0421,2.34243 -0.39413,2.3162 -0.21678,-0.0161 -6.52567,-0.67219 -14.01977,-1.45786 z M -0.92310963,147.58793 c 0.16257866,-0.0651 0.35682849,-0.0571 0.43166629,0.0178 0.0748378,0.0748 -0.0581811,0.12807 -0.29559757,0.11829 -0.26236519,-0.0108 -0.31573189,-0.0642 -0.13606872,-0.13607 z M 1.089769,147.36741 c 0.1548369,-0.0625 0.4082062,-0.0625 0.563043,0 0.1548369,0.0625 0.028152,0.11359 -0.2815215,0.11359 -0.3096736,0 -0.43635828,-0.0511 -0.2815215,-0.11359 z m -2.1958676,-3.21919 c 0,-0.14563 0.75791035,-0.23513 1.99114657,-0.23513 1.09513063,0 3.55281323,-0.0447 5.46151693,-0.0993 2.9922566,-0.0856 3.1600881,-0.074 1.2181985,0.0848 -4.5783847,0.37432 -8.670862,0.49216 -8.670862,0.24968 z m 269.6975886,-0.2517 c -7.2967,-0.37498 -43.78475,-1.96457 -61.5969,-2.68346 -6.25541,-0.25246 -11.67751,-0.49212 -12.04912,-0.53258 -0.37161,-0.0405 1.90872,-0.0904 5.06739,-0.11107 3.15867,-0.0206 8.83414,-0.0895 12.61216,-0.15311 3.77802,-0.0636 15.33166,-0.21385 25.67476,-0.33393 10.3431,-0.12008 22.22612,-0.28415 26.40672,-0.3646 l 7.60108,-0.14627 v 2.2834 c 0,1.25587 -0.076,2.26807 -0.16892,2.24932 -0.0929,-0.0188 -1.68913,-0.11221 -3.54717,-0.2077 z M -1.1060986,137.61675 v -2.25617 l 1.63282466,0.1147 c 2.40866854,0.1692 45.36247994,2.03582 62.10364094,2.6988 15.332042,0.60718 15.212521,0.67153 -1.57652,0.84873 -22.438507,0.23683 -48.642062,0.57582 -55.9101685,0.7233 l -6.2497771,0.12682 z m 79.8957996,-1.96064 c 0.154837,-0.0625 0.408206,-0.0625 0.563043,0 0.154837,0.0625 0.02815,0.1136 -0.281521,0.1136 -0.309674,0 -0.436359,-0.0511 -0.281522,-0.1136 z m 184.509189,-0.0615 c 3.08616,-0.34414 9.00869,-0.50999 9.00869,-0.25228 0,0.15524 -1.07455,0.23813 -3.09674,0.23889 -1.70321,6.4e-4 -4.11021,0.0463 -5.34891,0.10145 -2.1388,0.0952 -2.16715,0.0908 -0.56304,-0.0881 z M 67.922972,135.22398 c -6.742263,-0.34044 -37.270323,-1.68257 -53.151258,-2.33673 -5.9457343,-0.24492 -11.9505878,-0.50934 -13.3441192,-0.5876 l -2.5336934,-0.14229 v -2.3637 -2.36369 l 1.06978167,0.13647 c 1.87852163,0.23964 31.18420993,3.22358 54.33364793,5.53231 12.325011,1.2292 22.763828,2.27412 23.197371,2.32206 1.807044,0.1998 -4.137309,0.0776 -9.57173,-0.19683 z m 143.238138,-1.5727 c 0.24774,-0.0548 5.51782,-0.60916 11.71129,-1.23194 17.8451,-1.79441 48.13646,-4.928 48.81583,-5.04992 l 0.61935,-0.11114 v 1.44807 1.44808 l -0.73196,0.11135 c -0.40258,0.0613 -6.55945,0.42485 -13.68194,0.80801 -7.1225,0.38316 -16.29447,0.89282 -20.38216,1.13258 -8.33872,0.4891 -22.25641,1.29359 -24.99911,1.44504 -0.99096,0.0547 -1.59904,0.0547 -1.3513,-1.3e-4 z m 60.30619,-1.83077 c 0.21913,-0.0571 0.52317,-0.0534 0.67565,0.008 0.15248,0.0617 -0.0268,0.10841 -0.39842,0.10382 -0.37161,-0.005 -0.49636,-0.0551 -0.27723,-0.11216 z M 32.789089,127.90242 C 31.922003,127.79955 24.472944,127.05578 16.235625,126.2496 7.9983065,125.44343 0.72660632,124.72266 0.07629167,124.64791 -1.0775375,124.51528 -1.1060986,124.49446 -1.1060986,123.78575 v -0.72625 l 15.2584646,2.06236 c 20.597407,2.78397 21.910705,2.9696 21.001504,2.96852 -0.433543,-5.1e-4 -1.497695,-0.0851 -2.364781,-0.18796 z m 218.408661,-0.36104 c 0.21913,-0.0571 0.52317,-0.0534 0.67565,0.008 0.15248,0.0617 -0.0268,0.10842 -0.39841,0.10383 -0.37161,-0.005 -0.49637,-0.0551 -0.27724,-0.11217 z m 10.86244,-1.31623 c 5.32639,-0.66133 9.81103,-1.20869 9.96586,-1.21636 0.15484,-0.008 0.28153,0.17421 0.28153,0.40418 0,0.36613 -0.25901,0.43723 -2.08326,0.57182 -1.1458,0.0845 -5.36862,0.45379 -9.38406,0.82057 -4.01544,0.36678 -7.56261,0.65682 -7.88261,0.64454 -0.31999,-0.0123 3.77616,-0.56342 9.10254,-1.22475 z m -26.63193,0.86662 c 0.21677,-0.0566 0.57149,-0.0566 0.78826,0 0.21677,0.0567 0.0394,0.103 -0.39413,0.103 -0.43354,0 -0.6109,-0.0464 -0.39413,-0.103 z m 1.74543,-0.22994 c 0.44176,-0.0774 30.06046,-4.36364 34.17671,-4.94586 0.95032,-0.13442 0.95718,-0.13036 0.95718,0.56658 0,0.8444 0.14307,0.80319 -4.39174,1.26498 -1.85804,0.18921 -9.48031,1.00332 -16.93838,1.80914 -11.90143,1.28591 -15.7961,1.65416 -13.80377,1.30516 z M 38.475823,125.97177 c 0.154837,-0.0625 0.408207,-0.0625 0.563043,0 0.154837,0.0625 0.02815,0.1136 -0.281521,0.1136 -0.309674,0 -0.436358,-0.0511 -0.281522,-0.1136 z m -2.308476,-0.19708 c -0.123869,-0.047 -8.181014,-1.05326 -17.904767,-2.23613 -9.7237522,-1.18287 -18.05960366,-2.20947 -18.52411412,-2.28134 -0.78539838,-0.1215 -0.84456448,-0.18449 -0.84456448,-0.89912 0,-0.42266 0.083322,-0.76847 0.18516095,-0.76847 0.21874365,0 34.46146765,5.48642 37.08828465,5.94234 1.016744,0.17647 1.458303,0.31608 1.013477,0.32045 -0.433543,0.004 -0.889607,-0.0307 -1.013477,-0.0777 z m 200.049173,-1.37944 c 0.15484,-0.0625 0.40821,-0.0625 0.56304,0 0.15484,0.0625 0.0282,0.1136 -0.28152,0.1136 -0.30967,0 -0.43636,-0.0511 -0.28152,-0.1136 z m 1.295,-0.17996 c 0.12387,-0.0594 2.4,-0.4684 5.05806,-0.90893 8.33685,-1.38167 28.70099,-4.85837 29.23126,-4.99055 0.45048,-0.11229 0.50674,-0.0418 0.50674,0.63502 v 0.76133 l -3.99761,0.5198 c -2.19868,0.28589 -9.57173,1.26912 -16.38455,2.18496 -13.13932,1.7663 -14.77182,1.96998 -14.4139,1.79837 z M 74.003836,117.89948 C 60.725284,113.47802 24.272357,101.51498 5.5378086,95.430459 L -0.99349001,93.309253 -1.0569416,90.68424 c -0.034898,-1.443757 0.018087,-2.625013 0.11774579,-2.625013 0.0996586,0 0.98966762,0.312495 1.97779781,0.694432 5.7910844,2.238403 42.406229,16.184781 52.583078,20.028421 10.305323,3.89216 35.506258,13.81608 35.790766,14.09411 0.219587,0.21458 -1.035065,-0.19065 -15.40861,-4.97671 z m -30.348017,4.2436 c 0.154837,-0.0625 0.408206,-0.0625 0.563043,0 0.154837,0.0625 0.02815,0.1136 -0.281522,0.1136 -0.309673,0 -0.436358,-0.0511 -0.281521,-0.1136 z m -4.110214,-0.6295 c -1.486433,-0.28154 -11.240692,-1.96977 -21.67613,-3.75162 l -18.9735239,-3.23971 -0.00102,-0.95718 c -5.636e-4,-0.52644 0.039201,-0.95717 0.088366,-0.95717 0.049165,0 5.5979536,1.16995 12.3306418,2.59988 6.732687,1.42993 16.599203,3.51239 21.92559,4.62768 5.326386,1.11529 9.785687,2.06565 9.909556,2.1119 0.648972,0.24234 -1.224692,0.0168 -3.603475,-0.43378 z m 142.900315,0.27587 c 0.0619,-0.0683 7.56166,-3.23681 16.66607,-7.04121 17.17005,-7.17474 48.14613,-20.205333 63.92801,-26.892356 4.99819,-2.117811 9.12812,-3.850566 9.1776,-3.850566 0.0495,0 0.09,1.509373 0.09,3.354162 0,2.984934 -0.0434,3.371315 -0.39413,3.509985 -0.21678,0.0857 -5.36017,1.860401 -11.42978,3.943774 -19.47885,6.686061 -71.84724,24.843001 -77.76695,26.963021 -0.21088,0.0755 -0.33274,0.0815 -0.2708,0.0132 z M 68.486015,118.80476 C 65.045747,117.75799 33.582559,108.67252 16.517147,103.79798 l -17.6232456,-5.033886 0,-1.974176 c 0,-1.085796 0.028824,-1.974175 0.064054,-1.974175 0.03523,0 5.6853661,1.932267 12.5558585,4.293927 17.835868,6.13089 42.294359,14.47116 51.20728,17.46152 6.801458,2.28195 8.368805,2.84877 7.660499,2.77038 -0.113547,-0.0126 -0.966558,-0.25413 -1.895578,-0.53681 z m -39.017202,-7.40332 -30.5715575,-7.68962 -0.00168,-1.648 c -0.00149,-1.46717 0.04157,-1.63435 0.39245299,-1.52361 2.55295571,0.80573 24.04536251,7.30304 40.37018251,12.2042 11.334055,3.4028 20.708721,6.22568 20.83259,6.27307 1.161714,0.44444 -4.58917,-0.96743 -31.021991,-7.61604 z m 210.801617,6.91295 c 0.15484,-0.0625 0.40821,-0.0625 0.56304,0 0.15484,0.0625 0.0281,0.1136 -0.28152,0.1136 -0.30967,0 -0.43636,-0.0511 -0.28152,-0.1136 z M -0.02224085,118.08448 c 0.16257866,-0.0651 0.35682849,-0.0571 0.43166629,0.0178 0.0748378,0.0748 -0.0581811,0.12807 -0.29559757,0.11829 -0.26236519,-0.0108 -0.31573184,-0.0642 -0.13606872,-0.13607 z m 241.36245085,0.0335 c 0.12387,-0.0466 6.91417,-1.56334 15.08955,-3.37042 8.17539,-1.80707 15.09237,-3.34278 15.37108,-3.41267 0.43921,-0.11015 0.50674,-0.0391 0.50674,0.53348 v 0.66056 l -2.75891,0.50968 c -1.51741,0.28032 -8.43439,1.56491 -15.37108,2.85463 -11.43078,2.12531 -13.54716,2.49208 -12.83738,2.22474 z m -22.22612,-1.38476 c 0.16258,-0.0651 0.35683,-0.0571 0.43167,0.0178 0.0748,0.0748 -0.0582,0.12807 -0.2956,0.11829 -0.26237,-0.0108 -0.31573,-0.0642 -0.13607,-0.13607 z m 15.46961,-0.8825 c 2.10578,-0.55194 10.87236,-2.8313 19.48128,-5.06525 8.60893,-2.23396 16.15239,-4.20733 16.76326,-4.38528 1.49987,-0.43693 1.47934,-0.44494 1.47934,0.57732 0,0.49548 -0.0513,0.90087 -0.1141,0.90087 -0.15874,0 -22.06834,4.80194 -32.41906,7.1053 -4.70435,1.04686 -8.65822,1.896 -8.78639,1.88697 -0.12816,-0.009 1.48988,-0.46799 3.59567,-1.01993 z m -14.73296,0.72358 c 0.0516,-0.0481 3.94505,-1.22235 8.65209,-2.60932 7.85245,-2.3138 40.22742,-11.93358 42.74564,-12.70129 l 1.08046,-0.32939 -0.067,1.25939 -0.067,1.25939 -6.86913,1.73505 c -3.77802,0.95428 -14.77425,3.73071 -24.43606,6.16986 -9.66182,2.43914 -18.27434,4.63035 -19.13894,4.86933 -1.53059,0.42309 -2.09145,0.5255 -1.9001,0.34698 z M 38.715117,116.05753 c 0.162578,-0.0651 0.356828,-0.0571 0.431666,0.0178 0.07484,0.0748 -0.05818,0.12806 -0.295598,0.11829 -0.262365,-0.0108 -0.315732,-0.0642 -0.136068,-0.13607 z m -4.011682,-0.78876 c -1.548368,-0.36932 -10.200948,-2.33106 -19.227956,-4.35944 -9.0270085,-2.02837 -16.45745429,-3.73266 -16.5121022,-3.78731 -0.054648,-0.0547 -0.067299,-0.44364 -0.028113,-0.86442 l 0.0712466,-0.76506 4.50434391,1.1974 c 2.4773891,0.65856 11.2439681,2.97158 19.4812871,5.14003 8.237319,2.16845 15.078291,3.98268 15.202161,4.03163 0.737286,0.29135 -1.072345,-0.016 -3.490867,-0.59283 z m -27.026063,-3.1169 c -9.0765395,-1.85421 -8.7834706,-1.78196 -8.7834706,-2.1653 0,-0.21598 0.14141848,-0.29416 0.39413009,-0.21788 0.21677155,0.0654 3.73860541,0.88762 7.82629751,1.82709 4.087692,0.93947 7.533515,1.74622 7.657385,1.79278 0.826958,0.31082 -1.532463,-0.10047 -7.094342,-1.23669 z m 193.011138,-1.04135 c 0.68128,-0.33163 9.80258,-4.59881 20.26955,-9.48262 10.46696,-4.883808 26.23163,-12.265678 35.03258,-16.404157 8.80095,-4.138479 16.07632,-7.524506 16.16749,-7.524506 0.0912,0 0.13675,0.974864 0.1013,2.166365 l -0.0645,2.166366 -6.08087,2.464276 c -9.81652,3.978157 -38.10828,15.555086 -52.58821,21.518996 -13.52501,5.57059 -15.08929,6.19147 -12.83738,5.09528 z m 65.27076,-0.23299 c 0.16257,-0.0651 0.35682,-0.0571 0.43166,0.0178 0.0748,0.0748 -0.0582,0.12807 -0.2956,0.11829 -0.26236,-0.0108 -0.31573,-0.0642 -0.13606,-0.13607 z m 3.19526,-0.7657 c 2.59345,-0.6453 3.34354,-0.77239 3.09564,-0.5245 -0.16314,0.16315 -4.88024,1.20908 -5.34781,1.18578 -0.1858,-0.009 0.82768,-0.30683 2.25217,-0.66128 z m -90.31209,-3.00093 c 0,-0.0713 6.05553,-4.97164 13.45673,-10.889647 26.04892,-20.828729 75.99111,-61.100961 79.61428,-64.199115 0.37358,-0.319448 0.39364,-0.09155 0.38472,4.371143 l -0.009,4.708163 -6.12776,4.270232 c -16.91555,11.787886 -83.85219,59.169404 -86.474,61.211154 -0.46451,0.36174 -0.84456,0.59937 -0.84456,0.52807 z m 13.51701,-1.76769 c 0.0641,-0.0758 4.52343,-2.94607 9.90956,-6.378269 16.93241,-10.789833 37.90939,-24.251851 62.6064,-40.177771 3.77802,-2.436264 6.99581,-4.504439 7.15064,-4.595946 0.21926,-0.129575 0.28153,0.474665 0.28153,2.731772 v 2.898148 l -10.07847,5.709947 c -12.30555,6.971697 -46.38874,26.415081 -58.838,33.565223 -11.08977,6.369336 -11.17687,6.418656 -11.03166,6.246896 z m 58.77771,-1.51053 c 21.62885,-7.114955 21.17042,-6.976018 21.17042,-6.416027 0,0.301502 -0.16639,0.571959 -0.39413,0.640646 -0.21678,0.06538 -5.25883,1.536877 -11.20456,3.270001 -5.94573,1.73312 -11.31716,3.30692 -11.93651,3.49734 -0.61935,0.19042 -1.22743,0.33684 -1.3513,0.32538 -0.12387,-0.0114 1.54836,-0.60426 3.71608,-1.31734 z M 37.856476,98.991889 C 29.727411,95.723426 10.153925,87.942184 2.8915066,85.091919 l -3.9976052,-1.568932 v -1.134233 c 0,-0.816785 0.078792,-1.102988 0.28152149,-1.022592 0.15483682,0.0614 6.56508121,2.897872 14.24498711,6.303264 7.679907,3.405393 18.169398,8.039269 23.30998,10.297502 5.140583,2.258232 9.388742,4.145282 9.440354,4.193432 0.277539,0.25894 -1.014493,-0.23344 -8.314268,-3.168471 z m 214.068944,1.685791 c 0.24774,-0.12172 4.75771,-1.735188 10.02216,-3.585492 5.26446,-1.850304 9.74909,-3.434333 9.96587,-3.520064 0.29811,-0.117902 0.39413,-0.04306 0.39413,0.307216 0,0.402325 -0.52456,0.629361 -3.99761,1.730222 -2.19868,0.696922 -6.63265,2.107518 -9.85325,3.134658 -3.22061,1.02714 -6.10902,1.93216 -6.41869,2.01114 -0.48222,0.123 -0.49838,0.11185 -0.11261,-0.0777 z M 58.013415,98.119435 C 56.279243,97.215491 52.174659,95.102242 48.892119,93.423325 45.609578,91.744409 38.160519,87.933078 32.338655,84.9537 21.454908,79.383871 5.9127848,71.458832 1.4275948,69.19193 l -2.5336934,-1.280578 v -1.77406 c 0,-1.422163 0.062107,-1.750228 0.31310554,-1.653911 0.17220805,0.06608 7.69727756,4.316986 16.72237706,9.446452 9.025099,5.129467 22.844852,12.956699 30.710563,17.39385 13.020588,7.345085 14.943221,8.454811 14.627856,8.443062 -0.05574,-0.0021 -1.520216,-0.743366 -3.254388,-1.64731 z M 96.075121,89.703059 C 75.603226,64.885547 47.084286,30.660109 28.123701,8.1548984 23.81491,3.0405911 20.289535,-1.1906768 20.289535,-1.2479192 c 0,-0.057242 2.407009,-0.1006826 5.348908,-0.096534 l 5.348909,0.00754 2.126654,2.9765844 c 10.13465,14.1850191 39.816629,55.0277641 58.212299,80.1007931 12.385335,16.881023 13.061155,17.811717 12.924135,17.798156 -0.0371,-0.0037 -3.71602,-4.429678 -8.175319,-9.835565 z M 40.7843,97.40574 c -0.309674,-0.177025 -0.461696,-0.321864 -0.337826,-0.321864 0.123869,0 0.478586,0.144839 0.78826,0.321864 0.309674,0.177026 0.461695,0.321865 0.337826,0.321865 -0.12387,0 -0.478587,-0.144839 -0.78826,-0.321865 z M 28.847788,92.330766 C 22.84012,89.751607 13.645404,85.83513 8.4150875,83.627484 l -9.5096668,-4.013901 -0.00576,-0.957173 c -0.00317,-0.526446 0.049601,-0.957173 0.11726357,-0.957173 0.0676628,0 5.10971273,2.344553 11.20455543,5.210117 6.094843,2.865565 15.167066,7.120653 20.160496,9.45575 4.993431,2.335098 9.250036,4.345416 9.459123,4.467373 1.12966,0.658914 -1.085843,-0.248324 -10.993311,-4.501711 z m 197.402872,3.882618 c 0.12387,-0.116746 10.54231,-5.384727 23.15209,-11.706624 l 22.92688,-11.494359 -0.0673,1.153125 -0.0673,1.153126 -8.10782,3.685118 c -6.43369,2.9242 -24.82498,11.34097 -36.37258,16.645898 -0.92902,0.426789 -1.58778,0.680461 -1.46391,0.563716 z m -70.09538,-0.947207 c 0.0723,-0.185804 3.19022,-7.482841 6.92861,-16.215637 10.04649,-23.468392 27.21907,-63.977147 32.58073,-76.8553656 l 1.47681,-3.5471707 4.02571,0 c 2.21414,0 4.02571,0.033289 4.02571,0.073975 0,0.040686 -1.60425,3.207803 -3.565,7.0380371 -1.96076,3.8302341 -5.72362,11.2206671 -8.36193,16.4231841 -2.6383,5.202517 -5.98946,11.79012 -7.44701,14.639117 -1.45756,2.848997 -8.70226,17.189702 -16.09934,31.868232 -7.39708,14.67853 -13.50472,26.738911 -13.57254,26.800845 -0.0678,0.06194 -0.0641,-0.03941 0.008,-0.225217 z M 39.651811,91.250342 C 37.480574,90.176511 30.588927,86.822433 24.337041,83.796835 18.085155,80.771237 10.53763,77.116515 7.5647634,75.67523 4.5918964,74.233946 1.4247796,72.716533 0.52672606,72.303202 L -1.1060986,71.551691 v -1.092745 c 0,-0.60101 0.029429,-1.092745 0.065397,-1.092745 0.035969,0 4.2165629,2.209713 9.2902093,4.910475 5.0736468,2.700761 15.0523068,7.987695 22.1748008,11.748743 11.350953,5.993895 13.713035,7.274086 13.276553,7.195573 -0.05574,-0.01003 -1.877814,-0.896819 -4.049051,-1.97065 z M 104.64472,80.889261 C 95.382994,64.164907 73.683567,25.260941 65.820377,11.282767 61.960091,4.4204435 58.801675,-1.2296927 58.801675,-1.2730908 c 0,-0.043398 1.646901,-0.078163 3.65978,-0.077256 l 3.659779,0.00165 5.163075,10.8650802 C 79.18873,26.150303 102.08269,73.806584 107.76235,85.449413 c 1.68663,3.457445 3.04079,6.311825 3.00924,6.343065 -0.0315,0.03124 -2.78863,-4.875207 -6.12687,-10.903217 z m 36.61469,8.706191 c -0.0155,-0.0841 0.52636,-6.773047 1.20421,-14.864334 1.49081,-17.795341 4.09132,-49.892577 5.1789,-63.921386 0.43693,-5.6360603 0.85157,-10.67811008 0.92142,-11.20455526 l 0.127,-0.95717304 2.91402,0 c 2.69538,0 2.91402,0.03157 2.91402,0.42076226 0,0.23141925 -0.7068,5.17212134 -1.57066,10.97933804 -2.39061,16.070513 -6.25905,42.548999 -8.78139,60.106357 -2.28308,15.891938 -2.85576,19.721162 -2.90752,19.440991 z M 118.97282,83.819284 C 113.30304,66.247256 104.06587,37.970792 95.605472,12.288052 93.200585,4.987679 91.232951,-1.0707081 91.232951,-1.1750304 c 0,-0.1043223 1.38986,-0.16148 3.088577,-0.1270171 l 3.088577,0.06266 2.543237,9.9095562 c 5.359868,20.8843865 9.280688,36.0046705 16.080778,62.0140435 2.60223,9.953181 4.69872,18.129306 4.65886,18.169167 -0.0399,0.03986 -0.81394,-2.225481 -1.72016,-5.034095 z m 52.11924,4.07103 C 178.3471,76.910638 211.16334,26.227983 224.93782,4.7288678 l 3.82386,-5.9682555 3.86922,-0.061627 3.86922,-0.061627 -3.866,5.2416224 C 219.05646,22.287895 193.47734,57.340652 174.6975,83.273362 c -2.0856,2.879965 -3.84211,5.2363 -3.90334,5.2363 -0.0612,0 0.0728,-0.278707 0.2979,-0.619348 z m -38.05759,-2.579937 c -0.0791,-1.027456 -0.70243,-9.518955 -1.38515,-18.869996 -0.68272,-9.351042 -2.0999,-28.198246 -3.14929,-41.882675 -1.04939,-13.684429 -1.90798,-25.11228767 -1.90798,-25.39524125 0,-0.50694035 0.0391,-0.51446105 2.67622,-0.51446105 l 2.67622,0 0.13776,8.8397746 c 0.0758,4.8618757 0.19073,12.8430097 0.25547,17.7358537 0.21126,15.966015 0.57207,39.51995 0.77793,50.783345 0.1109,6.067882 0.17037,11.063785 0.13215,11.102007 -0.0382,0.03822 -0.13422,-0.771151 -0.21333,-1.798607 z m 97.38271,0.620854 c 0,-0.06193 0.30404,-0.269835 0.67565,-0.462001 0.37161,-0.192167 0.67565,-0.29872 0.67565,-0.236785 0,0.06194 -0.30404,0.269836 -0.67565,0.462002 -0.37161,0.192166 -0.67565,0.298719 -0.67565,0.236784 z m -36.03475,-0.408513 c 0,-0.05111 3.67385,-3.625501 8.16412,-7.943079 4.49027,-4.317578 10.84984,-10.443035 14.13238,-13.612127 3.28254,-3.169091 9.05936,-8.745198 12.83738,-12.391349 11.66895,-11.261656 25.80641,-24.997295 35.80953,-34.791733 2.78707,-2.728918 5.49812,-5.362191 6.02456,-5.851717 l 0.95718,-0.890047 v 3.493443 3.493443 l -7.48848,6.518118 c -15.69382,13.66022 -58.39205,51.25398 -67.45255,59.38875 -1.64127,1.47358 -2.98412,2.637414 -2.98412,2.586298 z M 36.287439,83.274348 C 34.247709,82.136837 25.025065,77.084005 15.792675,72.045831 L -0.99349001,62.885517 -1.0621342,61.846732 c -0.037754,-0.571331 -0.021246,-1.038785 0.036685,-1.038785 0.057931,0 3.129253,1.809301 6.82516,4.020669 5.6534243,3.382607 27.7300003,16.485037 32.7887213,19.46008 1.276482,0.750702 1.754637,1.097218 1.463912,1.060889 -0.03097,-0.0039 -1.725175,-0.937726 -3.764905,-2.075237 z M 231.9937,85.058939 c 0,-0.06124 1.08949,-0.746919 2.42108,-1.523738 3.32944,-1.942304 27.0138,-15.935862 32.88275,-19.428288 2.63279,-1.566692 4.84266,-2.848531 4.91081,-2.848531 0.0682,0 0.093,0.465907 0.0553,1.035349 l -0.0686,1.03535 -18.01738,9.788394 c -9.90956,5.383616 -18.95484,10.297886 -20.10063,10.920598 -1.1458,0.622713 -2.08326,1.082103 -2.08326,1.020866 z M 183.92613,77.361411 C 207.33471,45.839437 229.42696,15.932268 238.53189,3.4393784 l 3.48397,-4.7803558 3.58643,-0.00551 3.58643,-0.00551 -0.4589,0.50673867 C 246.60426,1.5019055 196.80473,62.130729 184.49214,77.361411 c -2.40329,2.972867 -4.56747,5.607908 -4.8093,5.855647 -0.24182,0.247739 1.66766,-2.387303 4.24329,-5.855647 z m 38.49584,5.143184 c 0.12387,-0.127628 1.64408,-1.195351 3.37825,-2.372718 5.02782,-3.413493 30.35314,-20.776388 38.79367,-26.596714 l 7.71369,-5.319121 v 1.424513 1.424514 l -1.97065,1.242165 c -12.54958,7.910405 -35.73406,22.560412 -40.66394,25.695079 -7.62698,4.849615 -7.5292,4.788898 -7.25102,4.502282 z M 49.342553,76.18409 C 41.079015,70.250882 12.296605,49.815947 4.3650598,44.250969 l -5.4518756,-3.825177 -0.00964,-1.876826 -0.00964,-1.876827 0.55035054,0.412915 c 0.3026928,0.227103 6.10485076,4.719215 12.89368406,9.982472 10.667232,8.270107 34.830664,26.893025 41.903091,32.294992 1.970129,1.504798 2.538111,1.990961 2.252172,1.927746 -0.03097,-0.0068 -3.248758,-2.304625 -7.150646,-5.106174 z m 88.432977,-3.777457 c 0.17105,-15.439099 0.52744,-61.037511 0.52763,-67.5088523 l 1.8e-4,-6.249777 h 2.36479 c 1.30062,0 2.36475,0.076011 2.36472,0.1689129 -3e-5,0.092902 -0.20126,3.158671 -0.44718,6.8128199 -0.81534,12.1154305 -2.90582,44.7348885 -3.71662,57.9934255 -1.12598,18.412447 -1.20745,19.066852 -1.09352,8.783471 z M 61.053847,73.373596 C 48.912281,62.844803 13.176812,32.241125 0.75194325,21.731344 l -1.85804185,-1.571655 0,-2.760633 c 0,-1.518347 0.054079,-2.760632 0.12017649,-2.760632 0.0660971,0 2.87849681,2.611615 6.24977711,5.803589 11.804293,11.176464 34.035309,31.984701 54.157515,50.691447 8.072841,7.504972 9.528873,8.892691 9.233557,8.800341 -0.03097,-0.0097 -3.451453,-2.961776 -7.60108,-6.560205 z m 133.687023,4.545639 c 1.05786,-1.137909 6.55096,-7.108698 19.47188,-21.165197 C 230.01179,39.566476 258.03,8.8522767 265.52685,0.50236881 l 1.66491,-1.85436511 2.55791,0 2.55791,0 v 1.07731511 1.07731511 L 264.37052,8.677702 c -4.36538,4.331287 -22.00503,21.911729 -39.19921,39.067649 -17.19419,17.155919 -31.33303,31.240906 -31.41965,31.29997 -0.0866,0.05907 0.35852,-0.447674 0.98921,-1.126086 z m 58.42324,1.037451 c 0,-0.05225 1.34286,-0.804143 2.98413,-1.670863 1.64127,-0.86672 5.91959,-3.155224 9.50738,-5.085565 3.5878,-1.93034 6.55222,-3.509709 6.58761,-3.509709 0.0354,0 0.0643,0.177533 0.0643,0.394517 0,0.236736 -0.38281,0.591488 -0.95718,0.887027 -3.72943,1.918967 -18.18629,9.061105 -18.18629,8.984593 z m 7.77,-2.117246 c 10.59972,-5.526787 11.41185,-5.925206 11.33747,-5.56202 -0.0493,0.240906 -2.55492,1.570898 -7.03787,3.735778 -3.82869,1.848929 -7.02114,3.359698 -7.09434,3.357262 -0.0732,-0.0024 1.18443,-0.691394 2.79474,-1.53102 z m -48.53431,-0.09819 c 0,-0.06126 0.88679,-0.864002 1.97065,-1.783874 11.98296,-10.169957 30.70458,-26.14527 42.90388,-36.610247 l 15.03325,-12.896031 v 2.110299 2.110299 l -1.85805,1.43147 c -5.67684,4.373545 -53.67985,42.18244 -57.09256,44.968146 -0.52644,0.429725 -0.95717,0.731196 -0.95717,0.669938 z M 107.83713,74.386627 C 107.06297,72.462152 85.271948,24.219114 76.932742,5.9675623 75.234849,2.2514787 73.792986,-0.91931876 73.728603,-1.0786543 c -0.09187,-0.2273643 0.383595,-0.2758256 2.209675,-0.2252172 l 2.326737,0.064484 2.683776,6.8691242 C 84.754497,15.37044 100.4185,55.137087 104.71941,65.976865 c 1.98807,5.01062 3.58014,9.144744 3.53794,9.186944 -0.0422,0.0422 -0.2313,-0.307533 -0.42022,-0.777182 z M 66.979252,68.071202 C 63.259349,64.262216 46.418366,47.325564 29.554846,30.434196 5.9736074,6.8140167 -1.1060986,-0.40144647 -1.1060986,-0.81468836 V -1.3519963 l 2.7589106,0.011928 2.7589107,0.011928 4.1665181,4.6459514 C 19.104134,15.054899 40.59821,38.655987 60.709664,60.559551 73.382202,74.361325 73.959783,74.99663 73.834985,74.99663 c -0.05075,0 -3.135829,-3.116443 -6.855733,-6.925428 z m 143.506208,6.249777 c 0.2242,-0.247739 0.45831,-0.450435 0.52024,-0.450435 0.0619,0 -0.0708,0.202696 -0.29503,0.450435 -0.2242,0.247739 -0.45831,0.450434 -0.52024,0.450434 -0.0619,0 0.0708,-0.202695 0.29503,-0.450434 z m 1.80173,-1.491448 c 0.61935,-0.604202 5.22822,-4.797742 10.24193,-9.318977 11.57052,-10.434003 28.82193,-26.097009 40.48683,-36.759067 4.98497,-4.556404 9.11843,-8.284371 9.18548,-8.284371 0.067,0 0.093,0.994534 0.0577,2.210074 l -0.0642,2.210075 -18.3552,15.308116 C 243.7444,46.614845 230.97459,57.292889 225.4624,61.924368 210.90666,74.154461 211.05443,74.032147 212.28719,72.829531 Z M 41.009517,66.93151 C 30.863121,59.31741 -0.39419218,36.08858 -0.83527864,35.834607 -1.0422586,35.71543 -1.1079557,35.199421 -1.0604958,34.065668 l 0.0670058,-1.60068 8.22042761,6.647887 C 11.748173,42.769213 23.048446,51.846464 32.338655,59.284543 48.149499,71.943281 50.28321,73.674777 50.011949,73.626334 49.953455,73.615888 45.90236,70.603217 41.009517,66.93151 Z m -8.896079,5.422872 C 30.70599,71.430966 5.4155413,55.50936 0.75635556,52.613525 -1.0276386,51.504715 -1.0974398,51.429706 -1.1016863,50.61687 c -0.00243,-0.464511 0.053294,-0.844565 0.12382484,-0.844565 0.0705304,0 6.68347036,4.442435 14.69542146,9.872077 8.011952,5.429642 15.808695,10.701725 17.326096,11.715741 1.517401,1.014015 2.758911,1.892336 2.758911,1.951825 0,0.154263 0.04042,0.177178 -1.689129,-0.957566 z m -9.021947,0.490261 c -0.41981,-0.336338 -0.417047,-0.340496 0.06956,-0.104685 0.278706,0.135061 0.506739,0.292674 0.506739,0.35025 0,0.172341 -0.1168,0.122572 -0.576302,-0.245565 z M 10.717804,65.764693 C 0.49069908,59.880274 -1.0025214,58.95368 -1.0647538,58.453216 c -0.039195,-0.3152 -0.016633,-0.573092 0.050137,-0.573092 0.0667703,0 2.024446,1.181088 4.3503904,2.62464 2.3259444,1.443551 7.5227914,4.647157 11.5485484,7.119123 6.67268,4.097276 7.946044,4.911188 7.646124,4.887273 -0.05574,-0.0044 -5.37143,-3.040355 -11.812642,-6.746467 z M 259.13237,72.14271 c 0.12387,-0.122265 2.80958,-1.677304 5.96826,-3.455641 3.15867,-1.778337 6.07241,-3.427196 6.47499,-3.664131 0.61203,-0.360208 0.73196,-0.375147 0.73196,-0.09118 0,0.213303 -1.86375,1.322652 -5.01109,2.982728 -2.75609,1.453713 -5.77119,3.049781 -6.70021,3.546817 -0.92902,0.497037 -1.58778,0.803669 -1.46391,0.681404 z M 216.44621,59.90488 c 6.62288,-6.749676 14.38141,-14.65381 17.24116,-17.564742 8.47484,-8.626526 35.23608,-36.1525632 38.09399,-39.182672 l 0.52622,-0.5579244 -0.008,2.9227049 -0.008,2.9227049 -3.98968,3.7036156 c -9.3463,8.676153 -45.32034,42.465065 -50.60964,47.535529 -4.35318,4.173067 -10.65059,10.123507 -11.93652,11.278844 -0.74321,0.667743 4.06743,-4.308384 10.69032,-11.05806 z m 19.03835,11.329521 c 0.12387,-0.123659 1.28937,-0.968475 2.59,-1.877367 4.76214,-3.327828 33.26695,-23.599395 33.95149,-24.145043 0.21695,-0.172926 0.28153,0.01342 0.28153,0.812397 v 1.036797 l -2.19587,1.431706 c -4.52062,2.947444 -10.64584,6.987574 -22.25158,14.67691 -12.29696,8.147296 -12.7619,8.450279 -12.37557,8.0646 z M 149.13155,70.36091 c 0.0108,-0.262365 0.0642,-0.315732 0.13607,-0.136069 0.0651,0.162579 0.0571,0.356829 -0.0178,0.431666 -0.0748,0.07484 -0.12807,-0.05818 -0.11829,-0.295597 z m 0.20791,-0.675652 c 2.6e-4,-0.113547 0.40052,-2.486773 0.88946,-5.273836 2.32093,-13.229697 11.2718,-65.37485232 11.2718,-65.6662209 0,-0.053459 0.84771,-0.097197 1.88381,-0.097197 h 1.8838 l -0.98525,4.3354309 c -1.44949,6.3781598 -13.70084,61.5908374 -14.28017,64.3558114 -0.44973,2.1465 -0.66474,2.906762 -0.66345,2.346012 z M 45.626469,67.600102 C 42.533766,65.136513 22.352296,49.491316 8.9723709,39.184897 L -1.1060986,31.421555 v -1.557347 c 0,-1.460961 0.024393,-1.536565 0.39413009,-1.221562 2.98375741,2.54206 39.79093751,33.23973 46.50735051,38.787739 2.115116,1.747165 2.601324,2.189644 2.364781,2.152095 -0.03097,-0.0049 -1.17113,-0.896986 -2.533694,-1.982378 z m 18.358046,0.580932 C 63.304798,67.532247 58.288085,62.694141 52.836264,57.42969 36.156285,41.32297 10.519926,16.759507 0.0675657,6.86939 l -1.1911162,-1.1270449 0.06503,-2.7820587 0.0650303,-2.78205867 3.81601441,4.02075317 c 2.0988079,2.2114143 5.7473264,6.0461011 8.1078186,8.5215271 2.360493,2.475425 6.4673,6.782704 9.126239,9.57173 2.658939,2.789027 6.006129,6.28713 7.4382,7.773563 4.613807,4.788951 7.631581,7.928857 16.558963,17.229115 4.815577,5.016713 11.585578,12.035044 15.044447,15.59629 3.458868,3.561247 6.251349,6.473745 6.205512,6.472219 -0.04584,-0.0015 -0.639471,-0.533603 -1.319189,-1.182391 z m 88.525295,-0.747948 c 0.0108,-0.262365 0.0642,-0.315731 0.13607,-0.136068 0.0651,0.162578 0.0571,0.356828 -0.0178,0.431666 -0.0748,0.07484 -0.12807,-0.05818 -0.11829,-0.295598 z m 0.22533,-0.699212 c -0.01,-0.14715 0.13665,-0.933942 0.32554,-1.748425 0.42641,-1.838641 3.83629,-17.942811 9.13442,-43.140075 2.2269,-10.590838 4.23028,-20.1175253 4.45195,-21.17041561 l 0.40305,-1.91434609 1.72965,-0.065778 c 0.95131,-0.036178 1.72965,0.00812 1.72965,0.098439 0,0.090319 -0.71728,2.9069822 -1.59395,6.2592506 -6.26447,23.9542858 -8.03703,30.7631758 -11.46603,44.0441298 -4.08332,15.815205 -4.68546,18.067969 -4.71428,17.63722 z m 88.9429,-2.082398 c 1.1591,-0.937952 30.40291,-22.311338 30.52715,-22.311338 0.0713,0 0.0981,0.367743 0.0597,0.817206 -0.0689,0.805491 -0.19744,0.904211 -8.96598,6.885784 -4.89285,3.337718 -10.31495,7.029261 -12.04912,8.203431 -1.73417,1.174169 -4.72393,3.198131 -6.64391,4.497693 -1.91998,1.299563 -3.2375,2.157813 -2.92782,1.907224 z M 79.944492,53.657302 C 76.328121,48.238013 71.289759,40.712944 68.748131,36.934926 62.075605,27.016507 50.73085,10.191871 46.59735,4.084606 44.638867,1.1909383 43.036472,-1.2160704 43.036472,-1.2643022 c 0,-0.048232 0.901286,-0.087694 2.002859,-0.087694 1.52066,0 2.03235,0.076853 2.125353,0.319215 0.209394,0.54567333 35.858267,58.7288243 38.819336,63.3577203 0.417136,0.652088 0.708313,1.185615 0.64706,1.185615 -0.06125,0 -3.070217,-4.433964 -6.686588,-9.853252 z m -0.228896,6.193472 C 77.539116,56.741612 47.458368,15.428385 38.350672,3.0397389 l -3.145862,-4.2791266 1.930977,-0.065687 c 1.6645,-0.056622 1.961779,-0.010002 2.154178,0.33782578 0.298304,0.53928782 24.806801,37.26452762 33.898489,50.79585862 3.974126,5.914766 7.183798,10.75412 7.132605,10.75412 -0.05119,0 -0.323651,-0.32938 -0.605463,-0.731956 z M 3.8486797,57.388307 c -5.5976936,-3.411794 -5.0224486,-3.025232 -4.9219341,-3.307513 0.064439,-0.180968 9.1961297,5.521064 9.7851026,6.110037 0.3653217,0.365322 -0.2040969,0.03718 -4.8631685,-2.802524 z M 14.884322,54.264078 C 10.239218,51.054572 4.7450396,47.286739 2.6750377,45.891114 c -3.53592539,-2.38397 -3.764169,-2.580926 -3.772388,-3.255258 -0.00857,-0.703243 0.23609093,-0.537793 12.0966763,8.180259 11.389667,8.371907 12.684663,9.340634 12.431989,9.299804 -0.05574,-0.009 -3.901888,-2.642336 -8.546993,-5.851841 z m 168.739368,5.305175 c 0.0648,-0.12387 2.68501,-4.684518 5.82276,-10.134773 3.13775,-5.450256 10.9433,-19.081527 17.34568,-30.291712 l 11.64069,-20.3821557 1.74097,-0.066281 c 1.35218,-0.051478 1.71591,-0.00118 1.62871,0.2252172 -0.0617,0.16032378 -2.64169,4.2947333 -5.73322,9.1875767 -7.60129,12.0302784 -15.27814,24.2611564 -24.45533,38.9625734 -4.21417,6.750885 -7.76245,12.375684 -7.88507,12.499554 -0.14864,0.150145 -0.1837,0.150145 -0.10519,0 z M 47.477424,56.907588 C 41.671771,51.529722 4.3630749,17.717468 0.21604466,14.075381 l -1.28220786,-1.126086 -0.019968,-1.858042 c -0.010982,-1.021923 0.040946,-1.8580415 0.11539562,-1.8580415 0.0744498,0 5.67391228,5.4513585 12.44325028,12.1141305 6.769337,6.662771 16.665839,16.361666 21.992226,21.553098 13.591447,13.247081 16.960438,16.556204 16.855737,16.556204 -0.05018,0 -1.329551,-1.147075 -2.843054,-2.549056 z M 33.897554,52.73906 C 29.80017,49.311238 20.374831,41.498859 12.952355,35.378219 5.5298791,29.257579 -0.67528062,24.130358 -0.83688895,23.984396 -1.0321239,23.808062 -1.1076975,23.274367 -1.0621061,22.393928 l 0.0686161,-1.325082 4.39173531,3.945637 c 4.571182,4.106857 31.1161847,27.715364 35.5317797,31.601138 2.181777,1.919989 2.739778,2.45534 2.473622,2.373216 -0.03097,-0.0096 -3.408709,-2.821955 -7.506093,-6.249777 z m 131.099626,5.0336 c 0.0727,-0.244909 3.45753,-10.329009 7.5219,-22.40911 4.06437,-12.080101 8.49151,-25.282959 9.83809,-29.3396834 l 2.44833,-7.3758629 1.48839,0 1.48838,0 -3.36459,8.727166 c -1.85053,4.7999413 -6.90512,18.0004833 -11.23242,29.3345383 -4.3273,11.334055 -7.96961,20.810069 -8.09402,21.057807 -0.21983,0.43775 -0.22248,0.437895 -0.0941,0.0051 z M 7.2269376,51.44849 C 1.2842799,47.471863 -1.0143391,45.81536 -1.0687341,45.470203 -1.164263,44.864035 -1.9328069,44.36438 7.2269376,50.863487 14.393899,55.948656 15.835113,57.00482 15.55193,56.964289 15.49442,56.956058 11.748173,54.473948 7.2269376,51.44849 Z M 267.80323,55.339185 c 0,-0.188209 4.30112,-2.917356 4.41626,-2.80221 0.0581,0.05808 -0.68378,0.593312 -1.64858,1.189395 -0.96481,0.596083 -1.98223,1.228773 -2.26094,1.405978 -0.27871,0.177205 -0.50674,0.270282 -0.50674,0.206837 z m -99.22832,-0.499493 c 0.0903,-0.247739 2.3837,-6.480625 5.09638,-13.850857 2.71268,-7.370232 7.30082,-19.886678 10.19585,-27.814323 l 5.2637,-14.4138997 1.3871,-0.067051 c 0.7629,-0.036878 1.3871,-0.01068 1.3871,0.058219 0,0.068898 -1.00261,2.531417 -2.22802,5.4722636 -3.31697,7.9603596 -11.40862,27.5324376 -16.4994,39.9087206 -2.4691,6.002658 -4.55174,10.968697 -4.6281,11.035643 -0.0764,0.06695 -0.0649,-0.08098 0.0254,-0.328715 z M 141.80539,52.58752 c 0.0515,-1.362564 0.50451,-10.48386 1.00678,-20.269547 0.50228,-9.785687 1.0868,-21.339328 1.29894,-25.6747591 l 0.38571,-7.8826016 1.29948,-0.067677 1.29948,-0.067677 -0.12254,0.85593737 c -0.12486,0.87222283 -2.82629,29.76126973 -4.27101,45.67415773 -0.89588,9.867652 -1.03115,10.988639 -0.89684,7.432167 z m 80.22927,-9.515426 C 233.28813,30.120772 244.78111,16.828048 253.58002,6.5869096 l 6.8209,-7.9389059 1.93432,0 1.93433,0 -0.42904,0.49690465 c -0.23597,0.27329756 -3.5718,3.84580515 -7.41295,7.93890585 -8.55833,9.1196738 -26.59408,28.4453668 -36.1089,38.6914508 -3.88193,4.180283 -7.09831,7.600515 -7.1475,7.600515 -0.0492,0 3.93938,-4.636659 8.86348,-10.303686 z m -191.068707,9.346513 -0.429036,-0.506738 0.506739,0.429036 c 0.278706,0.235969 0.506739,0.464002 0.506739,0.506738 0,0.180231 -0.181254,0.04717 -0.584442,-0.429036 z m -5.93939,-4.746071 C 22.119737,45.29713 15.076069,39.600548 9.3739676,35.013467 l -10.36745761,-8.340149 -0.0692538,-0.95006 c -0.03809,-0.522533 -0.010638,-0.950061 0.061003,-0.950061 0.0716414,0 3.9033458,3.271655 8.5148986,7.270345 4.6115528,3.998689 11.6531058,10.084343 15.6478958,13.523674 6.230942,5.364555 7.546611,6.54035 7.20695,6.440751 -0.03097,-0.0091 -2.434616,-1.960025 -5.341441,-4.335431 z m 134.070787,3.67629 c 0.52973,-2.122429 9.72608,-39.564214 11.14643,-45.3812637 l 1.75972,-7.20695 1.1673,-0.068074 c 0.67663,-0.03946 1.1673,0.027009 1.1673,0.1581306 0,0.1244126 -1.15781,4.2089553 -2.57292,9.0767616 -2.85224,9.8114126 -10.70694,37.1192336 -11.84174,41.1692236 -0.39914,1.424498 -0.77991,2.640671 -0.84616,2.702606 -0.0662,0.06194 -0.0572,-0.140761 0.0201,-0.450434 z M 121.9064,46.731873 c 0.005,-0.371608 0.0551,-0.496364 0.11216,-0.277235 0.0571,0.219129 0.0534,0.523172 -0.008,0.675652 -0.0617,0.152479 -0.10841,-0.02681 -0.10382,-0.398417 z M 56.178811,44.648614 C 49.714237,37.132986 26.925833,10.776371 22.345023,5.5171279 l -5.884936,-6.7565156 1.490928,-0.067202 c 0.820011,-0.036961 1.51247,-0.036961 1.538799,0 0.623478,0.87526404 34.340625,42.8254564 37.117161,46.1804204 1.250773,1.511344 0.912482,1.333401 -0.428164,-0.225217 z M 117.92119,22.932553 c -2.10578,-12.654392 -3.86045,-23.29521303 -3.89927,-23.64626784 -0.0681,-0.61581166 -0.0353,-0.63828146 0.93123,-0.63828146 h 1.00179 l 0.1521,1.29499883 c 0.0837,0.71224935 1.36709,10.87235947 2.85208,22.57802347 1.48499,11.705663 2.75986,21.764426 2.83305,22.352805 0.0732,0.58838 0.0936,1.069091 0.0454,1.068245 -0.0482,-8.45e-4 -1.81059,-10.35513 -3.91637,-23.009523 z m 8.47857,8.077643 c -0.78046,-7.827715 -1.81607,-18.083423 -2.30137,-22.7904618 -0.4853,-4.7070392 -0.88286,-8.78628556 -0.88348,-9.06499183 -9.7e-4,-0.43940047 0.11604,-0.50673867 0.88054,-0.50673867 l 0.88165,0 0.13714,1.63282461 c 0.0754,0.89805349 0.48925,7.40964549 0.9196,14.47020469 0.43035,7.060558 1.04264,16.774902 1.36064,21.587429 0.318,4.812527 0.54355,8.784676 0.50123,8.826996 -0.0423,0.04232 -0.7155,-6.327547 -1.49595,-14.155262 z M 190.071,44.081394 c 2.61699,-4.745076 14.20821,-25.91784 19.04713,-34.7918782 l 5.8027,-10.6415121 1.12836,0 c 0.84477,0 1.09956,0.075072 1.01374,0.2986996 -0.063,0.16428477 -2.28974,3.9394879 -4.94823,8.3893402 -6.33169,10.5981805 -18.57405,31.2064525 -20.66041,34.7788775 -1.7006,2.911894 -2.64567,4.255406 -1.38329,1.966473 z m -0.5054,-10.189317 c 2.31525,-4.70571 7.13009,-14.535353 10.69964,-21.843651 l 6.49009,-13.2878137 1.0205,-0.068644 c 0.56127,-0.037754 1.0205,-0.011359 1.0205,0.058655 0,0.070015 -3.37931,6.4351381 -7.50958,14.1447186 -4.13027,7.70958 -9.31439,17.412568 -11.52028,21.562195 -2.20589,4.149626 -4.10064,7.645036 -4.21056,7.767576 -0.10992,0.122541 1.69444,-3.627326 4.00969,-8.333036 z M 84.419987,31.812012 C 81.994986,26.887774 77.31955,17.405984 74.030129,10.741369 l -5.980765,-12.1174822 1.032483,0.068363 1.032483,0.068363 6.52089,14.5265087 c 3.586489,7.98958 7.82898,17.408933 9.427757,20.931897 1.598778,3.522964 2.875196,6.437061 2.836486,6.475772 -0.03871,0.03871 -2.054475,-3.958539 -4.479476,-8.882778 z m -57.148719,3.27531 C 24.236466,32.221811 16.610049,25.073219 10.323674,19.201561 L -1.1060986,8.5258195 V 7.3598588 l 0,-1.1659607 L 15.8978,23.196677 c 9.352144,9.351529 17.003898,17.028368 17.003898,17.059643 0,0.137013 -0.394897,-0.22552 -5.63043,-5.168998 z m 139.877582,4.043207 c -0.01,-0.09305 0.83523,-3.032132 1.87771,-6.531299 1.04248,-3.499166 3.4833,-11.784225 5.42406,-18.41124 1.94075,-6.6270161 3.75536,-12.8092279 4.03247,-13.7382488 0.50037,-1.6775459 0.50951,-1.6896082 1.33246,-1.7590285 0.45574,-0.038445 0.82863,0.012655 0.82863,0.1135545 0,0.26515271 -13.47419,40.5282468 -13.49533,40.3262618 z M 89.10671,18.622167 C 85.031741,8.4415288 81.561429,-0.21746472 81.394905,-0.62004044 l -0.302772,-0.73195586 0.851028,0 c 0.823627,0 0.864433,0.038071 1.267347,1.18239023 0.949183,2.69578037 11.442581,31.80605907 12.394251,34.38353007 0.567962,1.538251 1.005282,2.824197 0.971821,2.857658 -0.03346,0.03346 -3.394902,-8.268776 -7.46987,-18.449415 z m 19.93618,16.604862 c 0.0108,-0.262366 0.0642,-0.315732 0.13607,-0.136069 0.0651,0.162579 0.0571,0.356828 -0.0178,0.431666 -0.0748,0.07484 -0.12807,-0.05818 -0.11829,-0.295597 z m -0.3618,-1.260127 C 108.53643,33.297507 99.50522,0.00454227 99.207233,-0.95786622 99.107116,-1.2812105 99.226254,-1.3519963 99.870584,-1.3519963 h 0.785386 l 0.36875,1.63282461 c 0.20281,0.89805349 2.09186,8.96608739 4.1979,17.92896369 2.10604,8.962877 3.78213,16.343172 3.72465,16.400655 -0.0575,0.05748 -0.17726,-0.232112 -0.26618,-0.643545 z M 39.746467,28.101466 C 37.654082,25.720453 31.077439,18.292975 25.131705,11.59596 19.185971,4.8989445 14.182185,-0.75403366 14.012181,-0.96621395 13.729383,-1.319171 13.789975,-1.3519963 14.724291,-1.3519963 l 1.021209,0 7.950787,9.6280348 C 33.217233,19.805462 42.697759,31.223114 43.33199,31.923843 c 0.252258,0.278706 0.404687,0.506739 0.338732,0.506739 -0.06595,0 -1.831869,-1.948102 -3.924255,-4.329116 z m 231.885453,3.117998 c 0,-0.04677 0.17736,-0.224126 0.39413,-0.39413 0.35721,-0.280141 0.36518,-0.272175 0.085,0.08503 -0.29422,0.375155 -0.47917,0.494459 -0.47917,0.309098 z m -34.56839,-1.491488 c 0.59276,-0.681282 5.24333,-5.902333 10.3346,-11.602336 5.09127,-5.700002 11.07426,-12.4142895 13.29554,-14.9206384 l 4.0387,-4.5569979 1.10008,0 1.10009,0 -7.72878,8.0515325 C 254.95293,11.127879 248.58657,17.79086 245.0563,21.50616 c -3.53028,3.7153 -7.01536,7.36381 -7.74461,8.1078 l -1.32591,1.35271 z M 45.061496,15.498333 C 38.80715,7.1765525 33.402484,-0.01913669 33.051127,-0.49208687 l -0.638831,-0.85990943 0.884355,0 0.884355,0 9.88925,14.1315823 c 5.439087,7.77237 10.477087,14.968059 11.195556,15.99042 0.718469,1.022361 1.275013,1.858838 1.236764,1.858838 -0.03825,0 -5.186734,-6.80873 -11.44108,-15.130511 z M 67.305782,27.532108 C 60.184357,16.203272 50.16729,0.33038645 49.397384,-0.84525763 49.074965,-1.3375908 49.088033,-1.3519963 49.857069,-1.3519963 h 0.791538 l 3.777455,6.4749941 C 60.512518,15.555885 68.076757,28.447798 68.433389,28.99602 c 0.181306,0.278706 0.280489,0.506738 0.220406,0.506738 -0.06008,0 -0.666688,-0.886792 -1.348013,-1.97065 z M 216.37939,28.60189 c 3.29666,-4.662942 12.24128,-17.379827 16.03902,-22.8032406 4.92157,-7.0283033 5.0205,-7.1506457 5.78213,-7.1506457 0.42619,0 0.77489,0.044572 0.77489,0.099048 0,0.054477 -1.5998,2.20811595 -3.5551,4.7858652 -1.95531,2.5777493 -6.93467,9.1967907 -11.06525,14.7089817 -4.13058,5.512191 -7.66863,10.174186 -7.86234,10.359991 -0.31305,0.300289 -0.32565,0.300289 -0.11335,0 z m -82.2149,-5.686734 c -0.16561,-3.506627 -0.59604,-19.6902556 -0.593,-22.29650191 0.002,-1.81974079 0.0368,-1.97065039 0.45273,-1.97065039 0.44543,0 0.45043,0.1501448 0.45043,13.5130313 0,7.432167 -0.0405,13.513031 -0.0899,13.513031 -0.0495,0 -0.14856,-1.24151 -0.22023,-2.75891 z M 29.718038,22.464721 C 13.945578,5.5642677 8.366423,-0.38712688 8.0512989,-0.6476171 7.4606693,-1.1358475 7.6094318,-1.3533142 8.5219365,-1.3356132 c 0.8191309,0.01589 0.9971654,0.1931169 5.9119515,5.8851454 2.787063,3.2278192 7.979636,9.1999628 11.539052,13.2714308 3.559416,4.071468 6.437511,7.402669 6.395768,7.402669 -0.04174,0 -1.234545,-1.24151 -2.65067,-2.758911 z M 59.898397,11.893995 C 55.641051,4.9343034 52.076721,-0.89319136 51.977664,-1.0559931 c -0.132745,-0.2181679 -0.0065,-0.2960032 0.480093,-0.2960032 0.636786,0 0.903626,0.42926891 7.524905,12.1054243 3.775589,6.657983 7.091391,12.485477 7.36845,12.949988 0.277059,0.46451 0.455181,0.844564 0.395828,0.844564 -0.05935,0 -3.591198,-5.694293 -7.848543,-12.653985 z M 271.74453,24.097546 c 0.2242,-0.247739 0.45831,-0.450434 0.52025,-0.450434 0.0619,0 -0.0708,0.202695 -0.29503,0.450434 -0.2242,0.247739 -0.45831,0.450434 -0.52025,0.450434 -0.0619,0 0.0708,-0.202695 0.29503,-0.450434 z M 108.81767,23.740952 c 0.0108,-0.262365 0.0642,-0.315732 0.13607,-0.136069 0.0651,0.162579 0.0571,0.356829 -0.0178,0.431667 -0.0748,0.07484 -0.12807,-0.05818 -0.11829,-0.295598 z m -3.1175,-12.667568 c -1.64192,-6.6481549 -2.98437,-12.1635653 -2.98323,-12.2564674 0.005,-0.4283209 0.90379,-0.1285448 1.01255,0.33782577 0.66898,2.86858343 5.08341,23.87878563 5.02865,23.93354363 -0.04,0.03996 -1.41604,-5.366747 -3.05797,-12.014902 z M 32.647753,22.57733 c -0.280141,-0.357207 -0.272175,-0.365173 0.08503,-0.08503 0.375155,0.294217 0.494459,0.479162 0.309098,0.479162 -0.04677,0 -0.224126,-0.177359 -0.39413,-0.39413 z M 155.49129,22.408417 c 0.0389,-0.371608 0.87065,-5.869723 1.84832,-12.218032 1.70685,-11.08297512 1.79675,-11.5423813 2.25873,-11.5423813 h 0.48113 l -0.64673,3.4345621 c -0.35571,1.8890092 -1.35792,7.285776 -2.22714,11.9928152 -1.47291,7.976136 -1.88832,9.995406 -1.71431,8.333036 z M 113.56541,11.190281 c -1.15128,-6.2169705 -2.1489,-11.58228904 -2.21694,-11.92293004 -0.10308,-0.51612006 -0.046,-0.61934726 0.34279,-0.61934726 0.35069,0 0.49728,0.1816857 0.59056,0.73195586 0.54646,3.22377734 3.50377,22.98695344 3.44804,23.04268544 -0.0392,0.03917 -1.01317,-5.015393 -2.16445,-11.232364 z M 30.374823,19.987332 C 29.332563,18.84154 24.899174,13.951512 20.522847,9.1206029 16.146521,4.2896942 12.205513,-0.0429214 11.765053,-0.50743185 l -0.800838,-0.84456445 0.797378,0 c 0.768931,0 1.009587,0.2507618 6.745918,7.0292191 3.271698,3.8660706 7.747879,9.1361532 9.94707,11.7112942 2.19919,2.575141 3.957292,4.682074 3.906894,4.682074 -0.0504,0 -0.944392,-0.937466 -1.986652,-2.083259 z m 38.899452,0.957173 c -0.192166,-0.371608 -0.298719,-0.675651 -0.236785,-0.675651 0.06193,0 0.269836,0.304043 0.462002,0.675651 0.192166,0.371609 0.298719,0.675652 0.236784,0.675652 -0.06193,0 -0.269835,-0.304043 -0.462001,-0.675652 z m 169.926375,0.365403 c 0,-0.04677 0.17736,-0.224126 0.39413,-0.39413 0.35721,-0.280141 0.36517,-0.272175 0.085,0.08503 -0.29422,0.375155 -0.47916,0.494459 -0.47916,0.309098 z m 2.36948,-2.786487 c 0.8262,-0.959989 4.95324,-5.82468 9.17118,-10.8104255 6.92589,-8.1866214 7.73392,-9.0649918 8.33902,-9.0649918 0.61562,0 0.64494,0.034492 0.36103,0.42483391 -0.48069,0.66090765 -19.14679,21.19601639 -19.26685,21.19601639 -0.0586,0 0.56942,-0.785445 1.39562,-1.745433 z M 67.686142,18.185595 C 67.10066,17.163672 64.355401,12.409166 61.585566,7.6200271 58.815732,2.8308878 56.549503,-1.1540596 56.549503,-1.2354116 c 0,-0.081352 0.223062,-0.1155271 0.495693,-0.075945 0.399581,0.058014 1.363041,1.68768867 4.969022,8.4050043 2.460331,4.5831698 5.032208,9.3718498 5.715281,10.6415118 0.683073,1.269662 1.192272,2.308477 1.131553,2.308477 -0.06072,0 -0.589428,-0.836119 -1.17491,-1.858042 z m 27.332668,0.793258 c -1.916912,-5.460134 -6.931588,-19.63173904 -7.061697,-19.95653747 -0.13541,-0.33803103 -0.07277,-0.39998763 0.341559,-0.33782583 0.459676,0.068966 0.821733,1.06076191 3.850827,10.5487218 1.838895,5.7599295 3.321664,10.5508595 3.295042,10.6465105 -0.02662,0.09565 -0.218201,-0.309739 -0.425731,-0.900869 z M 227.13507,16.55277 c 1.07402,-1.486433 4.40551,-6.121882 7.40331,-10.3009972 4.37465,-6.09854895 5.55055,-7.5989218 5.95727,-7.6010801 0.2787,-0.00148 0.50674,0.050752 0.50674,0.1160681 0,0.1484802 -15.0082,19.6885462 -15.47728,20.1507902 -0.18856,0.185804 0.53593,-0.878347 1.60996,-2.364781 z m 21.10197,-7.8826015 c 7.48089,-8.97175413 8.42495,-10.0221648 9.00743,-10.0221648 0.59653,0 0.10242,0.61371206 -5.93853,7.3758629 -3.62406,4.0567244 -7.64288,8.5666984 -8.9307,10.0221644 -1.28782,1.455467 -2.37603,2.646302 -2.41823,2.646302 -0.0422,0 3.68381,-4.509974 8.28003,-10.0221645 z M 1.4838991,16.203428 c -1.36256399,-1.233569 -2.5191098,-2.369043 -2.5701019,-2.523276 -0.088686,-0.268242 3.9090156,3.32152 4.8008754,4.310978 0.8283626,0.919012 0.2240996,0.434766 -2.2307735,-1.787702 z M 242.06492,9.2332115 c 3.57001,-4.521235 6.89437,-8.74818596 7.38746,-9.39322429 0.69805,-0.91317171 1.03671,-1.17492061 1.52981,-1.18239021 0.60716,-0.0092 0.55605,0.081042 -1.23869,2.18669493 -1.02959,1.20795857 -4.30434,5.08014807 -7.2772,8.60486557 -7.67738,9.1025275 -7.73491,9.0715765 -0.40138,-0.215946 z m 17.30502,5.3489085 c 1.4895,-1.517401 3.86966,-3.97351 5.28922,-5.4580212 6.78317,-7.0934962 7.64336,-7.9175382 7.64432,-7.3230545 7.2e-4,0.4427987 -1.63013,2.1622917 -7.63644,8.0515145 -4.20055,4.1186592 -7.72014,7.4884712 -7.82133,7.4884712 -0.10118,0 1.03472,-1.241509 2.52423,-2.75891 z m 4.6046,2.502268 c 0,-0.06756 1.88621,-1.932374 4.19158,-4.144028 2.30538,-2.211655 4.15497,-3.8745198 4.11022,-3.6952563 -0.0448,0.1792635 -1.55092,1.6872093 -3.34702,3.3509913 -1.79611,1.663781 -3.64571,3.381924 -4.11022,3.818095 -0.46451,0.436171 -0.84456,0.73776 -0.84456,0.670198 z M 60.074793,8.3886471 C 57.520435,4.0841836 55.164751,0.12315899 54.839939,-0.41362976 l -0.590568,-0.97597954 0.502166,0.075111 c 0.402455,0.060197 1.29205,1.50613036 4.480207,7.2820608 2.187922,3.9638225 4.363133,7.8910477 4.833802,8.7271657 0.470668,0.836119 0.810259,1.520216 0.754647,1.520216 -0.05561,0 -2.191042,-3.521833 -4.7454,-7.8262969 z m 59.571087,6.0245599 c 0,-0.309674 0.0511,-0.436358 0.11359,-0.281522 0.0625,0.154837 0.0625,0.408206 0,0.563043 -0.0625,0.154837 -0.11359,0.02815 -0.11359,-0.281521 z m 52.23599,-0.78826 c -0.008,-0.12387 0.88203,-3.519019 1.97767,-7.5447761 1.51341,-5.56082401 2.08061,-7.3370187 2.3606,-7.3922247 0.22676,-0.044711 0.32802,0.041933 0.2632,0.2252172 -0.0579,0.16383581 -1.07284,3.4903369 -2.25533,7.3922247 -2.30448,7.6041379 -2.32405,7.6651689 -2.34614,7.3195589 z M 118.52402,6.6094586 c -0.53295,-3.8542616 -1.02512,-7.22233228 -1.09371,-7.48460159 -0.089,-0.34043861 -0.0205,-0.47685331 0.23939,-0.47685331 0.20026,0 0.3641,0.050918 0.3641,0.1131515 0,0.062233 0.3585,3.2736123 0.79667,7.1363977 0.43817,3.8627855 0.7665,7.1799381 0.72962,7.3714501 -0.0369,0.191512 -0.50311,-2.805283 -1.03607,-6.6595444 z M 46.177274,6.0545735 c -2.656462,-3.8540316 -4.863714,-7.0971591 -4.905004,-7.20695 -0.04129,-0.1097909 0.07639,-0.1996198 0.26151,-0.1996198 0.193959,0 2.13444,2.7834719 4.579416,6.568822 2.333559,3.612852 4.430145,6.8559793 4.659081,7.2069503 0.228936,0.35097 0.37545,0.638128 0.325587,0.638128 -0.04986,0 -2.264128,-3.1532989 -4.92059,-7.0073305 z M 154.76198,9.7774864 c 0.0108,-0.2623652 0.0642,-0.3157318 0.13607,-0.1360687 0.0651,0.1625786 0.0571,0.3568284 -0.0178,0.4316663 -0.0748,0.07484 -0.12807,-0.05818 -0.11829,-0.2955976 z m 52.46295,-0.093841 c 1.05736,-2.0853885 5.71654,-10.7371441 5.87424,-10.9080191 0.1067,-0.1156115 0.25936,-0.1448379 0.33925,-0.064947 0.13394,0.1339407 -5.79093,10.8024018 -6.2816,11.3107927 -0.11955,0.123869 -0.0889,-0.028152 0.0681,-0.3378261 z M 14.649894,8.1634299 C 14.117798,7.57505 11.925914,5.2536043 9.7790407,3.0046617 7.6321673,0.75571918 5.8756344,-1.1519821 5.8756344,-1.2346744 c 0,-0.5404168 1.1074911,0.53937055 4.7305736,4.612239 2.258894,2.5393238 4.36722,4.8956587 4.685168,5.2362996 0.317948,0.340641 0.52136,0.6193473 0.452026,0.6193473 -0.06933,0 -0.561412,-0.4814017 -1.093508,-1.0697816 z M 73.897319,3.9886371 c -1.285736,-2.7515442 -2.384609,-5.0919665 -2.44194,-5.2009384 -0.05733,-0.1089719 0.0267,-0.1544834 0.186743,-0.1011367 0.259319,0.08644 4.805639,10.0921432 4.654341,10.2434413 -0.03379,0.033793 -1.113408,-2.189822 -2.399144,-4.9413662 z m 81.101501,4.6815314 c -0.029,-0.7061016 1.26214,-9.8122612 1.41259,-9.9627091 0.34795,-0.3479511 0.27051,0.41383984 -0.53236,5.2367242 -0.47395,2.8470306 -0.87005,4.9737239 -0.88023,4.7259849 z M 14.366674,3.7166883 c -2.440422,-2.6624794 -4.4371301,-4.8995608 -4.4371301,-4.971292 0,-0.512582 1.0719661,0.56406192 4.2756851,4.2943426 2.0213,2.3535196 3.932083,4.5578328 4.246183,4.8984738 0.314101,0.340641 0.521885,0.6193473 0.461742,0.6193473 -0.06014,0 -2.106058,-2.1783923 -4.54648,-4.8408717 z M 217.61134,7.8819084 c 0.18666,-0.3096736 1.49144,-2.4886499 2.8995,-4.8421695 1.40806,-2.35351965 2.58511,-4.3150206 2.61567,-4.358891 0.0306,-0.043871 0.16057,-0.043871 0.28892,0 0.20911,0.071479 -5.30733,8.989852 -5.90026,9.5388863 -0.13377,0.1238694 -0.0905,-0.028152 0.0962,-0.3378258 z m 32.87241,-3.1530406 c 3.65569,-4.48413827 5.02192,-6.0808641 5.20309,-6.0808641 0.3206,0 0.0445,0.35575155 -2.7096,3.4908664 -2.8797,3.2781207 -4.02057,4.4631523 -2.49349,2.5899977 z M 136.50161,1.9511891 c 0,-1.82303107 0.0914,-3.3031854 0.204,-3.3031854 0.18849,0 0.0712,6.2937346 -0.12141,6.5125303 -0.0454,0.051612 -0.0826,-1.3925929 -0.0826,-3.2093449 z M 7.5756581,1.5584749 C 6.1229649,0.0624978 5.0042781,-1.2296858 5.0896877,-1.3130442 5.1750972,-1.3964026 5.564234,-1.0986843 5.9544361,-0.65144793 6.3446383,-0.2042116 7.5109802,1.087972 8.546307,2.2200712 c 1.0353269,1.1320992 1.834757,2.0583622 1.776512,2.0583622 -0.05825,0 -1.2944676,-1.2239813 -2.7471609,-2.7199585 z M 191.4615,3.4901732 c 0,-0.1238694 0.0982,-0.3772388 0.21832,-0.5630429 0.12008,-0.1858042 0.21832,-0.2364781 0.21832,-0.1126086 0,0.1238694 -0.0982,0.3772388 -0.21832,0.5630429 -0.12008,0.1858042 -0.21832,0.2364781 -0.21832,0.1126086 z m 59.22522,-0.1976405 c 0,-0.046768 0.17736,-0.2241261 0.39414,-0.3941301 0.3572,-0.280141 0.36517,-0.272175 0.085,0.085032 -0.29422,0.375155 -0.47917,0.4944595 -0.47917,0.3090981 z M 222.3966,2.5964158 c 0.20034,-0.3057624 0.83119,-1.3250272 1.40188,-2.26503282 0.57069,-0.94000564 1.09197,-1.65474908 1.1584,-1.58831878 0.12236,0.1223561 -2.6153,4.4092832 -2.81579,4.4092832 -0.0598,0 0.0552,-0.2501692 0.25551,-0.5559316 z M 191.99014,2.1388701 c 0.61022,-1.75213297 1.36653,-3.4908664 1.51846,-3.4908664 0.17583,0 -1.2687,3.5860969 -1.53999,3.8230783 -0.0744,0.065022 -0.0648,-0.084473 0.0215,-0.3322119 z m 59.94324,-1.46391171 c 0.82653,-1.05289036 1.61649,-1.95576169 1.75547,-2.00638089 0.2561,-0.093278 -0.92704,1.37507969 -2.43327,3.0198582 -0.45374,0.4954778 -0.14873,0.039413 0.6778,-1.01347731 z M 119.88779,1.5758271 c 0,-0.433543 0.0463,-0.61090158 0.10299,-0.39413 0.0567,0.2167715 0.0567,0.5714886 0,0.7882601 -0.0567,0.2167716 -0.10299,0.039413 -0.10299,-0.3941301 z M 252.92488,0.62744333 c 0.75894,-0.95515418 1.48807,-1.80350333 1.62029,-1.88522033 0.50476,-0.3119565 -0.27393,0.72316141 -1.62337,2.15795257 L 251.54498,2.3640873 Z M 119.57507,-0.33851896 c -0.0443,-0.55741254 -0.004,-1.01347734 0.0899,-1.01347734 0.0938,0 0.17053,0.4560648 0.17053,1.01347734 0,0.55741254 -0.0405,1.01347735 -0.0899,1.01347735 -0.0495,0 -0.1262,-0.45606481 -0.17053,-1.01347735 z M 86.193387,-0.57244291 c -0.07724,-0.2012774 -0.134007,-0.48435459 -0.126156,-0.62906049 0.0079,-0.1447058 0.111377,-0.020355 0.230056,0.27633508 0.118679,0.29669011 0.175449,0.57976731 0.126156,0.62906045 -0.04929,0.0492931 -0.152818,-0.0750576 -0.230056,-0.27633504 z m 23.542933,-0.10390183 c 0,-0.30967363 0.0511,-0.43635826 0.1136,-0.28152148 0.0625,0.15483681 0.0625,0.40820615 0,0.56304296 -0.0625,0.15483682 -0.1136,0.0281521 -0.1136,-0.28152148 z"
       id="path1" /></g></svg>
