<?xml version="1.0" encoding="UTF-8" standalone="no"?>
<!-- Created with Inkscape (http://www.inkscape.org/) -->

<svg viewBox="114.551 81.194 134.814 113.214">
  <g class="sparkles">
    <path style="--duration: 1.9s; --delay: 0s; fill: rgb(31, 162, 49);" d="M 143.21 131.761 C 143.21 131.761 144.398 125.559 145.453 131.761 C 145.453 131.761 151.391 132.816 145.453 133.872 C 145.453 133.872 144.398 140.206 143.21 133.872 C 139.647 133.212 139.911 132.553 143.21 131.761 Z"></path>
    <path style="--duration: 3s; --delay: 0s; fill: rgb(31, 162, 49);" d="M 164.499 98.461 C 164.499 98.461 165.237 94.608 165.893 98.461 C 165.893 98.461 169.582 99.116 165.893 99.772 C 165.893 99.772 165.237 103.707 164.499 99.772 C 162.286 99.362 162.45 98.952 164.499 98.461 Z"></path>
    <path style="--duration: 1.6s; --delay: 0s; fill: rgb(31, 162, 49);" d="M 245.112 190.116 C 245.112 190.116 246.146 184.713 247.066 190.116 C 247.066 190.116 252.239 191.035 247.066 191.955 C 247.066 191.955 246.146 197.473 245.112 191.955 C 242.008 191.38 242.238 190.806 245.112 190.116 Z"></path>
    <path style="--duration: 3.4s; --delay: 0s; fill: rgb(31, 162, 49);" d="M 150.284 174.329 C 150.284 174.329 151.022 170.476 151.678 174.329 C 151.678 174.329 155.367 174.984 151.678 175.64 C 151.678 175.64 151.022 179.575 150.284 175.64 C 148.071 175.23 148.235 174.82 150.284 174.329 Z"></path>
    <path style="--duration:2.5s; --delay: 0s; fill: rgb(31, 162, 49);" d="M 224.246 96.605 C 224.246 96.605 224.984 92.752 225.64 96.605 C 225.64 96.605 229.329 97.26 225.64 97.916 C 225.64 97.916 224.984 101.851 224.246 97.916 C 222.033 97.506 222.197 97.096 224.246 96.605 Z"></path>
    <path style="--duration: 3.9s; --delay: 0s; fill: rgb(31, 162, 49);" d="M 202.166 155.219 C 202.166 155.219 203.354 149.017 204.409 155.219 C 204.409 155.219 210.347 156.274 204.409 157.33 C 204.409 157.33 203.354 163.664 202.166 157.33 C 198.603 156.67 198.867 156.011 202.166 155.219 Z"></path>
  </g>
</svg>
