<?xml version="1.0" encoding="UTF-8" standalone="no"?>
<!-- Created with Inkscape (http://www.inkscape.org/) -->

<svg
   viewBox="114.551 81.194 134.814 113.214"
   version="1.1"
   id="svg6"
   sodipodi:docname="stars.svg"
   inkscape:version="1.3.2 (091e20ef0f, 2023-11-25)"
   xmlns:inkscape="http://www.inkscape.org/namespaces/inkscape"
   xmlns:sodipodi="http://sodipodi.sourceforge.net/DTD/sodipodi-0.dtd"
   xmlns="http://www.w3.org/2000/svg"
   xmlns:svg="http://www.w3.org/2000/svg">
  <defs
     id="defs6" />
  <sodipodi:namedview
     id="namedview6"
     pagecolor="#505050"
     bordercolor="#eeeeee"
     borderopacity="1"
     inkscape:showpageshadow="0"
     inkscape:pageopacity="0"
     inkscape:pagecheckerboard="0"
     inkscape:deskcolor="#505050"
     inkscape:zoom="2.5732507"
     inkscape:cx="68.395979"
     inkscape:cy="102.39966"
     inkscape:window-width="1456"
     inkscape:window-height="940"
     inkscape:window-x="11"
     inkscape:window-y="63"
     inkscape:window-maximized="0"
     inkscape:current-layer="g6" />
  <g
     class="sparkles"
     id="g6">
    <path
       id="path"
       style="display:inline;fill:#ffffff;stroke-width:86.5724"
       inkscape:transform-center-x="-0.28778024"
       inkscape:transform-center-y="0.10957193"
       d="m 148.90113,132.43621 c -0.005,0.23493 -3.00774,0.79609 -3.17759,0.95849 -0.16985,0.1624 -0.86494,3.13673 -1.09988,3.13146 -0.23493,-0.005 -0.79609,-3.00774 -0.95848,-3.17759 -0.16241,-0.16985 -3.13673,-0.86493 -3.13147,-1.09987 0.005,-0.23494 3.00774,-0.79608 3.17759,-0.95849 0.16985,-0.1624 0.86494,-3.13672 1.09988,-3.13146 0.23493,0.005 0.79608,3.00774 0.95848,3.17759 0.16241,0.16984 3.13673,0.86493 3.13147,1.09987 z"
       inkscape:label="path1" />
    <path
       id="path"
       style="fill:#ffffff;stroke-width:88.1194"
       inkscape:transform-center-x="-0.29292025"
       inkscape:transform-center-y="0.11153092"
       d="m 170.42091,98.874357 c -0.005,0.23913 -3.06149,0.810312 -3.23437,0.975612 -0.17288,0.165311 -0.88039,3.192781 -1.11953,3.187421 -0.23913,-0.005 -0.81031,-3.061487 -0.97561,-3.23437 -0.16531,-0.172883 -3.19278,-0.880392 -3.18743,-1.119523 0.005,-0.239138 3.06149,-0.810312 3.23438,-0.97562 0.17288,-0.1653 0.88039,-3.192778 1.11953,-3.187418 0.23913,0.0053 0.81031,3.061484 0.97561,3.234368 0.16531,0.172883 3.19278,0.880392 3.18742,1.11953 z"
       inkscape:label="path2" />
    <path
       id="path"
       style="display:inline;fill:#ffffff;stroke-width:62.1314"
       inkscape:transform-center-x="-0.20653025"
       inkscape:transform-center-y="0.078636931"
       d="m 249.07781,191.29074 c -0.004,0.16861 -2.1586,0.57133 -2.28049,0.68789 -0.1219,0.11655 -0.62075,2.25117 -0.78936,2.24739 -0.16861,-0.004 -0.57134,-2.1586 -0.68789,-2.2805 -0.11656,-0.12189 -2.25117,-0.62075 -2.2474,-0.78935 0.004,-0.16861 2.15861,-0.57134 2.2805,-0.68789 0.1219,-0.11655 0.62075,-2.25117 0.78936,-2.2474 0.16861,0.004 0.57134,2.1586 0.68789,2.2805 0.11655,0.1219 2.25117,0.62075 2.24739,0.78936 z"
       inkscape:label="path3" />
    <path
       id="path"
       style="fill:#ffffff;stroke-width:46.6499"
       inkscape:transform-center-x="-0.15507023"
       inkscape:transform-center-y="0.059046904"
       d="m 152.53393,175.47733 c -0.003,0.12659 -1.62074,0.42897 -1.71226,0.51648 -0.0915,0.0875 -0.46607,1.69024 -0.59267,1.68741 -0.1266,-0.003 -0.42898,-1.62074 -0.51648,-1.71226 -0.0875,-0.0915 -1.69024,-0.46608 -1.68741,-0.59267 0.003,-0.1266 1.62074,-0.42898 1.71226,-0.51649 0.0915,-0.0875 0.46607,-1.69024 0.59267,-1.6874 0.1266,0.003 0.42898,1.62073 0.51649,1.71226 0.0875,0.0915 1.69023,0.46607 1.6874,0.59267 z"
       inkscape:label="path4" />
    <path
       id="path"
       style="fill:#ffffff;stroke-width:73.0963"
       inkscape:transform-center-x="-0.24298524"
       inkscape:transform-center-y="0.092516923"
       d="m 228.09888,97.669008 c -0.004,0.198362 -2.53956,0.672166 -2.68296,0.809285 -0.14341,0.137125 -0.7303,2.648457 -0.92867,2.644007 -0.19836,-0.004 -0.67217,-2.539543 -0.80929,-2.682953 -0.13712,-0.143409 -2.64845,-0.730298 -2.64401,-0.92866 0.004,-0.198368 2.53955,-0.672165 2.68296,-0.80929 0.14341,-0.137119 0.7303,-2.648456 0.92867,-2.64401 0.19836,0.0044 0.67216,2.539545 0.80928,2.682955 0.13713,0.143409 2.64846,0.730298 2.64402,0.928666 z"
       inkscape:label="path5" />
    <path
       id="path"
       style="display:inline;fill:#ffffff;stroke-width:115.392"
       inkscape:transform-center-x="-0.38358024"
       inkscape:transform-center-y="0.14605192"
       d="m 209.16052,156.82562 c -0.007,0.31314 -4.00901,1.0611 -4.2354,1.27756 -0.22639,0.21647 -1.15287,4.18094 -1.46602,4.17392 -0.31314,-0.007 -1.0611,-4.00901 -1.27756,-4.2354 -0.21647,-0.22639 -4.18093,-1.15287 -4.17392,-1.46601 0.007,-0.31315 4.00901,-1.0611 4.2354,-1.27757 0.22639,-0.21646 1.15287,-4.18093 1.46602,-4.17391 0.31314,0.007 1.0611,4.009 1.27756,4.23539 0.21647,0.22639 4.18093,1.15287 4.17392,1.46602 z"
       inkscape:label="path6" />
  </g>
</svg>
