<?xml version="1.0" encoding="UTF-8" standalone="no"?>
<!-- Created with Inkscape (http://www.inkscape.org/) -->

<svg
   width="1024"
   height="1024"
   viewBox="0 0 270.93334 270.93333"
   version="1.1"
   id="svg1"
   xml:space="preserve"
   inkscape:version="1.3.2 (091e20ef0f, 2023-11-25)"
   sodipodi:docname="white-speed-lines2.svg"
   xmlns:inkscape="http://www.inkscape.org/namespaces/inkscape"
   xmlns:sodipodi="http://sodipodi.sourceforge.net/DTD/sodipodi-0.dtd"
   xmlns="http://www.w3.org/2000/svg"
   xmlns:svg="http://www.w3.org/2000/svg"><sodipodi:namedview
     id="namedview1"
     pagecolor="#505050"
     bordercolor="#eeeeee"
     borderopacity="1"
     inkscape:showpageshadow="0"
     inkscape:pageopacity="0"
     inkscape:pagecheckerboard="0"
     inkscape:deskcolor="#505050"
     inkscape:document-units="mm"
     inkscape:zoom="0.70710678"
     inkscape:cx="507.70267"
     inkscape:cy="498.51028"
     inkscape:window-width="1481"
     inkscape:window-height="994"
     inkscape:window-x="0"
     inkscape:window-y="33"
     inkscape:window-maximized="0"
     inkscape:current-layer="layer1" /><defs
     id="defs1" /><g
     inkscape:label="lines"
     inkscape:groupmode="layer"
     id="layer1"><path
       style="fill:#ffffff"
       d="M 0.10880711,228.02513 0.21910788,185.11149 7.5767037,182.5355 c 12.8974833,-4.51557 44.6372493,-15.87115 54.9037833,-19.643 5.456599,-2.00472 9.985102,-3.58093 10.06334,-3.50269 0.07824,0.0782 -3.892944,1.71213 -8.82485,3.63087 -15.9577,6.2083 -50.332632,20.16483 -50.140118,20.35735 0.218668,0.21866 26.891102,-9.64496 43.769817,-16.18633 17.294647,-6.70258 17.103805,-6.58448 -5.626397,3.48169 -20.92313,9.26591 -33.602082,15.08196 -33.374552,15.30949 0.161979,0.16198 32.004869,-12.96867 42.644437,-17.58475 8.223106,-3.56767 3.971615,-1.36152 -9.110365,4.72749 -7.387132,3.43833 -13.523631,6.40116 -13.636665,6.58405 -0.270137,0.43709 0.142751,0.27079 11.508351,-4.63523 12.905998,-5.57094 26.841189,-11.74397 32.649674,-14.46319 2.592092,-1.21348 4.83183,-2.20179 4.977197,-2.19624 0.145366,0.006 -4.702074,2.54584 -10.772091,5.6451 -15.322719,7.82356 -34.223794,17.82755 -34.036462,18.01488 0.08578,0.0858 2.861391,-1.13771 6.16802,-2.71887 8.244511,-3.94235 14.366415,-6.73997 13.58605,-6.20862 -0.35706,0.24313 -6.005097,3.41181 -12.551193,7.04153 -18.012001,9.98739 -20.30535,11.28903 -20.154934,11.43945 0.0762,0.0762 1.185247,-0.33554 2.464545,-0.91498 2.030669,-0.91977 21.510002,-10.3676 22.667586,-10.9942 0.288533,-0.15618 0.288533,-0.0926 0,0.19068 -0.23804,0.23373 -2.964678,1.9489 -6.059196,3.81151 -9.725358,5.85374 -26.236096,16.32458 -26.043993,16.51669 0.158693,0.15869 20.776317,-11.03279 26.440409,-14.35215 1.09119,-0.63948 1.983982,-1.0609 1.983982,-0.9365 0,0.1244 -1.217249,0.95744 -2.704998,1.85119 -5.391958,3.23917 -24.788603,15.43448 -25.210586,15.85072 -0.753553,0.7433 3.12897,-1.33728 14.931592,-8.0016 9.78447,-5.52477 27.60613,-15.81681 31.161582,-17.99586 0.5951,-0.36473 0.88724,-0.4657 0.6492,-0.22439 -0.23804,0.24131 -5.204417,3.62499 -11.036394,7.51928 -13.848865,9.24755 -31.637184,21.51929 -32.459982,22.39338 -0.592922,0.62988 -0.555403,0.63259 0.4328,0.0312 2.892467,-1.76022 26.763725,-16.87481 30.945183,-19.59359 7.995584,-5.19873 8.11253,-4.96906 0.216399,0.42498 -6.923407,4.72956 -35.949166,25.07499 -37.004379,25.938 -0.834917,0.68285 -0.827246,0.68971 0.2164,0.19367 1.212529,-0.57632 54.390588,-36.01054 62.647765,-41.74419 2.915988,-2.02482 5.301797,-3.60494 5.301797,-3.51138 0,0.0935 -2.775329,2.18238 -6.167397,4.64185 -21.536585,15.61538 -41.709877,30.75453 -38.843778,29.1505 0.514486,-0.28794 15.050388,-10.43025 33.758381,-23.55464 1.939658,-1.36074 1.941422,-1.36106 0.4328,-0.0789 -0.83314,0.70806 -8.428775,6.81002 -16.879191,13.55991 -16.567245,13.23334 -28.131984,22.74233 -28.131984,23.13125 0,0.13351 0.474882,-0.11433 1.055293,-0.55076 10.48198,-7.88159 22.764782,-16.90853 22.099494,-16.24146 -0.476079,0.47735 -4.093727,3.56415 -8.039216,6.85955 -12.012696,10.03339 -25.427167,21.56355 -25.273587,21.72344 0.132112,0.13754 5.821745,-4.10104 25.522408,-19.01329 5.118201,-3.87418 6.134411,-4.5264 3.895197,-2.50001 -3.764528,3.40674 -7.576151,7.13412 -6.708396,6.56014 2.301512,-1.52236 33.77179,-27.3279 44.145575,-36.19926 5.89398,-5.04035 3.653173,-2.81453 -10.387194,10.31775 -12.302455,11.50676 -16.173248,15.25705 -15.15847,14.68653 0.637775,-0.35856 18.009826,-15.65618 22.516066,-19.82738 1.309219,-1.21188 -4.922123,5.14588 -13.847428,14.12835 -8.925305,8.98247 -16.081064,16.33176 -15.901688,16.33176 0.319489,0 13.6391,-12.07543 19.53153,-17.70709 1.640544,-1.56794 -2.171157,2.69983 -8.470447,9.48393 -14.878156,16.02324 -15.456618,16.67086 -14.38378,16.10356 0.496633,-0.26261 9.552892,-9.20315 20.125021,-19.86786 10.57213,-10.66471 17.878631,-17.92969 16.236671,-16.1444 -1.641961,1.78529 -6.123241,6.65427 -9.958401,10.81995 -6.582083,7.14933 -28.751139,31.77684 -31.557081,35.05662 -0.71277,0.83314 4.615713,-4.42535 11.841074,-11.68554 l 13.13702,-13.20033 -6.906984,8.22316 c -3.798842,4.52273 -10.004606,12.02096 -13.790586,16.66271 -3.785981,4.64176 -7.173189,8.78039 -7.527128,9.19696 -0.35394,0.41657 -0.529627,0.75739 -0.390417,0.75739 0.37014,0 28.008277,-30.81354 40.08134,-44.68637 2.226941,-2.55892 4.131182,-4.65258 4.231647,-4.65258 0.100466,0 -2.222704,2.8727 -5.1626,6.38377 -8.601518,10.27266 -18.257601,22.10654 -32.754641,40.142 -7.46216,9.28351 -13.879578,17.25342 -14.260928,17.71091 -0.381351,0.45748 -0.451976,0.69071 -0.156944,0.51828 0.726166,-0.4244 21.825073,-25.23874 39.06423,-45.94328 7.736585,-9.29178 14.816944,-17.7638 15.734131,-18.82671 l 1.667612,-1.93256 -1.495332,1.94759 c -0.822433,1.07117 -5.383405,6.91395 -10.135494,12.98393 -11.160397,14.25553 -30.186346,38.98012 -30.640089,39.81741 -0.193498,0.35706 0.03954,0.25968 0.517872,-0.2164 1.108598,-1.10338 15.624566,-18.64388 24.534647,-29.64665 6.652345,-8.21477 9.475221,-11.47562 6.96545,-8.04615 -1.69397,2.31473 -25.930334,36.69358 -26.343785,37.3682 -2.173373,3.54623 7.556811,-9.00478 23.067471,-29.75485 7.83559,-10.48241 11.096692,-14.54402 7.29743,-9.08876 -8.510332,12.21978 -38.943512,57.19773 -40.338929,59.61791 -1.989546,3.45062 9.389003,-11.97714 24.818161,-33.65004 9.135265,-12.83204 9.657293,-13.30327 2.397262,-2.16399 -2.404698,3.68961 -4.534276,7.00051 -4.732395,7.35757 -2.917213,5.25752 28.702367,-40.1288 35.654749,-51.17835 1.01098,-1.60676 1.93719,-2.92138 2.05825,-2.92138 0.12105,0 -0.19341,0.63296 -0.69881,1.40659 -1.98665,3.04101 -15.827678,26.23202 -21.855977,36.62027 -9.232232,15.90942 -17.479693,30.6036 -27.604517,49.1819 l -1.886933,3.46239 -27.578603,0.1114 -27.57860365,0.1114 z M 59.540763,269.75044 c 3.626174,-5.51729 31.216039,-52.43684 38.688242,-65.79354 1.498132,-2.67794 2.795975,-4.86898 2.884105,-4.86898 0.15047,0 -5.828385,11.82413 -14.631489,28.93608 -2.125633,4.13192 -3.776221,7.60115 -3.667973,7.70939 0.21652,0.21652 2.861673,-4.39944 12.110276,-21.13321 5.917726,-10.70712 8.087356,-14.17199 4.854917,-7.75325 -1.53245,3.04303 -14.265457,30.9227 -14.987395,32.81579 -1.231566,3.22945 1.056151,-1.04568 9.148185,-17.09551 5.010619,-9.93812 9.016229,-17.77718 8.901359,-17.42012 -0.11487,0.35706 -2.4754,5.71293 -5.245629,11.90194 -5.422641,12.11482 -18.299191,41.78332 -18.654859,42.98214 -0.722767,2.43617 9.380498,-18.7577 21.261898,-44.60162 2.81707,-6.12756 5.17439,-11.08858 5.2385,-11.02447 0.0641,0.0641 -2.04822,5.36971 -4.69407,11.79023 -2.645847,6.42052 -8.739911,21.31424 -13.542364,33.09716 l -8.731734,21.4235 -9.859822,0.11646 -9.859821,0.11647 z m 19.664352,0.85733 c 2.9e-5,-0.17853 2.797403,-6.66129 6.216388,-14.40612 3.418984,-7.74484 8.726168,-19.94881 11.793741,-27.11994 3.067576,-7.17113 5.624686,-12.99206 5.682476,-12.93541 0.0578,0.0567 -1.85681,5.2493 -4.254654,11.53922 -2.397847,6.28991 -6.273491,16.59732 -8.612541,22.90535 -2.339051,6.30803 -4.767379,12.83223 -5.396286,14.49823 -0.628907,1.666 -0.935468,2.82109 -0.681247,2.56687 0.494692,-0.49469 13.08954,-30.54592 17.988168,-42.91966 1.62448,-4.10335 3.02166,-7.39258 3.10485,-7.30939 0.0832,0.0832 -0.0719,0.71386 -0.34472,1.40148 -0.96647,2.43621 -12.816517,37.62545 -13.100872,38.90363 -0.606277,2.72522 0.659285,-0.37667 6.012807,-14.73738 5.194245,-13.93345 15.757875,-42.96778 16.419595,-45.12954 0.16943,-0.55352 0.38724,-0.92723 0.48401,-0.83046 0.0968,0.0968 -0.31742,1.62083 -0.92042,3.3868 -2.90586,8.51019 -12.52862,39.23462 -19.271041,61.53036 l -2.715797,8.98056 h -6.202254 c -3.41124,0 -6.202231,-0.14607 -6.202203,-0.3246 z m 13.416741,-0.01 c 0,-0.18387 3.024628,-9.28885 6.721397,-20.2333 3.696767,-10.94445 6.638747,-19.50948 6.537727,-19.0334 -0.10101,0.47608 -2.36468,8.55858 -5.03036,17.96111 -2.665689,9.40254 -5.134588,18.118 -5.486446,19.36771 -0.546735,1.94185 -0.792578,2.27219 -1.691029,2.27219 -0.578209,0 -1.051289,-0.15044 -1.051289,-0.33431 z m 3.029598,0.0784 c 0,-0.14075 1.740372,-5.74008 3.867494,-12.44294 4.587962,-14.45731 12.145092,-39.04144 14.755942,-48.00256 1.02308,-3.51149 1.93465,-6.31002 2.02572,-6.21895 0.0911,0.0911 -1.09755,5.00925 -2.64139,10.92929 -1.54383,5.92003 -3.80092,14.75626 -5.01575,19.63606 -1.21482,4.87979 -2.30718,9.26187 -2.42746,9.73795 -0.1967,0.77855 -0.17125,0.79 0.25315,0.11379 0.44224,-0.70464 10.79853,-36.51176 11.46414,-39.63754 0.16836,-0.79065 0.38842,-1.35524 0.48902,-1.25464 0.1006,0.1006 -0.39465,2.69508 -1.10055,5.76552 -2.14537,9.33168 -6.7575,31.63228 -9.52374,46.04921 -1.43871,7.49823 -2.71899,14.07134 -2.84506,14.60693 -0.21969,0.93334 -0.41766,0.9738 -4.76536,0.9738 -2.494887,0 -4.536156,-0.11517 -4.536156,-0.25592 z m 12.729246,-0.50148 c 0.66952,-2.1452 5.44834,-22.18788 5.44834,-22.85069 0,-0.42507 0.1069,-0.66596 0.23756,-0.53531 0.13065,0.13066 -0.45363,5.11231 -1.2984,11.07035 -0.84478,5.95804 -1.53595,11.33685 -1.53595,11.95292 0,0.99564 -0.17159,1.12013 -1.54397,1.12013 -1.27196,0 -1.50232,-0.13344 -1.30758,-0.7574 z m 3.86431,-0.2164 c 0.29142,-1.17753 8.58183,-46.77584 11.3115,-62.21469 2.60046,-14.70807 2.32416,-12.49014 -3.0089,24.15308 -4.45914,30.63854 -4.7616,32.89474 -4.35543,32.48857 0.24099,-0.24099 6.57888,-38.02912 8.28162,-49.37716 0.66845,-4.45491 1.28523,-8.02996 1.37062,-7.94457 0.0854,0.0854 -0.24307,3.63294 -0.72992,7.88344 -1.41321,12.33817 -4.80398,47.03011 -4.61515,47.21895 0.0947,0.0947 0.28791,-0.3774 0.42942,-1.04903 0.34119,-1.61922 4.79469,-36.14736 5.51652,-42.76973 1.0176,-9.33584 0.85835,-4.11753 -0.26489,8.68009 -1.13675,12.95156 -1.32106,16.8007 -0.6309,13.1762 0.47471,-2.49305 4.59671,-39.60582 4.98825,-44.91211 0.55977,-7.58625 0.68469,-3.61399 0.18306,5.82093 -1.02124,19.20788 -1.61056,36.72134 -1.24913,37.12195 0.21325,0.23636 0.38327,-0.31562 0.39991,-1.2984 0.0159,-0.94025 0.39571,-6.189 0.84396,-11.6639 l 0.815,-9.95435 -0.19727,8.87236 c -0.2839,12.76911 -0.28484,30.78032 -0.002,31.06355 0.13319,0.13319 0.25698,-0.52065 0.27508,-1.45297 0.0181,-0.93231 0.48167,-7.73265 1.03016,-15.11185 0.81285,-10.93599 1.00625,-12.53647 1.04599,-8.65596 0.094,9.18097 0.94489,32.91211 1.2492,34.84023 0.33077,2.09582 0.74741,-8.18382 0.98232,-24.23668 l 0.12983,-8.87236 0.30105,8.22316 c 0.83346,22.76622 1.03856,26.74092 1.31763,25.53507 0.16527,-0.71411 0.35627,-12.88655 0.42445,-27.04986 0.0682,-14.16331 0.18512,-24.97244 0.25987,-24.02028 0.0747,0.95215 0.34399,5.13947 0.59833,9.30515 0.60805,9.95916 2.5414,35.31976 2.98597,39.16821 l 0.34998,3.02958 0.0483,-3.67878 c 0.0266,-2.02333 -0.23749,-10.30059 -0.58683,-18.39391 -0.75827,-17.56696 -0.74278,-20.68495 0.0548,-11.03635 0.32468,3.92765 1.17587,13.84069 1.89154,22.02899 0.71567,8.1883 1.30122,15.15094 1.30122,15.47253 0,0.48084 -2.92971,0.5847 -16.49331,0.5847 h -16.49331 z m 33.43436,-0.4328 c -0.11885,-0.77362 -0.5244,-7.0546 -0.90122,-13.95773 -0.83927,-15.37495 -3.12292,-50.27863 -3.69534,-56.48012 -0.51366,-5.56494 -0.45398,-8.47198 0.0755,-3.67878 0.21036,1.90431 1.55424,14.17413 2.98638,27.26627 1.43214,13.09213 2.69642,23.99864 2.80951,24.23668 0.34359,0.7232 -0.1873,-7.01748 -1.56785,-22.86051 -0.72227,-8.28857 -1.23568,-15.2999 -1.14093,-15.58072 0.0948,-0.28082 0.31482,0.75535 0.48902,2.3026 0.816,7.24737 7.89348,52.35974 8.27423,52.74049 0.36753,0.36753 0.22596,-1.15848 -1.3288,-14.32318 -0.84366,-7.14353 -1.42794,-13.09423 -1.2984,-13.22377 0.12954,-0.12954 0.23552,0.15587 0.23552,0.63424 0,0.83448 5.40588,31.35302 5.90873,33.35733 0.24364,0.97115 0.22954,0.9738 -5.193,0.9738 h -5.4373 z m 11.67204,-1.08199 c -0.15959,-1.36872 -0.96279,-7.92389 -1.7849,-14.56704 -1.46943,-11.87394 -1.70834,-15.25876 -0.66488,-9.41991 0.29089,1.62772 0.80774,3.91721 1.14855,5.08776 l 0.61965,2.12827 -0.23624,-2.38039 c -0.3459,-3.48532 -3.7878,-25.17144 -6.2509,-39.3846 -1.17566,-6.78411 -2.23719,-13.0164 -2.35895,-13.84953 l -0.22137,-1.5148 0.42013,1.5148 c 0.23107,0.83313 2.08674,8.60785 4.12371,17.27714 2.03697,8.6693 3.89221,16.07014 4.12274,16.44632 0.3199,0.52199 0.36594,0.42773 0.19443,-0.39803 -1.69083,-8.1407 -5.40737,-26.85023 -5.38785,-27.12315 0.0141,-0.19773 2.25343,7.91775 4.97621,18.0344 5.62736,20.90881 5.72593,21.25437 5.77904,20.25985 0.042,-0.78639 -3.35265,-16.5501 -4.76978,-22.14937 -1.36315,-5.38599 -0.69093,-4.27476 1.07869,1.78316 3.42343,11.71938 8.68008,28.31995 8.82755,27.87753 0.0851,-0.25524 -2.41375,-10.06514 -5.55296,-21.79978 -3.1392,-11.73465 -5.78379,-21.72523 -5.87685,-22.20131 -0.30807,-1.57598 1.00287,2.38845 8.0145,24.23668 9.30963,29.00876 9.72593,30.26291 9.88602,29.78264 0.12416,-0.37248 -3.89796,-15.22249 -7.26356,-26.81764 -1.55304,-5.35056 -1.60097,-6.1547 -0.12513,-2.09941 4.5788,12.58157 13.29332,35.56646 13.61267,35.90397 0.59021,0.62376 -0.19246,-1.82978 -10.18762,-31.93661 -5.07087,-15.27418 -9.18603,-27.81483 -9.1448,-27.8681 0.0412,-0.0533 3.25249,8.32069 7.13612,18.60881 3.88363,10.28813 9.47184,24.99756 12.41826,32.68763 2.94641,7.69007 5.35711,14.0691 5.35711,14.17562 0,0.10652 -6.20987,0.19368 -13.79972,0.19368 h -13.79972 z m 26.88537,-3.02959 c -7.88789,-21.89294 -16.88059,-46.5741 -19.7807,-54.28967 -1.89369,-5.03804 -3.38361,-9.21953 -3.31094,-9.2922 0.0727,-0.0727 1.65891,3.71087 3.52496,8.40789 4.82952,12.15628 20.57085,50.3961 21.06426,51.1706 0.29517,0.46334 0.33032,0.33943 0.12278,-0.43279 -0.38988,-1.45069 -7.78304,-21.42862 -12.88976,-34.83095 -4.16517,-10.93128 -5.13954,-14.03137 -2.35116,-7.48051 2.70927,6.36502 18.21324,39.30008 18.40839,39.10493 0.1839,-0.1839 -11.83756,-29.00232 -17.15303,-41.12006 -1.45334,-3.31318 -2.58536,-6.08104 -2.5156,-6.1508 0.0698,-0.0698 1.95648,3.7122 4.1927,8.40436 2.23623,4.69215 8.69445,17.94205 14.35161,29.44422 5.65717,11.50216 10.40502,21.2888 10.5508,21.74809 0.25345,0.79856 -0.008,0.83507 -5.98055,0.83507 h -6.24559 z m 12.04577,-2.16399 c -1.87787,-4.22518 -6.31058,-14.01183 -9.85047,-21.74809 -3.53989,-7.73626 -6.53771,-14.35807 -6.66183,-14.71513 -0.12412,-0.35705 1.68762,2.98768 4.02608,7.43276 2.33847,4.44507 4.32591,8.00779 4.41654,7.91717 0.21735,-0.21735 -12.67089,-27.69436 -20.75063,-44.23918 -3.51649,-7.20068 -6.32808,-13.09214 -6.24799,-13.09214 0.0801,0 1.15937,1.8989 2.3984,4.21978 8.29756,15.5425 31.45103,55.37506 43.77841,75.31512 2.09986,3.39662 3.81793,6.26931 3.81793,6.38377 0,0.11446 -2.59023,0.20811 -5.75606,0.20811 h -5.75607 z m 12.33705,-4.32797 c -10.23615,-18.48603 -24.30009,-43.01419 -34.61793,-60.37531 -1.93994,-3.2642 -0.4868,-1.50911 1.97087,2.38039 8.98127,14.21376 21.30418,32.67835 20.00224,29.97125 -0.11448,-0.23803 -3.9361,-6.66508 -8.49249,-14.28232 -4.55639,-7.61725 -8.69069,-14.53119 -9.18734,-15.36433 -0.84062,-1.41017 -0.84311,-1.44006 -0.0361,-0.4328 0.47681,0.5951 4.54516,6.24311 9.04076,12.55114 9.73075,13.65373 13.7221,19.05979 13.42065,18.17751 -0.1833,-0.53649 -10.26571,-15.98229 -19.49342,-29.86305 -3.5092,-5.2787 -1.33001,-2.55632 5.54309,6.92476 3.5375,4.8798 11.28413,15.39679 17.21474,23.37109 14.82429,19.93276 15.31651,20.25587 2.30757,1.51479 -7.07545,-10.19312 -23.81029,-33.90838 -26.89992,-38.1204 -0.68464,-0.93335 -1.03138,-1.50224 -0.77054,-1.2642 0.26084,0.23804 5.10716,6.47032 10.76961,13.84953 12.60914,16.43202 35.21482,45.22737 35.50558,45.22737 0.11696,0 0.066,-0.24344 -0.11334,-0.54099 -0.61333,-1.01786 -20.6833,-28.22584 -29.29148,-39.70921 -4.72863,-6.30803 -8.30872,-11.177 -7.95576,-10.81994 0.35297,0.35706 3.72112,4.447 7.48478,9.08875 9.68627,11.94618 29.23092,35.48943 29.46189,35.48943 0.10657,0 0.0462,-0.24345 -0.1341,-0.541 -0.95108,-1.56932 -25.03512,-32.8462 -30.99373,-40.2502 -1.8678,-2.32088 -3.31211,-4.21978 -3.20956,-4.21978 0.10255,0 2.59531,2.77521 5.53947,6.16713 5.1799,5.96769 22.18043,25.19551 23.81041,26.92988 0.44121,0.46947 0.80219,0.72195 0.80219,0.56106 0,-0.50549 -30.78923,-37.65403 -40.36143,-48.6978 -2.11478,-2.43989 -3.75622,-4.43617 -3.64765,-4.43617 0.10857,0 2.60525,2.67793 5.54817,5.95097 12.1221,13.48187 47.39489,51.60188 51.76098,55.93912 2.62799,2.61062 -0.13799,-0.87608 -5.54374,-6.98827 -3.23227,-3.65467 -10.40911,-11.80598 -15.94852,-18.11401 -11.31175,-12.8813 -11.24518,-12.81995 13.15034,12.11834 6.63645,6.78411 11.88753,12.01459 11.66906,11.62329 -0.70982,-1.27136 -26.72458,-29.62486 -42.99472,-46.85996 -15.44808,-16.3643 -15.77915,-16.92247 -1.9456,-3.28026 20.36462,20.08295 23.55232,23.16433 23.55232,22.7668 0,-0.20476 -2.37718,-2.83096 -5.28261,-5.83601 -2.90543,-3.00505 -7.81659,-8.09297 -10.91369,-11.30649 -3.0971,-3.21353 -7.97473,-8.25557 -10.83919,-11.20454 l -5.2081,-5.36176 8.22857,7.52575 c 11.54751,10.56122 26.74297,24.04526 39.05481,34.65618 9.4575,8.15092 11.97922,10.11066 9.73799,7.56783 -0.41657,-0.47262 1.09282,0.49329 3.3542,2.14647 2.26138,1.65319 4.79326,3.46202 5.6264,4.01962 1.67411,1.12045 -10.3975,-11.02298 -21.85639,-21.98643 l -7.3576,-7.03948 7.3868,5.76632 c 19.3559,15.10972 25.03419,19.32757 20.46673,15.20276 -4.61344,-4.16635 -42.81818,-36.65639 -57.60851,-48.99139 -3.51109,-2.92821 -6.3838,-5.39951 -6.3838,-5.49177 0,-0.0923 5.69673,4.36628 12.6594,9.90785 17.6712,14.06448 40.06426,31.60235 40.93136,32.05675 0.64507,0.33805 0.65355,0.30812 0.0764,-0.26969 -1.03927,-1.04048 -25.30106,-21.08654 -35.70598,-29.5017 -5.23687,-4.23543 -9.81373,-7.99014 -10.17079,-8.34381 -0.35706,-0.35367 4.51194,3.13348 10.81999,7.74921 12.66218,9.26518 34.03926,24.6321 35.05678,25.20059 1.8527,1.03509 -2.21639,-2.16304 -20.34158,-15.98762 -10.83082,-8.26096 -20.27667,-15.49951 -20.99079,-16.08566 -1.40241,-1.1511 -1.05478,-0.91261 15.21357,10.43724 5.98706,4.17696 11.03331,7.59448 11.21389,7.59448 0.57578,0 -26.24816,-19.94566 -39.51965,-29.3859 -2.43991,-1.73555 -4.4362,-3.23841 -4.4362,-3.33969 0,-0.10128 2.28843,1.34808 5.08539,3.22079 7.51783,5.03356 35.22964,22.75102 37.43718,23.93534 2.3877,1.28097 -0.32612,-0.73023 -8.87239,-6.5753 -8.83538,-6.04279 -12.73214,-8.87744 -8.9806,-6.53283 5.99835,3.74882 32.48647,19.57478 33.14915,19.80576 1.02832,0.35843 -3.01644,-2.48877 -14.97156,-10.53883 -5.11785,-3.44615 -9.40257,-6.38001 -9.52159,-6.5197 -0.11902,-0.13969 0.2705,0.0491 0.8656,0.41952 2.91753,1.81604 32.81159,17.85874 34.72395,18.63468 0.42109,0.17085 0.76563,0.23736 0.76563,0.14779 0,-0.1557 -19.30315,-11.95632 -25.85979,-15.80889 -1.72579,-1.01405 -3.1378,-1.93741 -3.1378,-2.05192 0,-0.11451 0.82773,0.2754 1.8394,0.86646 1.87642,1.0963 24.84021,13.40272 27.59099,14.78617 1.1018,0.55413 1.3378,0.58799 0.8656,0.12421 -0.85161,-0.83643 -31.67969,-19.01665 -41.22418,-24.3111 -1.60677,-0.8913 -2.9214,-1.69139 -2.9214,-1.77799 0,-0.0866 4.62555,2.09625 10.279,4.85078 22.72342,11.07152 36.93035,17.76826 36.24698,17.08579 -0.47557,-0.47494 -27.27062,-14.65716 -35.38138,-18.72683 -2.79697,-1.40342 -5.0854,-2.63293 -5.0854,-2.73226 0,-0.0993 3.55437,1.53436 7.89859,3.63041 15.94272,7.69223 41.54178,19.53821 41.75694,19.32305 0.1968,-0.1968 -53.16784,-26.83378 -65.55743,-32.72303 -2.67603,-1.27201 -4.80501,-2.37325 -4.73107,-2.44719 0.0739,-0.0739 3.43197,1.34112 7.4623,3.14457 15.16197,6.78451 40.10153,17.52961 40.27769,17.35345 0.186,-0.186 -21.6464,-10.55296 -33.25556,-15.79117 -3.50072,-1.57957 -6.31407,-2.92282 -6.25188,-2.985 0.0622,-0.0622 3.9002,1.41763 8.52894,3.28847 17.01589,6.87748 47.12377,18.38561 47.39398,18.1154 0.17867,-0.17867 -11.82701,-5.49924 -21.55326,-9.55178 -4.25174,-1.77153 -5.71525,-2.78108 -1.78705,-1.23274 1.90681,0.75159 25.05086,9.06989 35.10798,12.61831 l 4.0034,1.4125 v 41.70577 41.70577 H 243.10263 215.2699 Z m -94.32359,-13.3446 c 0.0208,-0.50419 0.12332,-0.60674 0.26149,-0.26149 0.12502,0.31243 0.10964,0.68572 -0.0342,0.82953 -0.14382,0.14382 -0.24611,-0.1118 -0.22732,-0.56804 z m 35.52375,-11.43308 c 0,-0.5951 0.0982,-0.83855 0.2183,-0.541 0.12006,0.29755 0.12006,0.78445 0,1.082 -0.12007,0.29754 -0.2183,0.0541 -0.2183,-0.541 z m -9.03925,-11.68554 c 0,-1.07118 0.0844,-1.50939 0.18756,-0.9738 0.10316,0.53559 0.10316,1.412 0,1.94759 -0.10316,0.53559 -0.18756,0.0974 -0.18756,-0.97379 z m -13.43426,-11.25275 c 0,-0.83313 0.0891,-1.17396 0.19793,-0.75739 0.10886,0.41656 0.10886,1.09822 0,1.51479 -0.10886,0.41657 -0.19793,0.0757 -0.19793,-0.7574 z m 40.87673,-2.8333 c -1.01672,-2.13208 -0.87369,-2.49488 0.18925,-0.48004 0.48277,0.91511 0.80121,1.74039 0.70764,1.83396 -0.0936,0.0936 -0.49717,-0.5157 -0.89689,-1.35392 z m -24.42161,-2.14387 c 0.005,-0.95216 0.0934,-1.29072 0.19696,-0.75235 0.10352,0.53836 0.0996,1.3174 -0.009,1.73119 -0.10833,0.41379 -0.19303,-0.0267 -0.18823,-0.97884 z m 56.56433,-0.541 -1.4915,-1.62299 1.623,1.49149 c 0.89264,0.82032 1.62299,1.55067 1.62299,1.62299 0,0.3305 -0.36624,0.0192 -1.75449,-1.49149 z m -74.34993,-0.9738 c 0,-0.59509 0.0982,-0.83854 0.2183,-0.54099 0.12007,0.29755 0.12007,0.78444 0,1.08199 -0.12006,0.29755 -0.2183,0.0541 -0.2183,-0.541 z m -20.37925,-1.08199 c 0,-0.23804 0.27834,-0.9197 0.61853,-1.51479 0.34019,-0.5951 0.61853,-0.88724 0.61853,-0.6492 0,0.23804 -0.27834,0.9197 -0.61853,1.51479 -0.34019,0.5951 -0.61853,0.88724 -0.61853,0.6492 z m 10.82349,-0.90166 c 0.0208,-0.50419 0.12332,-0.60674 0.26148,-0.26148 0.12503,0.31242 0.10965,0.68571 -0.0342,0.82952 -0.14382,0.14382 -0.24611,-0.1118 -0.22732,-0.56804 z m 26.83359,0 c 0.0208,-0.50419 0.12332,-0.60674 0.26148,-0.26148 0.12502,0.31242 0.10965,0.68571 -0.0342,0.82952 -0.14382,0.14382 -0.24611,-0.1118 -0.22731,-0.56804 z m 11.46594,-0.86045 c -0.1592,-0.63427 -0.20598,-1.23668 -0.10396,-1.3387 0.10202,-0.10202 0.31573,0.33346 0.47493,0.96773 0.15919,0.63428 0.20597,1.23669 0.10395,1.33871 -0.10202,0.10202 -0.31573,-0.33347 -0.47492,-0.96774 z m -4.10835,-0.87074 c 0.0208,-0.50419 0.12332,-0.60674 0.26148,-0.26149 0.12503,0.31243 0.10965,0.68572 -0.0342,0.82953 -0.14382,0.14382 -0.24611,-0.1118 -0.22732,-0.56804 z m 9.7573,-0.41347 c -0.41765,-1.08835 -0.29444,-1.36918 0.21576,-0.4918 0.25262,0.43442 0.36814,0.88103 0.25671,0.99246 -0.11144,0.11143 -0.32405,-0.11386 -0.47247,-0.50066 z m 25.64291,-0.0915 c -0.53835,-0.68645 -0.52304,-0.70175 0.1634,-0.16341 0.41657,0.3267 0.7574,0.66752 0.7574,0.7574 0,0.3562 -0.35541,0.12694 -0.9208,-0.59399 z m 3.0296,0 c -0.53835,-0.68645 -0.52304,-0.70175 0.1634,-0.16341 0.41657,0.3267 0.7574,0.66752 0.7574,0.7574 0,0.3562 -0.35541,0.12694 -0.9208,-0.59399 z m -71.75539,-0.79347 c 0.0208,-0.50418 0.12332,-0.60674 0.26148,-0.26148 0.12503,0.31243 0.10965,0.68571 -0.0342,0.82953 -0.14382,0.14381 -0.24611,-0.11181 -0.22732,-0.56805 z m -27.300553,-1.04593 c 0.508498,-0.71411 1.021922,-1.29839 1.140942,-1.29839 0.11902,0 -0.199644,0.58428 -0.708142,1.29839 -0.508498,0.71412 -1.021922,1.2984 -1.140942,1.2984 -0.119019,0 0.199644,-0.58428 0.708142,-1.2984 z m 60.193333,0.61313 c 0.0208,-0.50418 0.12332,-0.60673 0.26149,-0.26148 0.12502,0.31243 0.10964,0.68572 -0.0342,0.82953 -0.14382,0.14382 -0.24611,-0.1118 -0.22732,-0.56805 z m 27.66502,-2.34432 c -0.5085,-0.71411 -0.82716,-1.29839 -0.70814,-1.29839 0.11902,0 0.63244,0.58428 1.14094,1.29839 0.5085,0.71412 0.82716,1.2984 0.70814,1.2984 -0.11902,0 -0.63244,-0.58428 -1.14094,-1.2984 z m -120.318334,0.2694 c 0,-0.0899 0.340829,-0.43071 0.757399,-0.7574 0.686445,-0.53835 0.701753,-0.52304 0.163406,0.1634 -0.565396,0.72094 -0.920805,0.9502 -0.920805,0.594 z m 68.017894,-1.56779 c 0,-0.5951 0.0982,-0.83855 0.2183,-0.541 0.12007,0.29755 0.12007,0.78445 0,1.082 -0.12006,0.29755 -0.2183,0.0541 -0.2183,-0.541 z m 21.60582,-2.41646 c 0.0208,-0.50418 0.12333,-0.60673 0.26149,-0.26148 0.12502,0.31243 0.10964,0.68572 -0.0342,0.82953 -0.14382,0.14382 -0.24611,-0.1118 -0.22732,-0.56805 z m -21.20718,-0.43279 c 0.0208,-0.50419 0.12332,-0.60674 0.26148,-0.26149 0.12502,0.31243 0.10965,0.68572 -0.0342,0.82953 -0.14382,0.14382 -0.24611,-0.1118 -0.22731,-0.56804 z m 51.41379,-0.0721 c -0.53834,-0.68644 -0.52304,-0.70175 0.16341,-0.1634 0.41657,0.32669 0.7574,0.66752 0.7574,0.75739 0,0.35621 -0.35541,0.12695 -0.92081,-0.59399 z m -37.06516,-3.13778 c 0,-0.83314 0.0891,-1.17396 0.19793,-0.7574 0.10886,0.41657 0.10886,1.09823 0,1.5148 -0.10886,0.41656 -0.19793,0.0757 -0.19793,-0.7574 z m -9.0888,-1.29839 c 0,-0.83314 0.0891,-1.17397 0.19793,-0.7574 0.10887,0.41657 0.10887,1.09822 0,1.51479 -0.10886,0.41657 -0.19793,0.0757 -0.19793,-0.75739 z m -37.321185,-1.4618 c 0,-0.0899 0.34083,-0.4307 0.7574,-0.7574 0.686444,-0.53834 0.701753,-0.52304 0.163406,0.16341 -0.565397,0.72093 -0.920806,0.95019 -0.920806,0.59399 z M 260.98096,182.8379 c -5.11786,-2.22724 -12.94733,-5.56172 -17.39884,-7.40997 -4.4515,-1.84824 -8.04012,-3.41397 -7.9747,-3.47938 0.0654,-0.0654 2.43704,0.65983 5.27027,1.61166 2.83323,0.95184 5.33062,1.67085 5.54975,1.59781 0.57616,-0.19205 -36.58333,-14.35558 -50.24841,-19.15244 -4.3357,-1.52197 -1.89063,-1.11338 3.62824,0.6063 11.58954,3.61129 27.94091,8.33647 28.14432,8.13307 0.11649,-0.1165 -6.86516,-2.5578 -15.51479,-5.42512 -8.64963,-2.86732 -15.58366,-5.21996 -15.40895,-5.22809 0.1747,-0.008 3.77776,0.96657 8.00679,2.16601 4.22903,1.19944 13.62933,3.73962 20.88954,5.64484 7.26022,1.90522 13.49253,3.56464 13.84959,3.68761 0.42512,0.1464 0.49982,0.0791 0.2164,-0.19489 -0.46639,-0.45094 -23.71991,-7.83348 -24.85238,-7.89015 -0.37554,-0.0188 -0.46122,-0.12511 -0.19041,-0.23626 0.27082,-0.11116 2.41318,0.28478 4.7608,0.87985 3.40589,0.86332 23.92346,5.53085 28.72159,6.53385 0.77653,0.16233 0.89872,0.11402 0.4328,-0.1711 -0.58019,-0.35506 -22.91076,-6.46163 -39.7459,-10.86902 -3.491,-0.91393 -6.16314,-1.67696 -5.93808,-1.69561 0.22506,-0.0186 5.19144,1.03082 11.0364,2.33215 18.78434,4.1822 45.66412,9.77663 46.33317,9.64323 0.35706,-0.0712 -6.45953,-1.93614 -15.14799,-4.14431 -8.68846,-2.20818 -15.99195,-4.103 -16.22999,-4.21072 -0.5646,-0.2555 -0.78151,-0.29046 20.18892,3.25372 16.68955,2.82068 20.28358,3.34063 19.80869,2.86573 -0.18161,-0.18161 -42.59065,-9.05911 -50.05032,-10.47706 -2.19643,-0.4175 -3.91823,-0.83437 -3.82622,-0.92638 0.092,-0.092 6.17381,0.81467 13.51511,2.01485 14.57137,2.38217 41.10327,6.53964 41.73429,6.53964 0.22965,0 0.39471,5.88211 0.39471,14.06593 0,7.73626 -0.14607,14.04745 -0.3246,14.02485 -0.17853,-0.0226 -4.51194,-1.86336 -9.6298,-4.0906 z m -260.978252,-0.13166 0,-1.75917 2.9213984,-0.85336 c 1.6067691,-0.46935 7.3034956,-2.12412 12.6593926,-3.67727 5.355897,-1.55316 10.596105,-3.12706 11.644906,-3.49757 1.048801,-0.37051 1.972725,-0.60784 2.053164,-0.5274 0.08044,0.0804 -2.23837,1.08886 -5.152909,2.24094 -2.91454,1.15207 -9.29174,3.73743 -14.1715576,5.74524 -4.8798173,2.0078 -9.11584487,3.74892 -9.41339471,3.86915 C 0.16378631,184.40032 0.002708,183.94163 0.002708,182.70624 Z m 174.385542,-2.55322 -1.04924,-1.1902 1.1902,1.04924 c 1.11242,0.98067 1.38868,1.33115 1.04924,1.33115 -0.0775,0 -0.61311,-0.53559 -1.1902,-1.19019 z M 55.401077,179.42607 c 0,-0.11901 0.38952,-0.42486 0.865599,-0.67965 0.47608,-0.25479 0.8656,-0.36587 0.8656,-0.24685 0,0.11902 -0.38952,0.42486 -0.8656,0.67965 -0.476079,0.25479 -0.865599,0.36587 -0.865599,0.24685 z M 189.9466,177.55623 c -0.53835,-0.68644 -0.52304,-0.70175 0.1634,-0.16341 0.72094,0.5654 0.9502,0.92081 0.59399,0.92081 -0.0899,0 -0.4307,-0.34083 -0.75739,-0.7574 z M 0.00709111,172.79545 0.01147421,168.14288 20.24048,163.68004 c 11.125953,-2.45455 26.351783,-5.90745 33.835178,-7.67311 7.483395,-1.76566 13.665282,-3.15118 13.737527,-3.07893 0.07224,0.0722 -2.934375,0.95961 -6.681377,1.97193 -10.278746,2.77697 -31.250683,8.6753 -33.213516,9.34126 -4.496511,1.52559 1.266238,0.26044 18.67088,-4.09899 23.092796,-5.78417 22.522156,-5.66197 15.087501,-3.23082 -23.573677,7.70866 -38.845762,12.79934 -49.156359,16.38541 -6.5645685,2.28318 -12.06653538,4.15124 -12.2265927,4.15124 -0.16005731,0 -0.2890409,-2.09366 -0.28663019,-4.65258 z m 80.06357189,4.05638 c 0,-0.0899 0.34083,-0.4307 0.7574,-0.7574 0.686444,-0.53834 0.701752,-0.52304 0.163405,0.16341 -0.565396,0.72093 -0.920805,0.95019 -0.920805,0.59399 z m 102.316017,-2.97438 -0.82447,-0.9738 0.9738,0.82448 c 0.53559,0.45346 0.97379,0.89167 0.97379,0.97379 0,0.34635 -0.34831,0.0907 -1.12312,-0.82447 z m -2.39448,-1.94759 c -0.53835,-0.68644 -0.52304,-0.70175 0.16341,-0.16341 0.41657,0.3267 0.7574,0.66753 0.7574,0.7574 0,0.35621 -0.35541,0.12694 -0.92081,-0.59399 z M 0.08973293,166.2481 c 0.12787577,-1.07601 0.33499911,-1.13007 17.87416507,-4.66535 9.759634,-1.9672 17.885975,-3.53567 18.058534,-3.48548 0.172559,0.0502 -7.870815,2.1496 -17.874165,4.66536 l -18.18790902,4.5741 z m 90.80092407,0.64938 c 0,-0.0899 0.34083,-0.43071 0.757399,-0.7574 0.686445,-0.53835 0.701753,-0.52304 0.163406,0.1634 -0.565396,0.72094 -0.920805,0.9502 -0.920805,0.594 z M 0.002708,160.58972 v -3.84721 l 1.1901993,-0.24821 c 0.6546097,-0.13651 4.5011175,-0.64913 8.5477952,-1.13916 4.0466775,-0.49003 13.6872925,-1.75683 21.4235875,-2.81511 7.736296,-1.05827 14.845032,-2.02777 15.797192,-2.15443 0.952159,-0.12667 -7.275204,1.60444 -18.283029,3.8469 -21.9356885,4.46863 -22.3696819,4.56356 -22.0995593,4.83368 0.2084343,0.20843 33.2748703,-5.27137 49.7896303,-8.25119 5.887992,-1.06239 10.951749,-1.91443 11.252793,-1.89342 0.686842,0.0479 -0.526711,0.32617 -23.256634,5.33205 -17.797322,3.91956 -42.6791838,9.59417 -43.82097531,9.9939 -0.40643082,0.1423 -0.54099969,-0.76755 -0.54099969,-3.6578 z m 187.835092,-0.67 c -1.07118,-0.57359 -1.75284,-1.04288 -1.5148,-1.04288 0.23804,0 1.30922,0.46929 2.3804,1.04288 1.07118,0.57358 1.75284,1.04288 1.5148,1.04288 -0.23804,0 -1.30922,-0.4693 -2.3804,-1.04288 z m -114.259133,-1.082 c 0.357059,-0.23075 0.843959,-0.41954 1.081999,-0.41954 0.23804,0 0.14066,0.18879 -0.2164,0.41954 -0.35706,0.23075 -0.843959,0.41954 -1.081999,0.41954 -0.23804,0 -0.14066,-0.18879 0.2164,-0.41954 z m -36.43633,-1.16124 c 0.312427,-0.12503 0.685717,-0.10965 0.829533,0.0342 0.143816,0.14382 -0.111807,0.24611 -0.56805,0.22732 -0.504187,-0.0208 -0.606741,-0.12332 -0.261483,-0.26148 z m 229.681423,-0.41485 c -3.99114,-0.8029 -42.48095,-7.58969 -52.15237,-9.19587 -9.45457,-1.57017 -8.71595,-1.70808 1.32,-0.24646 13.51696,1.96858 52.52887,7.12415 53.64266,7.08907 0.5967,-0.0188 0.89015,-0.11516 0.65211,-0.21416 -0.62265,-0.25894 -40.77953,-6.92622 -45.56156,-7.56462 -6.25984,-0.83568 -4.39908,-0.94493 2.9779,-0.17483 13.27127,1.38541 39.77046,3.47767 39.77046,3.1401 0,-0.19024 -0.24345,-0.34483 -0.541,-0.34353 -0.29755,0.001 -8.42878,-0.97332 -18.06939,-2.16584 -9.64062,-1.19252 -20.54717,-2.53479 -24.23679,-2.98283 -9.25976,-1.12444 -6.45624,-1.07998 9.0888,0.14416 7.26021,0.57172 18.60498,1.38643 25.21058,1.81045 l 12.0102,0.77095 v 5.32195 c 0,3.99597 -0.1348,5.30937 -0.541,5.27144 -0.29755,-0.0278 -1.90432,-0.32477 -3.5706,-0.65998 z M 0.002708,154.52935 c 0,-1.53933 -0.88999336,-1.3479 13.200393,-2.83935 5.712956,-0.60471 16.105988,-1.78612 23.095624,-2.62535 13.009425,-1.562 17.027612,-1.79272 7.951219,-0.45654 -2.793372,0.41123 -13.806399,2.19947 -24.473394,3.97386 -10.6669943,1.77439 -19.47987938,3.22617 -19.58418869,3.22617 -0.10430932,0 -0.18965331,-0.57546 -0.18965331,-1.27879 z m 68.734011,-2.04645 c 0.312428,-0.12502 0.685717,-0.10965 0.829533,0.0342 0.143816,0.14381 -0.111806,0.24611 -0.568049,0.22731 -0.504187,-0.0208 -0.606742,-0.12332 -0.261484,-0.26148 z M 0.002708,150.62281 v -1.73944 h 1.7542258 c 2.0554146,0 39.7529782,-3.17851 48.8311032,-4.11724 6.678633,-0.69061 10.306377,-0.78628 5.678639,-0.14975 -1.547259,0.21282 -8.071715,1.06825 -14.498791,1.90097 -13.69129,1.77388 -39.3867019,5.32046 -40.79137755,5.63018 -0.88395164,0.1949 -0.97379945,0.0542 -0.97379945,-1.52472 z m 70.46521,1.42729 c 0.312428,-0.12502 0.685718,-0.10964 0.829533,0.0342 0.143816,0.14382 -0.111806,0.24611 -0.568049,0.22732 -0.504187,-0.0208 -0.606742,-0.12333 -0.261484,-0.26149 z m 131.138322,-0.43279 c 0.31243,-0.12503 0.68572,-0.10965 0.82954,0.0342 0.14381,0.14382 -0.11181,0.24611 -0.56805,0.22732 -0.50419,-0.0208 -0.60674,-0.12332 -0.26149,-0.26148 z m -1.73119,-0.4328 c 0.31242,-0.12502 0.68571,-0.10965 0.82953,0.0342 0.14381,0.14381 -0.11181,0.2461 -0.56805,0.22731 -0.50419,-0.0208 -0.60674,-0.12332 -0.26148,-0.26148 z m -150.18152,-1.2984 c 0.312427,-0.12502 0.685717,-0.10964 0.829533,0.0342 0.143816,0.14382 -0.111807,0.24611 -0.56805,0.22732 -0.504187,-0.0208 -0.606741,-0.12333 -0.261483,-0.26149 z m 161.73186,-0.13714 c -1.15818,-0.29471 -1.18155,-0.33039 -0.2164,-0.33039 0.5951,0 1.66628,0.14867 2.3804,0.33039 1.15817,0.2947 1.18154,0.33038 0.2164,0.33038 -0.5951,0 -1.66628,-0.14867 -2.3804,-0.33038 z m -2.9214,-0.71943 c 0.29755,-0.12007 0.78445,-0.12007 1.082,0 0.29755,0.12006 0.0541,0.21829 -0.541,0.21829 -0.5951,0 -0.83855,-0.0982 -0.541,-0.21829 z m -139.794321,-0.4328 c 0.29755,-0.12007 0.78445,-0.12007 1.082,0 0.29755,0.12006 0.0541,0.21829 -0.541,0.21829 -0.5951,0 -0.838549,-0.0982 -0.541,-0.21829 z m -68.706961,-5.84123 0,-5.69507 8.7641951,0.28396 c 4.8203069,0.15617 18.4048099,0.31362 30.1877829,0.34987 17.023071,0.0524 19.956749,0.13686 14.282392,0.41128 -14.765529,0.71407 -30.929465,1.74632 -31.149668,1.98925 -0.125573,0.13853 8.048981,0.15225 18.165675,0.0305 11.972339,-0.1441 16.883013,-0.0891 14.065992,0.15763 -10.725512,0.93928 -35.02412,3.44635 -35.210717,3.63295 -0.336451,0.33645 2.010014,0.24569 17.033128,-0.65881 7.855315,-0.47295 16.327371,-0.94841 18.826789,-1.05659 l 4.544398,-0.19668 -3.678798,0.42532 C 44.431224,143.74742 1.3999395,148.45343 0.76010757,148.45212 0.07722568,148.45073 0.002708,147.89026 0.002708,142.75551 Z m 70.87096,5.40843 c 0.29755,-0.12006 0.78445,-0.12006 1.082,0 0.297549,0.12006 0.0541,0.2183 -0.541,0.2183 -0.5951,0 -0.83855,-0.0982 -0.541,-0.2183 z m 2.191049,-0.44182 c 0.312427,-0.12502 0.685717,-0.10964 0.829533,0.0342 0.143816,0.14382 -0.111807,0.24611 -0.56805,0.22732 -0.504187,-0.0208 -0.606742,-0.12332 -0.261483,-0.26149 z m -22.072788,-0.43279 c 0.312428,-0.12503 0.685717,-0.10965 0.829533,0.0342 0.143816,0.14381 -0.111806,0.2461 -0.568049,0.22731 -0.504188,-0.0208 -0.606742,-0.12332 -0.261484,-0.26148 z m 154.482461,-0.85658 c 0.29755,-0.12007 0.78445,-0.12007 1.082,0 0.29755,0.12006 0.0541,0.2183 -0.541,0.2183 -0.5951,0 -0.83855,-0.0982 -0.541,-0.2183 z m 57.67057,-1.063 c -4.1657,-0.44673 -11.37181,-1.19289 -16.01359,-1.65813 l -8.4396,-0.84591 7.7904,0.24574 c 4.28472,0.13516 7.68378,0.13281 7.55347,-0.005 -0.36788,-0.38967 -45.88294,-4.10543 -57.75824,-4.71529 -1.1902,-0.0611 15.12094,-0.12417 36.24698,-0.14011 l 38.41098,-0.029 v 4.03236 c 0,2.2178 -0.0487,4.00883 -0.1082,3.98006 -0.0595,-0.0288 -3.5165,-0.4178 -7.6822,-0.86453 z M 60.270074,143.82426 c 0.41657,-0.10886 1.09823,-0.10886 1.514799,0 0.41657,0.10886 0.07574,0.19792 -0.757399,0.19792 -0.83314,0 -1.17397,-0.0891 -0.7574,-0.19792 z m 4.138648,-0.43011 c 0.312427,-0.12503 0.685717,-0.10965 0.829533,0.0342 0.143815,0.14382 -0.111807,0.24611 -0.56805,0.22732 -0.504187,-0.0208 -0.606742,-0.12332 -0.261483,-0.26148 z m 150.587268,-0.01 c 0.53559,-0.10316 1.41201,-0.10316 1.9476,0 0.53559,0.10316 0.0974,0.18756 -0.9738,0.18756 -1.07118,0 -1.50939,-0.0844 -0.9738,-0.18756 z m 20.12519,-0.87015 c 0.65461,-0.0992 1.72578,-0.0992 2.38039,0 0.65461,0.0992 0.11902,0.1803 -1.19019,0.1803 -1.30922,0 -1.84481,-0.0811 -1.1902,-0.1803 z M 60.92432,141.6525 c 0.538365,-0.10352 1.317404,-0.0996 1.731199,0.009 0.413794,0.10832 -0.02669,0.19302 -0.978846,0.18822 -0.952159,-0.005 -1.290718,-0.0934 -0.752353,-0.19696 z m 128.53648,-3.90216 c 0.77363,-0.096 2.03957,-0.096 2.8132,0 0.77363,0.096 0.14066,0.17456 -1.4066,0.17456 -1.54726,0 -2.18023,-0.0786 -1.4066,-0.17456 z M 62.658224,137.31696 c 0.777892,-0.0963 1.946452,-0.0943 2.596798,0.004 0.650347,0.0987 0.01389,0.17757 -1.41435,0.17514 -1.428239,-0.002 -1.960341,-0.0832 -1.182448,-0.17956 z m 148.550766,-4.12631 c 17.23352,-0.79252 37.77852,-2.03384 38.02938,-2.29772 0.15037,-0.15819 -7.90652,-0.18318 -17.90419,-0.0556 -11.90752,0.15201 -16.75936,0.0992 -14.06599,-0.1532 23.32969,-2.18594 32.4127,-3.13127 33.32558,-3.46844 0.73889,-0.2729 -0.0846,-0.32961 -2.5968,-0.17884 -9.02063,0.5414 -27.01975,1.52283 -31.16158,1.69914 l -4.5444,0.19345 3.6788,-0.42663 c 7.48718,-0.86829 54.18513,-6.02015 54.56842,-6.02015 0.22044,0 0.39715,2.48077 0.39715,5.57571 v 5.5757 l -33.43379,-0.0575 c -21.98412,-0.0378 -30.98822,-0.17 -26.29258,-0.38593 z m -174.310103,-0.21257 -36.896179,-0.11309 0,-3.89275 c 0,-3.6336 0.05896012,-3.89275 0.88565406,-3.89275 0.78463724,0 20.04553294,1.84782 31.14152794,2.9876 l 4.111598,0.42234 -4.111598,-0.18457 c -10.085423,-0.45275 -16.196514,-0.61596 -15.797191,-0.42189 0.863806,0.4198 30.418039,2.8264 60.591966,4.934 l 5.193597,0.36276 -4.111598,-0.0443 c -2.261379,-0.0243 -20.714878,-0.0952 -41.007777,-0.15737 z m 173.363353,-1.70227 c 0.31243,-0.12503 0.68572,-0.10965 0.82953,0.0342 0.14382,0.14382 -0.1118,0.24611 -0.56805,0.22732 -0.50418,-0.0208 -0.60674,-0.12332 -0.26148,-0.26148 z m -0.89265,-2.17378 c 0.53559,-0.10316 1.41201,-0.10316 1.9476,0 0.53559,0.10316 0.0974,0.18756 -0.9738,0.18756 -1.07118,0 -1.50939,-0.0844 -0.9738,-0.18756 z M 58.349525,127.81342 c 0.312428,-0.12502 0.685717,-0.10964 0.829533,0.0342 0.143816,0.14382 -0.111807,0.24611 -0.56805,0.22732 -0.504187,-0.0208 -0.606741,-0.12333 -0.261483,-0.26149 z m -5.220647,-0.44258 c 0.53559,-0.10316 1.412009,-0.10316 1.947599,0 0.53559,0.10315 0.09738,0.18756 -0.973799,0.18756 -1.07118,0 -1.50939,-0.0844 -0.9738,-0.18756 z m 153.211112,0.0188 c 0.29755,-0.12006 0.78445,-0.12006 1.082,0 0.29755,0.12007 0.0541,0.2183 -0.541,0.2183 -0.5951,0 -0.83855,-0.0982 -0.541,-0.2183 z M 37.872687,126.34666 C 27.289819,125.48373 2.912422,123.7811 1.1404019,123.7811 H 0.002708 v -5.43914 c 0,-4.9778 0.06424167,-5.41995 0.75739957,-5.21287 1.80086903,0.538 57.08675843,10.19031 58.72864943,10.25338 0.489234,0.0188 0.66017,0.1277 0.379856,0.24201 -0.280314,0.11432 -4.662411,-0.3851 -9.737995,-1.10982 -12.13582,-1.73281 -48.2133464,-6.52393 -49.1258176,-6.52393 -0.39245757,0 -0.61375607,0.0998 -0.49177443,0.22179 0.26145142,0.26145 42.59905603,7.36095 46.57123603,7.80942 1.495769,0.16888 2.626302,0.40034 2.512296,0.51434 -0.114005,0.11401 -2.116856,-0.009 -4.450778,-0.27393 -5.590041,-0.6339 -38.7657893,-3.51084 -40.4856967,-3.51084 -0.7365841,0 -1.2473271,0.0919 -1.1349844,0.20426 0.1123426,0.11234 8.8603081,1.27291 19.4399221,2.57904 10.579615,1.30613 21.475402,2.65274 24.21286,2.99247 6.99988,0.86871 2.490246,0.78118 -9.305194,-0.18062 z m 172.367553,0.59072 c 0.53836,-0.10353 1.3174,-0.0996 1.73119,0.009 0.4138,0.10833 -0.0267,0.19303 -0.97884,0.18822 -0.95216,-0.005 -1.29072,-0.0934 -0.75235,-0.19695 z m 12.00514,-1.46968 c 13.23361,-1.73981 47.0134,-6.40636 47.93258,-6.6217 0.61677,-0.1445 0.7574,0.1197 0.7574,1.42296 v 1.6004 l -19.58419,1.6342 c -10.77131,0.89882 -23.38201,2.00938 -28.02379,2.46792 -11.83621,1.16926 -12.27032,0.96714 -1.082,-0.50378 z M 67.00552,124.78384 c 0.312428,-0.12502 0.685717,-0.10965 0.829533,0.0342 0.143816,0.14381 -0.111806,0.2461 -0.568049,0.22731 -0.504188,-0.0208 -0.606742,-0.12332 -0.261484,-0.26148 z m -3.056648,-0.42378 c 0.29755,-0.12007 0.78445,-0.12007 1.081999,0 0.29755,0.12006 0.0541,0.21829 -0.540999,0.21829 -0.5951,0 -0.83855,-0.0982 -0.541,-0.21829 z m -2.813198,-0.44451 c 0.416569,-0.10886 1.098229,-0.10886 1.514799,0 0.41657,0.10887 0.07574,0.19793 -0.7574,0.19793 -0.833139,0 -1.173969,-0.0891 -0.757399,-0.19793 z m 158.621106,-0.42109 c 0.29755,-0.12006 0.78445,-0.12006 1.082,0 0.29755,0.12007 0.0541,0.2183 -0.541,0.2183 -0.5951,0 -0.83855,-0.0982 -0.541,-0.2183 z m 2.8132,-0.4445 c 0.41657,-0.10886 1.09823,-0.10886 1.5148,0 0.41657,0.10886 0.0757,0.19793 -0.7574,0.19793 -0.83314,0 -1.17397,-0.0891 -0.7574,-0.19793 z m -23.15478,-0.42109 c 0.29755,-0.12007 0.78445,-0.12007 1.082,0 0.29755,0.12006 0.0541,0.21829 -0.541,0.21829 -0.5951,0 -0.83855,-0.0982 -0.541,-0.21829 z m 27.80738,-0.18368 c 1.30922,-0.24214 11.24197,-1.90287 22.07279,-3.69052 10.83081,-1.78765 20.1306,-3.35671 20.66619,-3.48682 0.85077,-0.20666 0.9738,-0.0676 0.9738,1.10052 0,1.03737 -0.21827,1.38297 -0.9738,1.54186 -1.07292,0.22563 -38.93108,4.45565 -42.73898,4.77536 l -2.3804,0.19986 z M 63.543122,122.18705 c 0.312428,-0.12502 0.685717,-0.10965 0.829533,0.0342 0.143816,0.14381 -0.111806,0.24611 -0.56805,0.22731 -0.504187,-0.0208 -0.606741,-0.12332 -0.261483,-0.26148 z m 138.036068,0.009 c 0.29755,-0.12007 0.78445,-0.12007 1.082,0 0.29755,0.12006 0.0541,0.2183 -0.541,0.2183 -0.5951,0 -0.83855,-0.0982 -0.541,-0.2183 z m -140.659916,-0.4328 c 0.29755,-0.12006 0.784449,-0.12006 1.081999,0 0.29755,0.12006 0.0541,0.2183 -0.541,0.2183 -0.595099,0 -0.838549,-0.0982 -0.540999,-0.2183 z m 144.879716,-0.38738 c 1.42824,-0.32869 10.97148,-2.44199 21.20719,-4.69623 10.23571,-2.25424 24.10269,-5.37641 30.81549,-6.93815 6.71281,-1.56174 12.41712,-2.83953 12.67625,-2.83953 0.31317,0 0.42921,1.26461 0.34609,3.77185 l -0.12505,3.77185 -11.2528,1.41848 c -6.18903,0.78017 -16.82013,2.19898 -23.62464,3.15292 -6.80452,0.95394 -12.54994,1.72298 -12.7676,1.70899 -0.21765,-0.014 8.7434,-1.86585 19.91346,-4.11525 11.17006,-2.2494 20.40493,-4.18555 20.52192,-4.30255 0.117,-0.11699 -0.12093,-0.21272 -0.52873,-0.21272 -0.9549,0 -30.61552,4.95895 -46.52269,7.77811 -12.20622,2.16325 -15.62483,2.64506 -10.65889,1.50223 z M 47.610681,119.67481 C 41.778705,118.66753 29.216692,116.63932 19.695097,115.16767 10.173502,113.69602 1.8493426,112.38769 1.1969642,112.26025 L 0.01082176,112.02856 0.00599069,56.014734 0.00115962,9.086249e-4 H 27.835501 55.669843 L 59.294486,6.6010759 C 68.966011,24.212103 94.108557,68.186827 97.27839,73.035547 c 0.350139,0.535587 0.537972,0.973795 0.417408,0.973795 -0.120564,0 -1.549807,-2.09366 -3.176097,-4.652577 C 89.533594,61.511276 75.705904,40.493676 75.228427,40.03471 c -0.247639,-0.238039 -0.11747,0.226064 0.289264,1.03134 0.623558,1.234553 16.102781,27.017148 18.609042,30.995702 1.647363,2.6151 -0.145231,0.315108 -3.035871,-3.895181 -4.22691,-6.1566 -18.958077,-26.625062 -20.090777,-27.915462 -1.596199,-1.818428 -0.676572,-0.368277 10.704044,16.879117 6.047152,9.164494 10.800807,16.467958 10.56368,16.229919 C 92.030681,73.122106 88.865662,68.837408 85.234432,63.838592 74.850136,49.543387 57.541588,26.272824 56.584154,25.319583 c -1.199687,-1.194432 -0.595452,-0.161581 2.278749,3.895181 1.349197,1.90431 5.836851,8.331359 9.972565,14.282329 7.260676,10.44755 21.501901,30.547001 23.688999,33.433634 0.586149,0.773627 0.969123,1.406593 0.851054,1.406593 -0.118069,0 -2.22459,-2.677936 -4.681157,-5.95097 C 78.716049,59.091636 46.030454,17.312823 45.60767,17.312823 c -0.120962,0 0.228359,0.632967 0.776269,1.406593 2.263271,3.195651 21.955506,29.859795 29.326385,39.709203 4.364384,5.831951 7.638581,10.311409 7.275994,9.954351 C 82.62373,68.025912 79.247862,63.935972 75.484388,59.294215 66.062111,47.673057 48.105589,25.94004 47.055856,24.886785 46.58137,24.410708 46.35324,24.313328 46.5489,24.670386 c 0.736824,1.344623 26.002549,34.284578 32.366705,42.197791 3.005123,3.73658 0.184139,0.722961 -6.706544,-7.164513 C 60.657259,46.480804 50.863906,35.555239 50.705298,35.713847 c -0.242178,0.242176 30.05127,36.827922 39.861875,48.141646 2.115738,2.439898 3.763306,4.436178 3.661261,4.436178 -0.102044,0 -4.643918,-4.913986 -10.093051,-10.919969 C 72.163928,64.17688 60.713021,51.770047 47.677886,37.870721 35.830793,25.238201 36.220227,25.64028 36.415422,26.242571 c 0.139143,0.429335 13.7046,15.95618 30.199483,34.565935 5.3307,6.01417 5.311324,5.997924 -2.580327,-2.163488 C 43.293438,37.194884 28.798255,22.719166 35.496913,30.145677 41.140799,36.402809 51.586845,47.803819 61.01429,57.995821 72.088074,69.967679 74.839254,72.908363 86.315963,85.040292 90.909724,89.896318 86.958966,86.19199 74.679356,74.129523 64.453922,64.084907 55.996371,55.957871 55.884798,56.069443 c -0.111573,0.111572 1.535476,2.003812 3.660108,4.204979 2.124631,2.201166 9.509401,9.843732 16.410599,16.98348 9.381473,9.705758 11.183419,11.719819 7.141196,7.981818 -12.31234,-11.3857 -30.581147,-27.626239 -46.603821,-41.4297 -5.897643,-5.080793 -7.954715,-6.570479 -5.728632,-4.148549 0.808038,0.879128 -6.223562,-4.024905 -9.949334,-6.938942 -3.095598,-2.421159 7.734468,8.384476 23.766169,23.712555 l 6.708396,6.413968 -8.223195,-6.439765 C 28.923847,45.334034 21.583115,39.733626 21.42107,39.89567 c -0.08592,0.08592 3.473494,3.268493 7.909803,7.072392 18.496964,15.860165 36.06858,30.788722 46.736392,39.706473 6.248547,5.223468 11.360994,9.571504 11.360994,9.6623 0,0.0908 -5.696727,-4.369715 -12.659393,-9.912249 C 58.391022,73.38723 34.161566,54.377614 33.328289,53.911704 31.37064,52.817122 43.794119,63.227427 65.603536,80.956882 82.198266,94.447178 82.908342,95.048866 77.690264,91.198658 64.422226,81.408712 38.776601,62.871519 34.193889,59.75857 c -4.546617,-3.088429 2.130047,2.186742 19.692389,15.558775 10.711794,8.156001 19.768129,15.130143 20.125188,15.498093 0.35706,0.367951 -0.03246,0.177237 -0.865599,-0.423809 -2.313924,-1.669316 -24.378615,-17.035125 -24.994186,-17.405904 -0.29755,-0.179224 -0.541,-0.234751 -0.541,-0.123394 0,0.255865 20.247767,15.355 32.243582,24.044637 4.998837,3.621102 9.575695,6.959062 10.170794,7.417692 0.5951,0.45862 -3.397478,-2.05143 -8.872395,-5.577893 C 75.677745,95.220304 66.621411,89.448102 61.027474,85.919652 55.433537,82.391203 50.377312,79.193032 49.791419,78.812606 49.205526,78.432179 48.865778,78.347523 49.036423,78.62448 c 0.170646,0.276958 4.837351,3.570158 10.370456,7.318224 9.127878,6.183127 13.327307,9.19241 9.41099,6.743851 C 63.120182,89.124248 34.225251,71.845353 33.96581,71.845353 c -0.548149,0 1.383748,1.365151 12.562872,8.877401 10.342266,6.94989 13.461089,9.17527 10.170794,7.257185 -4.324412,-2.520926 -29.041445,-15.75411 -32.892781,-17.610376 -1.302896,-0.627969 -1.393712,-0.633115 -0.6492,-0.03679 0.820803,0.657435 17.627077,10.950191 24.344986,14.909729 3.459559,2.039066 4.357612,2.947605 1.082,1.094635 -1.13069,-0.639616 -6.827416,-3.695162 -12.659393,-6.790101 -5.831977,-3.09494 -11.446613,-6.111101 -12.47697,-6.702581 -1.030357,-0.59148 -1.963533,-0.985262 -2.073725,-0.875071 -0.289769,0.289768 31.447353,19.087292 43.223679,25.600878 5.839804,3.230044 2.660994,1.821776 -9.521595,-4.218234 C 39.404841,85.582187 19.419105,76.088657 19.198374,76.309387 c -0.160332,0.160331 25.610884,13.854462 33.064905,17.5698 1.963829,0.97884 3.570598,1.869997 3.570598,1.98035 0,0.207251 -2.825203,-1.067077 -11.036394,-4.978044 -16.381789,-7.802598 -34.135052,-15.990552 -34.304214,-15.82139 -0.216014,0.216013 42.184032,21.458823 60.138372,30.129877 6.115432,2.95344 11.068367,5.4205 11.006523,5.48235 -0.06185,0.0618 -2.728261,-1.0714 -5.92537,-2.51832 -11.9773,-5.42059 -42.500744,-18.591972 -42.676902,-18.415815 -0.100705,0.100705 1.141136,0.811669 2.759647,1.579922 7.592851,3.604069 30.867861,14.450783 32.710901,15.244063 1.137933,0.48979 2.011128,0.94836 1.940434,1.01906 -0.0707,0.0707 -4.994309,-1.81531 -10.941365,-4.19111 C 43.9393,97.171537 15.935206,86.497307 15.728665,86.703847 c -0.190001,0.19 4.727458,2.389958 18.113576,8.103599 4.686411,2.000316 8.463647,3.694037 8.393859,3.763825 -0.06979,0.06979 -1.956526,-0.571659 -4.192749,-1.425437 C 29.58672,93.917138 1.2182913,83.902242 1.0385049,84.082028 0.84063921,84.279893 13.584273,89.868669 26.489717,95.243769 c 4.213121,1.754759 7.612636,3.238054 7.554478,3.296212 -0.05816,0.05816 -2.213745,-0.577811 -4.790193,-1.413264 -2.576448,-0.835453 -4.771723,-1.431733 -4.87839,-1.325068 -0.106666,0.106666 1.91274,1.01057 4.487569,2.008675 12.127922,4.701256 29.022988,11.071816 38.538404,14.531536 5.76714,2.09688 10.439987,3.85823 10.384104,3.91411 -0.05588,0.0559 -6.527291,-1.83107 -14.380907,-4.19324 -18.292917,-5.50205 -20.178031,-6.03419 -19.924824,-5.62449 0.115076,0.18619 6.631422,2.45493 14.480769,5.04165 14.218726,4.68571 18.015306,6.16428 9.496564,3.69844 -9.133658,-2.64385 -35.933518,-9.64569 -36.137715,-9.4415 -0.237708,0.23771 0.293184,0.41448 13.261507,4.41568 5.117857,1.57904 9.792094,3.05288 10.387194,3.2752 0.981717,0.36675 0.96166,0.38028 -0.2164,0.146 -0.714119,-0.14201 -8.114995,-1.80115 -16.446391,-3.68698 -18.230731,-4.12655 -17.492524,-3.97311 -16.66279,-3.46355 0.759698,0.46655 44.378366,12.16434 45.35833,12.16434 0.364491,0 0.555626,0.10708 0.424745,0.23797 -0.130881,0.13088 -5.081028,-0.83942 -11.000327,-2.15622 -17.873776,-3.97617 -45.752921,-9.78936 -46.212902,-9.63604 -0.4541931,0.1514 2.944589,1.07929 20.951748,5.71999 6.070017,1.56433 10.354735,2.74896 9.521595,2.63252 C 39.852746,115.2693 31.029819,113.79972 21.079382,112.12 4.3185615,109.29063 0.8628287,108.78609 1.3371739,109.23763 c 0.2082992,0.19828 22.9336231,4.98175 44.3259081,9.33019 16.728498,3.40042 17.384255,3.77315 1.947599,1.10699 z m 173.471549,1.21385 c 0.31243,-0.12502 0.68572,-0.10965 0.82954,0.0342 0.14381,0.14381 -0.11181,0.2461 -0.56805,0.22731 -0.50419,-0.0208 -0.60674,-0.12332 -0.26149,-0.26148 z m -151.047111,-1.2984 c 0.312427,-0.12502 0.685717,-0.10964 0.829532,0.0342 0.143816,0.14382 -0.111806,0.24611 -0.568049,0.22732 -0.504187,-0.0208 -0.606742,-0.12333 -0.261483,-0.26149 z m -1.731199,-0.43279 c 0.312427,-0.12503 0.685717,-0.10965 0.829532,0.0342 0.143816,0.14382 -0.111806,0.24611 -0.568049,0.22732 -0.504187,-0.0208 -0.606742,-0.12332 -0.261483,-0.26148 z m 133.41954,-0.74132 c 0.0992,-0.0943 3.49125,-1.06098 7.53793,-2.14826 11.8288,-3.17823 34.92747,-9.74153 35.18288,-9.99694 0.49527,-0.49527 -1.25556,-0.0913 -20.5301,4.73645 -22.73786,5.69525 -23.21728,5.80683 -18.54798,4.31646 14.46785,-4.61792 41.60122,-13.6112 52.31371,-17.339235 7.11091,-2.474659 13.0024,-4.49938 13.09219,-4.49938 0.0898,0 0.16327,2.111358 0.16327,4.691906 v 4.691909 l -2.2722,0.49176 c -22.08058,4.77887 -51.89467,11.55014 -61.43225,13.95227 -5.02723,1.26616 -5.85314,1.43157 -5.50745,1.10306 z M 42.768734,115.69508 c 0.312427,-0.12502 0.685717,-0.10964 0.829533,0.0342 0.143816,0.14382 -0.111807,0.24611 -0.56805,0.22732 -0.504187,-0.0208 -0.606742,-0.12333 -0.261483,-0.26149 z m 190.404846,-2.58777 c 0.29755,-0.12006 0.78445,-0.12006 1.082,0 0.29755,0.12007 0.0541,0.2183 -0.541,0.2183 -0.5951,0 -0.83855,-0.0982 -0.541,-0.2183 z m -37.54538,-0.57896 c 0.35706,-0.23075 0.84396,-0.41954 1.082,-0.41954 0.23804,0 0.14066,0.18879 -0.2164,0.41954 -0.35706,0.23075 -0.84396,0.41954 -1.082,0.41954 -0.23804,0 -0.14066,-0.18879 0.2164,-0.41954 z m 56.90519,-4.10962 c 9.75525,-2.50048 17.88648,-4.54634 18.06939,-4.54634 0.18292,0 0.33258,0.43863 0.33258,0.97473 0,0.93646 -0.66678,1.10894 -16.98739,4.39414 -9.34307,1.88068 -17.47429,3.48791 -18.06939,3.57162 -0.5951,0.0837 6.89956,-1.89366 16.65481,-4.39415 z m -168.134729,3.67682 c -0.35706,-0.23075 -0.45444,-0.41954 -0.2164,-0.41954 0.23804,0 0.724939,0.18879 1.081999,0.41954 0.35706,0.23075 0.45444,0.41955 0.2164,0.41955 -0.23804,0 -0.72494,-0.1888 -1.081999,-0.41955 z M 197.7922,111.73577 c 0.35706,-0.22061 1.1361,-0.53135 1.7312,-0.69052 0.75198,-0.20115 0.88398,-0.16708 0.4328,0.11169 -0.35706,0.22061 -1.1361,0.53135 -1.7312,0.69053 -0.75198,0.20114 -0.88399,0.16707 -0.4328,-0.1117 z m -11.24425,-0.64921 c 0.12372,-0.1289 3.33726,-1.82825 7.1412,-3.77633 8.71238,-4.46181 25.69003,-13.322307 30.41963,-15.875754 6.96575,-3.760711 3.10698,-2.239945 -7.94557,3.1314 -6.14861,2.98812 -11.05668,5.310332 -10.90682,5.160471 0.14986,-0.149861 4.42321,-2.547348 9.49634,-5.32775 14.66991,-8.040068 26.7575,-14.901893 26.57399,-15.085397 -0.093,-0.09298 -6.12847,2.750426 -13.4122,6.318691 -7.28372,3.568264 -13.24313,6.429492 -13.24313,6.358282 0,-0.07121 1.89891,-1.256643 4.21979,-2.634296 7.08928,-4.208117 28.41553,-17.59365 29.10579,-18.268398 0.50361,-0.492301 0.33199,-0.475068 -0.76534,0.07685 -1.46487,0.736778 -21.33278,11.620403 -24.76985,13.568901 -4.77368,2.706234 -0.0848,-0.378335 11.6856,-7.687396 11.46266,-7.117948 16.31968,-10.35097 12.98399,-8.642646 -3.24838,1.663605 -29.15279,16.374971 -37.86998,21.506729 -2.61844,1.541459 -5.44246,3.202432 -6.2756,3.691052 -3.42719,2.009983 -0.0221,-0.404671 10.82,-7.672712 14.11175,-9.459892 31.5919,-21.587213 31.39677,-21.782345 -0.13656,-0.136558 -19.55287,12.028355 -29.88197,18.721969 -5.94178,3.850479 -5.8428,3.790966 -5.8428,3.512906 0,-0.126927 1.70415,-1.37665 3.787,-2.77716 7.13757,-4.799311 36.24653,-25.251629 36.89618,-25.923713 0.57706,-0.596997 0.57706,-0.633664 0,-0.330011 -1.06626,0.56107 -59.12156,39.31697 -64.16257,42.832928 -2.55893,1.78477 -4.65259,3.16978 -4.65259,3.07779 0,-0.092 3.16484,-2.46471 7.03299,-5.272697 13.60725,-9.877858 38.38701,-28.35044 38.6918,-28.843596 0.16955,-0.274337 -0.26248,-0.101427 -0.96007,0.384244 -3.49084,2.43036 -24.09316,16.848999 -29.40033,20.575969 -7.1227,5.001929 -6.72053,4.65096 8.89476,-7.762303 13.19547,-10.489638 30.99545,-24.945053 32.00481,-25.991189 1.33439,-1.382998 -2.12763,1.0699 -13.20039,9.352719 -6.18903,4.629619 -10.96065,8.122596 -10.60359,7.762171 0.35706,-0.360425 5.22605,-4.514227 10.81999,-9.230671 5.59394,-4.716444 12.89743,-10.898018 16.22999,-13.736831 11.97977,-10.20487 10.70736,-9.33734 -16.87919,11.508215 -6.82915,5.160392 -7.0308,5.12577 -1.2134,-0.208327 2.1456,-1.967348 3.74544,-3.885445 2.0452,-2.452062 -0.45749,0.385684 -5.01914,4.075072 -10.13699,8.19864 -9.8041,7.899368 -23.11659,18.885241 -32.89278,27.144112 -6.56189,5.543446 -6.89266,5.872106 11.57739,-11.503521 7.43875,-6.99797 13.52499,-12.835774 13.52499,-12.972899 0,-0.137125 -0.43821,0.137356 -0.9738,0.609958 -13.50955,11.920769 -17.26054,15.243269 -20.88259,18.497065 -2.38039,2.138388 3.17026,-3.684493 12.3348,-12.939736 9.16453,-9.255243 16.18064,-16.447546 15.59135,-15.982895 -0.8895,0.701356 -10.44329,9.389228 -19.6908,17.906094 -1.18352,1.090007 -0.20918,-0.06314 2.16518,-2.562547 4.83948,-5.094339 19.66873,-21.153667 21.38113,-23.154685 1.59513,-1.863975 -11.90691,11.369479 -26.27412,25.751472 l -12.32206,12.334739 8.16806,-8.877156 c 9.03136,-9.8154 34.88012,-38.540821 36.21509,-40.2454 0.46606,-0.595097 -4.95805,4.760776 -12.05358,11.901941 -7.09554,7.141164 -11.73666,11.620622 -10.3136,9.95435 5.67978,-6.650531 24.43937,-29.484616 25.42324,-30.945046 1.49571,-2.220207 -13.8224,14.699696 -31.92348,35.261673 -11.29422,12.829693 -13.36029,15.027064 -7.53901,8.018112 10.2813,-12.378915 40.42948,-49.557633 47.64218,-58.752309 0.23341,-0.297548 0.31123,-0.540997 0.17293,-0.540997 -0.3303,0 -23.42825,27.210035 -40.0457,47.174966 -14.98954,18.009084 -18.00549,21.532084 -13.15301,15.364324 7.68423,-9.767054 17.83332,-22.832199 27.5684,-35.489424 5.67559,-7.379203 10.63212,-13.802895 11.01452,-14.274871 0.65774,-0.811828 0.65213,-0.824607 -0.10407,-0.236805 -0.97151,0.755171 -17.1514,20.144065 -26.0148,31.174394 -6.28027,7.815665 -8.94035,10.926377 -6.58518,7.70073 1.58756,-2.174322 24.83411,-35.076197 26.66402,-37.738777 5.42153,-7.888492 -6.30887,7.22228 -23.99031,30.903642 -6.71204,8.98967 -10.66677,13.965486 -7.05165,8.872356 6.53204,-9.202635 40.27809,-59.161704 41.65897,-61.6736941 1.3972,-2.5416923 -6.42886,8.0977221 -21.96645,29.8630521 -5.6926,7.9743 -10.54529,14.693487 -10.78375,14.931526 -0.23845,0.238039 1.58987,-2.683347 4.06295,-6.491968 5.52848,-8.514052 6.54658,-10.17075 6.25028,-10.17075 -0.34373,0 -18.82524,26.533354 -28.18656,40.4666 -4.47807,6.665087 -8.34215,12.313099 -8.58685,12.551138 -0.24469,0.238039 -0.0775,-0.151479 0.37151,-0.865596 9.71083,-15.443831 31.3026,-52.801858 45.77628,-79.2020075 l 4.98284,-9.08875495 27.5281,-0.11140388 27.52811,-0.11140388 -0.1103,42.95619321 -0.1103,42.956194 -4.7608,1.66842 c -13.24821,4.642831 -40.00694,14.185223 -51.68519,18.431383 -7.24131,2.6329 -13.21612,4.73699 -13.27736,4.67575 -0.0806,-0.0806 47.9928,-19.475563 55.79015,-22.508266 0.47216,-0.183643 0.77211,-0.420263 0.66655,-0.525822 -0.23707,-0.237067 -24.4414,8.690046 -42.78092,15.778588 -18.87256,7.29456 -18.93188,7.2635 -1.082,-0.56664 16.66321,-7.30958 38.45758,-17.190367 38.94786,-17.657563 0.23578,-0.224674 -0.3485,-0.128068 -1.2984,0.21468 -2.00168,0.722261 -33.95213,14.045646 -39.99455,16.677793 -6.51471,2.83787 -4.9717,1.79292 2.46049,-1.6663 12.87609,-5.993007 19.58527,-9.243639 19.41987,-9.409035 -0.17506,-0.175057 -25.11476,10.572625 -36.84726,15.879195 -8.29369,3.75122 -10.02654,4.49702 -9.72945,4.18749 z M 71.414668,108.20037 c -0.35706,-0.23075 -0.45444,-0.41954 -0.2164,-0.41954 0.23804,0 0.72494,0.18879 1.081999,0.41954 0.35706,0.23075 0.45444,0.41955 0.2164,0.41955 -0.23804,0 -0.724939,-0.1888 -1.081999,-0.41955 z m 133.302322,-3.67878 c 0.5951,-0.34019 1.27676,-0.61852 1.5148,-0.61852 0.23804,0 -0.0541,0.27833 -0.6492,0.61852 -0.5951,0.34019 -1.27676,0.61852 -1.5148,0.61852 -0.23804,0 0.0541,-0.27833 0.6492,-0.61852 z M 90.835451,99.219817 c -0.538347,-0.686441 -0.523039,-0.70175 0.163406,-0.163405 0.41657,0.326695 0.757399,0.667523 0.757399,0.757396 0,0.356212 -0.355408,0.126941 -0.920805,-0.593991 z m -2.366314,-1.94759 -0.824478,-0.973796 0.973799,0.824475 c 0.915131,0.774803 1.170828,1.123116 0.824478,1.123116 -0.08213,0 -0.520336,-0.438208 -0.973799,-0.973795 z m 154.334233,0.84536 c 0,-0.102721 0.92511,-0.535095 2.0558,-0.960832 1.95393,-0.735712 20.98904,-8.459999 24.47888,-9.933324 l 1.64869,-0.696038 -0.13389,1.797147 -0.13389,1.797146 -13.09856,3.818623 c -7.2042,2.100242 -13.48521,3.941342 -13.95779,4.091332 -0.47258,0.149991 -0.85924,0.188667 -0.85924,0.08595 z M 189.1362,95.48583 c 0,-0.08987 0.34083,-0.430702 0.7574,-0.757397 0.68645,-0.538344 0.70175,-0.523036 0.16341,0.163405 -0.5654,0.720933 -0.92081,0.950199 -0.92081,0.593992 z M 75.25466,91.862253 c -0.538347,-0.686441 -0.523039,-0.701749 0.163406,-0.163405 0.416569,0.326695 0.757399,0.667524 0.757399,0.757397 0,0.356207 -0.355409,0.126941 -0.920805,-0.593992 z m 20.153167,-1.94759 -1.271172,-1.406593 1.406599,1.271167 c 0.77363,0.699142 1.4066,1.332108 1.4066,1.406593 0,0.334362 -0.357116,0.03997 -1.542027,-1.271167 z M 105.37135,78.44552 C 94.247959,58.098611 65.166089,8.4362958 60.337905,1.5431278 60.003048,1.0650546 59.729074,0.52247995 59.729074,0.33740626 c 0,-0.1850737 2.596622,-0.3364976351 5.770271,-0.3364976351 l 5.77027,0 L 72.91334,3.7878899 c 3.041241,7.0067251 15.838683,35.2397561 17.159045,37.8553671 0.719261,1.424843 1.239882,2.658489 1.156934,2.741436 -0.08295,0.08295 -1.961014,-3.345044 -4.173481,-7.617758 -3.720705,-7.18542 -5.256734,-9.76044 -3.794991,-6.361977 2.619879,6.091058 17.788643,37.968819 23.407503,49.191816 2.03671,4.068077 3.6295,7.396504 3.53953,7.396504 -0.09,0 -2.2664,-3.846491 -4.83653,-8.547758 z m 113.19524,8.361814 c 0,-0.11902 0.38951,-0.424863 0.86559,-0.679652 0.47608,-0.254789 0.8656,-0.365873 0.8656,-0.246854 0,0.119019 -0.38952,0.424863 -0.8656,0.679652 -0.47608,0.254789 -0.86559,0.365873 -0.86559,0.246854 z m -42.41438,-2.141451 c 0,-0.08987 0.34083,-0.430701 0.7574,-0.757396 0.68644,-0.538345 0.70175,-0.523036 0.1634,0.163405 -0.56539,0.720932 -0.9208,0.950199 -0.9208,0.593991 z M 139.4486,82.4489 c 0.009,-0.714116 0.10582,-0.953859 0.21556,-0.53276 0.10973,0.421098 0.10251,1.005375 -0.016,1.298393 -0.11855,0.293018 -0.20834,-0.05152 -0.19952,-0.765633 z m 40.59881,0.485792 c 0,-0.08987 0.34083,-0.430701 0.7574,-0.757396 0.68644,-0.538345 0.70175,-0.523037 0.1634,0.163405 -0.56539,0.720932 -0.9208,0.950198 -0.9208,0.593991 z m -49.67156,-1.567787 c 0,-0.833135 0.0891,-1.173964 0.19792,-0.757396 0.10887,0.416568 0.10887,1.098225 0,1.514793 -0.10886,0.416568 -0.19792,0.07574 -0.19792,-0.757397 z m 9.47791,-2.813186 c -0.0325,-0.714116 0.14369,-4.804056 0.39157,-9.088755 0.62327,-10.773648 1.63672,-36.748398 1.44238,-36.96815 -0.38575,-0.436181 -0.52732,0.807631 -1.32596,11.649476 l -0.84484,11.469143 0.14161,-20.1251 c 0.0779,-11.068805 0.0582,-19.930341 -0.0438,-19.692303 -0.10199,0.238039 -0.50313,5.009636 -0.89141,10.603548 -0.38829,5.593912 -0.86237,12.313099 -1.05352,14.931526 l -0.34755,4.760776 -0.0562,-4.977175 C 137.14826,30.690409 136.24944,6.66221 135.93848,5.6273845 135.64887,4.6636491 135.16067,18.75308 134.96502,33.721257 c -0.0658,5.034264 -0.094,4.823567 -0.37088,-2.775302 -1.2332,-33.839649 -1.61215,-33.3278627 -1.76258,2.380388 -0.0577,13.687233 -0.16599,24.106841 -0.24074,23.154686 -0.0747,-0.952156 -0.34385,-5.139475 -0.59801,-9.305154 -0.58422,-9.575678 -2.96947,-40.6836795 -3.18579,-41.5485943 -0.31886,-1.2748861 -0.2413,6.4383403 0.16321,16.2299193 0.52991,12.827346 0.83738,23.917046 0.59396,21.423494 -0.10456,-1.071175 -0.86581,-10.03009 -1.69166,-19.908701 -0.82585,-9.878611 -1.62373,-19.1783552 -1.77308,-20.6660978 l -0.27155,-2.7049865751 16.50616,0 c 9.94585,0 16.50616,0.1607683451 16.50616,0.4045032351 0,0.22247678 -0.27765,1.73185934 -0.61699,3.35418334 -0.68281,3.264352 -7.3846,40.1077648 -10.37724,57.0494118 -2.12301,12.01853 -2.55691,13.090759 -0.92552,2.287058 2.13251,-14.12227 8.02455,-55.2213104 8.02455,-55.9739948 0,-0.4254028 -0.0943,-0.6791634 -0.20955,-0.5639124 -0.23987,0.2398724 -8.21478,48.1159492 -8.71784,52.3361292 -0.18228,1.529174 -0.40046,2.462159 -0.48484,2.0733 -0.0844,-0.388859 0.33908,-5.257834 0.94104,-10.819946 1.85939,-17.180914 4.16477,-41.1806656 3.97407,-41.3713682 -0.29761,-0.2976107 -0.59389,1.6299892 -2.40966,15.6777142 -2.88893,22.35014 -3.91155,30.644518 -3.94738,32.016898 -0.0188,0.719696 -0.12822,1.077641 -0.24317,0.795434 -0.11495,-0.282207 0.28995,-6.162328 0.89977,-13.066934 1.08651,-12.301868 1.28505,-15.526776 0.93361,-15.164954 -0.26388,0.27167 -2.87627,23.145242 -5.38374,47.1389 -0.21144,2.02333 -0.41105,3.094505 -0.44357,2.380388 z m 4.7724,-0.216399 c 0,-0.595097 0.0982,-0.838545 0.2183,-0.540997 0.12007,0.297549 0.12007,0.784446 0,1.081995 -0.12006,0.297548 -0.2183,0.0541 -0.2183,-0.540998 z m -14.94669,-3.029585 c -0.50844,-6.102657 -5.47479,-50.821012 -5.69579,-51.286545 -0.34345,-0.723462 0.18768,7.02012 1.56801,22.8605 0.72226,8.288577 1.23568,15.299902 1.14092,15.580723 -0.0948,0.280821 -0.31456,-0.75535 -0.48845,-2.302602 -0.95385,-8.487049 -8.16321,-53.7936241 -8.38641,-52.7036233 -0.0841,0.4108017 0.55976,6.8039533 1.43084,14.2070023 0.87107,7.40305 1.49468,13.549183 1.38579,13.658074 -0.1089,0.108891 -0.32841,-0.831007 -0.48781,-2.088662 -0.3068,-2.420681 -5.30747,-30.5578498 -5.73025,-32.24233956 L 114.16801,9.086249e-4 h 5.44867 c 5.30504,0 5.45373,0.0256693651 5.64069,0.9737951751 0.10562,0.5355873 0.50561,6.8165662 0.88886,13.9577312 0.80266,14.955763 2.522,41.450574 3.51769,54.207369 0.37621,4.819977 0.60258,9.007297 0.50304,9.305154 -0.0995,0.297858 -0.31891,-1.113893 -0.48749,-3.137223 z m -6.29466,2.344322 c 0.0208,-0.504185 0.12332,-0.606739 0.26148,-0.261482 0.12502,0.312426 0.10965,0.685714 -0.0342,0.829529 -0.14381,0.143815 -0.24611,-0.111806 -0.22731,-0.568047 z M 145.075,75.524134 c 0.009,-0.714116 0.10582,-0.953858 0.21555,-0.53276 0.10974,0.421098 0.10252,1.005375 -0.016,1.298394 -0.11856,0.293018 -0.20834,-0.05152 -0.19952,-0.765634 z m -22.72493,-2.70826 c -1.8128,-8.453416 -7.44111,-31.410403 -7.55536,-30.817134 -0.0702,0.364618 1.13919,6.877501 2.68757,14.473073 1.54838,7.595571 2.75417,13.871202 2.67953,13.945847 -0.0747,0.07464 -0.68211,-2.056767 -1.34993,-4.736468 -1.93694,-7.772227 -9.31907,-35.104136 -9.5414,-35.326465 -0.44041,-0.440409 -0.10371,1.308668 2.41985,12.570707 1.44214,6.435939 2.53671,11.787074 2.43237,11.89141 -0.10433,0.104337 -0.31693,-0.354954 -0.47243,-1.020646 -0.75329,-3.224805 -9.54683,-31.326965 -9.67877,-30.93115 -0.15645,0.469336 2.79129,11.892613 8.38403,32.490381 1.77088,6.522085 3.16066,11.91747 3.08838,11.989745 -0.0723,0.07228 -1.64412,-4.679699 -3.493,-10.559942 -5.89219,-18.739794 -14.320989,-44.32579 -14.462448,-43.901415 -0.07517,0.22552 1.740976,7.108386 4.035888,15.295257 2.29491,8.186872 4.256,15.274739 4.35796,15.750817 0.2053,0.9585 -0.90086,-1.947545 -8.813623,-23.154685 C 91.98546,7.1515586 89.983953,2.4169834 91.580259,7.7923062 c 0.383001,1.2896996 4.840785,14.8172368 9.906181,30.0611928 5.0654,15.243957 9.33644,28.105803 9.4912,28.58188 l 0.28138,0.865596 -0.42895,-0.865596 C 110.59414,65.959302 107.35649,57.487284 103.63528,47.608673 99.914079,37.730062 94.355667,23.075873 91.283258,15.043809 88.210849,7.011745 85.69706,0.34124805 85.69706,0.22048245 c 0,-0.1207656 6.209875,-0.2195738251 13.799723,-0.2195738251 H 113.29651 L 113.58535,2.4894963 c 0.15886,1.3687232 0.96622,7.9197267 1.79414,14.5577857 1.4699,11.785326 1.72029,15.379293 0.65694,9.429167 -0.68874,-3.85395 -1.68658,-7.46983 -1.73589,-6.29038 -0.0666,1.593236 5.74862,37.603206 8.22768,50.948745 1.00972,5.435612 0.88314,6.630051 -0.17815,1.68106 z m 89.29172,2.328456 c 0,-0.08987 0.34083,-0.430701 0.7574,-0.757396 0.68644,-0.538344 0.70175,-0.523036 0.1634,0.163405 -0.56539,0.720932 -0.9208,0.950199 -0.9208,0.593991 z M 145.5078,72.927347 c 0.009,-0.714116 0.10582,-0.953858 0.21555,-0.53276 0.10974,0.421098 0.10252,1.005375 -0.016,1.298393 -0.11856,0.293019 -0.20834,-0.05152 -0.19952,-0.765633 z m 26.19905,-4.977175 c 5.37004,-10.271791 16.56375,-32.391838 16.56375,-32.731849 0,-0.194364 -0.26973,0.03171 -0.5994,0.502377 -0.85088,1.214787 -14.58486,25.838472 -16.22604,29.091687 -2.12363,4.209548 -1.97898,3.1814 0.21312,-1.514792 6.21762,-13.320223 14.47394,-31.821092 14.285,-32.010028 -0.12097,-0.120973 -4.13548,7.543037 -8.92113,17.031133 -4.78565,9.488096 -8.60971,16.958945 -8.49792,16.601887 0.1118,-0.357058 1.69537,-3.9601 3.51904,-8.00676 8.00657,-17.766237 20.23552,-46.124246 19.99437,-46.365401 -0.18479,-0.184784 -14.52741,30.223614 -22.48141,47.663794 -2.60552,5.712932 -4.84761,10.484528 -4.98242,10.603548 -0.31318,0.276493 -0.70998,1.265594 6.16378,-15.364324 3.24688,-7.855281 9.4249,-22.949107 13.72894,-33.541834 4.30404,-10.5927275 7.95675,-19.40939369 8.11713,-19.59259147 0.16038,-0.18319779 4.59403,-0.2805773 9.85255,-0.21639893 l 9.56096,0.11668795 -7.15898,11.90194145 c -8.74701,14.542084 -24.8606,42.09447 -30.62693,52.36854 -4.95804,8.833908 -6.23703,10.602139 -2.50441,3.462383 z m -51.35164,3.642715 c 0.0208,-0.504185 0.12332,-0.606739 0.26148,-0.261482 0.12503,0.312426 0.10965,0.685714 -0.0342,0.829529 -0.14381,0.143816 -0.2461,-0.111806 -0.22731,-0.568047 z m -39.243669,-1.586925 -0.824478,-0.973795 0.973799,0.824474 c 0.915132,0.774803 1.170828,1.123116 0.824478,1.123116 -0.08213,0 -0.520336,-0.438208 -0.973799,-0.973795 z M 115.80756,69.43405 c -0.1592,-0.634271 -0.20598,-1.236688 -0.10396,-1.338704 0.10202,-0.102017 0.31574,0.333464 0.47493,0.967735 0.15919,0.634271 0.20597,1.236688 0.10395,1.338704 -0.10201,0.102017 -0.31573,-0.333464 -0.47492,-0.967735 z m 41.76355,0.94301 c -0.0161,-0.212464 1.21958,-4.205024 2.74598,-8.872356 3.19436,-9.767521 11.74566,-37.245579 16.07609,-51.6576442 l 2.9585,-9.8461511751 h 6.35918 6.35918 L 185.88844,14.003888 c -3.39988,7.701638 -8.77407,20.061453 -11.94265,27.466256 -5.78011,13.507804 -7.54387,17.126375 -4.24176,8.702504 1.65461,-4.221006 15.76778,-41.8310605 17.12012,-45.6232466 2.99192,-8.3898194 -7.69556,16.5144946 -16.75569,39.0446676 -1.74447,4.338035 -3.2178,7.841302 -3.27406,7.785037 -0.0563,-0.05627 2.80967,-8.753475 6.36874,-19.327132 3.55907,-10.573657 6.40572,-19.420766 6.3259,-19.660241 -0.15797,-0.473887 -9.3871,24.044083 -16.59624,44.089296 -4.65657,12.947725 -5.27178,14.554183 -5.32169,13.896031 z m -48.233,-1.794423 c -0.41764,-1.088354 -0.29443,-1.36918 0.21577,-0.491805 0.25262,0.434422 0.36814,0.881029 0.25671,0.992461 -0.11144,0.111432 -0.32405,-0.113863 -0.47248,-0.500656 z M 127.28,68.130504 c 0.0208,-0.504184 0.12333,-0.606739 0.26149,-0.261482 0.12502,0.312426 0.10965,0.685714 -0.0342,0.82953 -0.14382,0.143815 -0.24611,-0.111807 -0.22732,-0.568048 z m 26.8399,0.439219 c -0.0223,-0.254345 0.26361,-1.486421 0.63528,-2.737948 1.58011,-5.320781 10.06723,-39.525615 9.71921,-39.170425 -0.35775,0.365121 -9.35389,31.314745 -11.0839,38.132171 -0.43531,1.715405 -0.85667,3.053712 -0.93637,2.974015 -0.0797,-0.0797 0.92375,-4.988872 2.22989,-10.909279 2.87422,-13.028124 5.94855,-28.051658 8.88945,-43.440615 1.20549,-6.3080286 2.29284,-11.9073509 2.41633,-12.4429382 0.21526,-0.93363986 0.41157,-0.9737951751 4.76067,-0.9737951751 2.49488,0 4.53615,0.1633063151 4.53615,0.3629029351 0,0.19959661 -1.05614,3.65656944 -2.34697,7.68216194 -3.93071,12.2583015 -8.63269,27.3948395 -12.96189,41.7266885 -2.26498,7.498223 -4.50047,14.899066 -4.96775,16.446319 -0.46729,1.547252 -0.86783,2.605086 -0.8901,2.350742 z M 106.26034,60.696869 C 102.27851,50.645088 85.649182,10.242507 85.19743,9.5224614 84.909092,9.0628802 84.872721,9.1892905 85.072904,9.9552593 85.430622,11.324012 96.056636,39.988522 99.506976,48.892305 c 1.426624,3.681483 2.530454,6.757017 2.452944,6.834521 -0.0775,0.0775 -0.43719,-0.597509 -0.79931,-1.50003 -0.81766,-2.037862 -6.809218,-15.060001 -13.499505,-29.340011 -4.813981,-10.275148 -6.933255,-14.25592 -5.069062,-9.521553 1.435919,3.646706 12.298852,29.327534 16.465105,38.924802 2.163582,4.983962 3.880092,9.11544 3.814472,9.181062 -0.0656,0.06562 -1.36308,-2.551473 -2.883226,-5.815766 C 95.994325,49.078664 82.293048,20.864704 76.666631,9.6306609 l -4.822929,-9.6297522751 6.440914,0 6.440915,0 L 87.002984,6.384677 c 3.927446,11.008744 17.105556,47.20292 19.643906,53.952744 1.33474,3.549249 2.36243,6.517552 2.28375,6.596228 -0.0787,0.07868 -1.28031,-2.727874 -2.6703,-6.23678 z m 38.36582,5.522112 c 0,-0.595098 0.0982,-0.838546 0.2183,-0.540998 0.12007,0.297549 0.12007,0.784446 0,1.081995 -0.12006,0.297548 -0.2183,0.0541 -0.2183,-0.540997 z m -17.70398,-1.514793 c 0.005,-0.952155 0.0934,-1.290713 0.19696,-0.75235 0.10352,0.538363 0.0996,1.317399 -0.009,1.731191 -0.10832,0.413793 -0.19302,-0.02669 -0.18822,-0.978841 z m 18.16886,-1.514792 c 0,-0.833136 0.0891,-1.173965 0.19793,-0.757397 0.10886,0.416568 0.10886,1.098225 0,1.514793 -0.10886,0.416568 -0.19793,0.07574 -0.19793,-0.757396 z m -1.7312,-3.462383 c 0,-0.833136 0.0891,-1.173965 0.19793,-0.757397 0.10886,0.416568 0.10886,1.098225 0,1.514793 -0.10886,0.416568 -0.19793,0.07574 -0.19793,-0.757396 z m 23.71683,-2.813186 c 0,-0.238039 0.18879,-0.724937 0.41954,-1.081995 0.23075,-0.357058 0.41955,-0.454438 0.41955,-0.216399 0,0.238039 -0.1888,0.724936 -0.41955,1.081995 -0.23075,0.357058 -0.41954,0.454437 -0.41954,0.216399 z m -37.11616,-8.439559 c 0,-1.071174 0.0844,-1.509382 0.18757,-0.973795 0.10316,0.535588 0.10316,1.412003 0,1.947591 -0.10316,0.535587 -0.18757,0.09738 -0.18757,-0.973796 z m 35.40587,-9.580007 c -0.0188,-0.15117 1.70007,-6.383459 3.81968,-13.849531 2.11962,-7.466073 4.58108,-16.1552354 5.46991,-19.3092498 1.56978,-5.57032744 1.65006,-5.7345715751 2.80276,-5.7345715751 l 1.18669,0 L 172.266,18.935815 c -7.02105,20.839312 -6.85119,20.347972 -6.89962,19.958446 z m -44.5442,-2.105535 c 0,-0.595097 0.0982,-0.838546 0.2183,-0.540997 0.12006,0.297549 0.12006,0.784446 0,1.081995 -0.12007,0.297548 -0.2183,0.0541 -0.2183,-0.540998 z M 156.963,22.289998 c 0.1445,-1.190194 0.87238,-6.643447 1.61752,-12.11834 l 1.3548,-9.95435045 1.43883,-0.13851369 c 1.22289,-0.11772437 1.40188,-0.02028736 1.19259,0.64919678 -0.13543,0.43324076 -1.30018,5.16978876 -2.58832,10.52566236 -1.28814,5.355873 -2.55269,10.516988 -2.8101,11.469143 l -0.46804,1.731191 z"
       id="path1" /></g></svg>
